<svg version="1.1" id="Layer_1" xmlns="http://www.w3.org/2000/svg" xmlns:xlink="http://www.w3.org/1999/xlink" x="0px" y="0px"
	 viewBox="0 0 600 530" style="enable-background:new 0 0 600 530;" xml:space="preserve">
<style type="text/css">
	.st0{fill:#EAEAEA;}
	.st1{fill:#EDEDED;}
	.st2{fill:none;stroke:#E5E5E5;stroke-width:0.25;stroke-miterlimit:10;}
	.st3{fill:#DBDBDB;}
	.st4{fill:#D0E7F4;}
	.st5{fill:#EDBCDA;}
	.st6{fill:#9B84C1;}
	.st7{fill:#E2E2E2;}
	.st8{fill:#F4F4F4;}
	.st9{fill:#E5E5E5;}
	.st10{fill:#FFFFFF;}
	.st11{fill:#EFEFEF;}
	.st12{fill:#F2F2F2;}
	.st13{fill:#EFD1C7;}
	.st14{fill:#816051;}
	.st15{fill:#F5C85C;}
	.st16{fill:#50208F;}
	.st17{fill:#99CFF8;}
	.st18{fill:#363636;}
	.st19{fill:#E01D85;}
	.st20{fill:#826152;}
	.st21{opacity:0.2;fill:#3D3D75;}
	.st22{fill:#C9C9C9;}
</style>
<ellipse class="st0" cx="301.9" cy="402.6" rx="277.9" ry="10"/>
<path class="st1" d="M378.4,115.1c-0.1,0-0.1-0.1-0.1-0.1H147.9c-0.1,0.1-0.2,0.1-0.4,0.2c-0.1,0.1-0.2,0.2-0.3,0.3
	c-0.7,0.5-1.2,1.2-1.6,2v12.1h235.1V117C380,116.3,379.3,115.5,378.4,115.1z"/>
<path class="st2" d="M145.6,269.9V118.2c0-1.8,1.5-3.3,3.3-3.3h228.5c1.8,0,3.3,1.5,3.3,3.3v82"/>
<line class="st2" x1="372.2" y1="246.9" x2="256.6" y2="246.9"/>
<rect x="372.2" y="200.2" class="st2" width="86.6" height="95.4"/>
<circle class="st3" cx="352.2" cy="122.2" r="2"/>
<rect x="110.7" y="226" class="st2" width="145.8" height="75.6"/>
<circle class="st3" cx="362" cy="122.2" r="2"/>
<circle class="st3" cx="371.8" cy="122.2" r="2"/>
<path class="st4" d="M262.2,180.8l10.3-22.9c0,0,0.6,3.2,1.4,2.8s2.4-2.7,3.5-2.8c1.1-0.1,9.8-3.5,9.8-3.5s1.2,1.9,1.3,2.1
	c0.1,0.2,1.3,1,1.3,1l0.8,1.6c0,0,1.2,1.5,1.2,1.8s0,9.7,0,9.7s-10.8,0.4-13.3,0.4S262.2,180.8,262.2,180.8z M306.2,176.9
	c0,0,1.5-9.6,1.2-9.7s-2.7,5.1-3.1,5.7s-1,3-1.2,4c-0.1,1-1.8,3.3-1.8,3.3L306.2,176.9z M314.4,164.6c-0.2,0.4,4.2,7.9,4.2,7.9
	l4.7,0.7l3.1-10.3c0,0,0.1-4.8,0-5.5c-0.1-0.7,0-0.8-1-1.8c-0.2-0.2-0.7-1.6-0.7-1.6s-0.7-0.2-0.9,0c-0.2,0.2-0.8,1.7-0.9,2.1
	c-0.1,0.4-0.6,3.1-0.8,3.7c-0.2,0.6-1-1.2-1-1.4c0-0.2-0.6-3.1-1.2-4c-0.6-0.8-3.1-0.2-3.1-0.2S314.6,164.2,314.4,164.6z M333,172.6
	c-0.1,0.9,2.8,3.4,3.1,3.8s11.4,3.8,11.4,3.8s-0.3-1-0.5-1s-1.7-0.8-1.7-0.8s-1.1-3.8-1.4-4.2s-1.3-1.8-1.6-2.2
	c-0.2-0.4-1.3-1.3-1.3-1.3s-0.4-3.1-0.4-3.7s-1-1.1-1.5-2c-0.5-0.9-1.1-6.1-1.1-6.1s-0.9-1.1-1.1-1.3c-0.2-0.1-1.3-3.1-1.3-3.1
	s-2.4-0.2-3,0s-1.1,8.3-1.1,8.7C331.5,163.2,333.1,171.7,333,172.6z M359.2,177.9c-0.1,0.3,4.3,1.3,4.3,1.3l0.4-2.3
	c0,0-1.3-0.3-2.1-0.8c-0.7-0.5-0.7-1.7-0.8-2.1s-0.4-7.4-0.5-8.2c-0.1-0.8-0.6-5.4-0.8-5.8c-0.2-0.4-0.4-0.1-0.8,0
	c-0.4,0.1-0.6,1.8-0.7,2.1c-0.1,0.3-0.4,3.7-0.5,4.2s-0.9,1.2-1,1.4s-0.3,3.2-0.3,3.2S359.2,177.6,359.2,177.9z"/>
<path class="st5" d="M252.1,180.8c0,0,1.2-1.8,1.6-1.9c0.3-0.1,2.4-1.1,2.4-1.1l1.8-1.8h1c0,0,1.2-14.5,1.2-14.9s0.7-2.4,0.7-2.4
	l0.9-0.8l1-3.9h5.8v1.2l1.8-1.2h1.5c0,0,1.1,5.8,1.2,6.4c0.1,0.6,1.1,2.6,1.1,2.6l1.9-7.5l1.3-0.7l0.8-0.8c0,0,8.5-0.9,9,0
	c0.4,0.9,0.6,10,1,10.3c0.4,0.3,4,1.9,4,3.8s1.1,11.1,1.1,11.1s1.6-1.2,2-1.3s2.6,0.6,2.9,0.7c0.3,0.1,2,1.1,2,1.1s3.5-0.8,4.2-2.5
	s1.2-13.6,1.3-14.7c0.1-1.1,1.8-5.1,2-5.7c0.2-0.7,0.7-2.4,1.3-2.6c0.7-0.2,3,0.1,3,0.1s1.1,0.8,1.5,0.7c0.3-0.1,1.3-0.9,1.3-0.9
	l2.8,0.1l0.9,4.8c0,0,1.9,2.6,1.9,3.6s1,8.5,1.3,8.3c0.3-0.2,1.1-6.3,1.1-9c0-2.7,0.8-5.5,1-4.9c0.2,0.6,1,3.4,1.6,3.8
	c0.6,0.4,1.7,0.6,1.7,1.5c0,0.9-0.3,9.9,0,10.9s0.7,6.8,1.2,6.5c0.6-0.3,0.9-6.7,0.9-8.2s0.6-6.4,0.9-7.3c0.3-0.9,1.2-3.4,1.5-4.4
	c0.2-1,0.3-4,1.5-4.2c1.1-0.1,2.4,0.6,2.5,1.3s0.8,4.2,1.3,5.4c0.6,1.2,2.4,4.9,2.4,5.9s1.1,4.8,2,6.1c0.9,1.2,3.1,4.7,4.4,4.8
	c1.2,0.1,3.6-0.4,4.9-0.4c1.3,0,4,1.1,4.3,0c0.2-1.1,0.7-7.6,0.9-8.3c0.2-0.7,2-2.8,2.5-2.6c0.4,0.2,0.9,1.9,1.2,3.7
	s0.2,6.3,1.2,6.3s3.1,0.2,3.1,0.2v2.7H252.1z"/>
<path class="st6" d="M271,180.8c0,0,1.1-0.8,1.3-1.4c0.2-0.6,1.4-3.5,2-3.3s1.9,4.2,2.6,4.3c0.7,0.1,3.7,0.4,3.7,0.4H271z
	 M293.2,180.8c0,0-1.3-1.8-2.3-2.4s-0.8-1.9-1.2-2.4c-0.4-0.5-1,1.4-1.3,2.4c-0.3,1-1.3,2.4-1.3,2.4H293.2z M307.4,180.8
	c0,0-1.2-2.2-1.4-2.4s-1,0.8-1.6,0.9s-1.6,1.5-1.6,1.5H307.4z M347.5,180.8c0,0-2.3-1-3.1-1.2c-0.7-0.2-1.9-0.4-2.7,0
	c-0.8,0.4-4-1.1-4-1.1l-1.9,1.1c0,0-3.4-0.1-4.6,0c-1.3,0.1-2.2,0.5-2.8,0.7s-1.8-0.3-2.9-0.7c-1.1-0.4-1.9-0.9-2.8-1.2
	c-0.8-0.3-1.8-1.2-2.2-1.5c-0.4-0.2-1.7,1.7-1.9,2.3c-0.2,0.6-1,1.6-1,1.6H347.5z M363.9,180.8v-1.2h-7.1l-1.3,1.2H363.9z"/>
<path class="st4" d="M235.8,198.8h24.8v6.4h2.3v-2.2h8.7c0-0.7,0-0.7,0-0.7h11.2v-0.7h3.8v-2.2h32.9v-0.7h8.7v-2.2h7.2V196h19.2
	v-0.7h2.8v1h6.5v23.6H235.8V198.8z"/>
<path class="st5" d="M235.8,206.6h19.8v-0.4h2.8V205h2.3v1.6h2.1V206h2.6v0.5h2v1.1c0,0,2.2,0.2,2.2,0c0-0.2,0-2.1,0-2.1h2.2v0.8
	h6.5v0.5h2.1V205h2.2v0.8h4.4v2.9h2.2v-1.1h13v-0.8h2.3v1.9h2.2v-1.6h1.9v-0.9h2.6v1.8h2v-1.2h2.4v1.6h2.1v-1.6h2.1v-0.6h2.1v-1.1
	h6.6v0.8h2.2v-1.9h2.3V203h2.4v1.1h1.9V203h2v-0.5h2.5v-0.8h2.2v3.5h2.1v-0.9h6.5v-0.6h2.3v-1.1h2.3v1.6h2v-1.1h2.4v-0.9h2.7v17.6
	H235.8V206.6z"/>
<polygon class="st6" points="328.1,236.5 364,236.5 364,234.9 356.9,234.9 356.9,233.7 341.6,233.7 341.6,234.2 335.1,234.2
	335.1,235.1 332.8,235.1 332.8,235.7 330.3,235.7 330.3,236 328.1,236 "/>
<path class="st7" d="M182.7,148.2h-26.5v-3.6h26.5V148.2z M182.7,154.9h-26.5v3.6h26.5V154.9z M182.7,164.3h-26.5v3.6h26.5V164.3z
	 M182.7,174.7h-26.5v3.6h26.5V174.7z M182.7,185h-26.5v3.6h26.5V185z M182.7,195.3h-26.5v3.6h26.5V195.3z M182.7,204.7h-26.5v3.6
	h26.5V204.7z M182.7,215.1h-26.5v3.6h26.5V215.1z"/>
<path class="st7" d="M229.8,147.1h-13.2v-1.3h13.2V147.1z M229.8,156h-13.2v1.3h13.2V156z M229.8,165.5h-13.2v1.3h13.2V165.5z
	 M229.8,175.8h-13.2v1.3h13.2V175.8z M229.8,186.1h-13.2v1.3h13.2V186.1z M229.8,196.4h-13.2v1.3h13.2V196.4z M229.8,205.9h-13.2
	v1.3h13.2V205.9z M229.8,216.2h-13.2v1.3h13.2V216.2z"/>
<path class="st8" d="M129.3,276.3h-6.1v-4h6.1V276.3z M150.8,233.4h-16.1v4h16.1V233.4z M150.8,243.1h-16.1v4h16.1V243.1z
	 M149.1,262.5h-6.3v4h6.3V262.5z M141.2,282h-4.7v4h4.7V282z M147.7,292.3h-1.9v4h1.9V292.3z M175,272h-16.1v4H175V272z M233,262.2
	h-47.3v4H233V262.2z M242.1,243.1h-3v4h3V243.1z"/>
<path class="st6" d="M130,257.1h-7.7v-4h7.7V257.1z M130,262.9h-6.1v4h6.1V262.9z M142.8,272.6h-6.3v4h6.3V272.6z M176.5,243.4
	h-16.1v4h16.1V243.4z M234.5,233.7h-47.3v4h47.3V233.7z M234.5,253.1h-47.3v4h47.3V253.1z M234.5,272.3h-47.3v4h47.3V272.3z
	 M234.5,282h-47.3v4h47.3V282z M243.6,253.1h-3v4h3V253.1z M243.6,262.6h-3v4h3V262.6z M243.6,282h-3v4h3V282z"/>
<path class="st5" d="M130,237.7h-7.7v-4h7.7V237.7z M130,243.4h-7.7v4h7.7V243.4z M130,282.3h-4.6v4h4.6V282.3z M151.6,253.1h-16.1
	v4h16.1V253.1z M150.6,272.6h-6.3v4h6.3V272.6z M149.8,282.3h-4.7v4h4.7V282.3z M142.8,262.9h-6.3v4h6.3V262.9z M140.5,292.7h-1.9v4
	h1.9V292.7z M176.5,233.7h-16.1v4h16.1V233.7z M176.5,253.1h-16.1v4h16.1V253.1z M176.5,262.6h-16.1v4h16.1V262.6z M176.5,282h-16.1
	v4h16.1V282z M234.5,243.4h-47.3v4h47.3V243.4z M243.6,233.7h-3v4h3V233.7z M243.6,272.3h-3v4h3V272.3z M243.6,290.6h-1v4h1V290.6z"
	/>
<path class="st5" d="M413.8,236h-21.3v-5.9h21.3V236z M412.3,221.3h-19.9v5.9h19.9V221.3z M417.4,248.1h-25v5.9h25V248.1z
	 M408,239.2h-15.6v5.9H408V239.2z M422.5,265.8h-21.6v5.9h21.6V265.8z M414.5,257h-21.3v5.9h21.3V257z M438.2,283.8H415v5.9h23.2
	V283.8z M431.2,274.9h-21.6v5.9h21.6V274.9z M399.4,203.3H386v5.9h13.4V203.3z"/>
<path class="st6" d="M446.3,236h-32.5v-5.9h32.5V236z M415,221.3h-2.7v5.9h2.7V221.3z M446.3,248.1h-28.9v5.9h28.9V248.1z
	 M410.7,239.2H408v5.9h2.7V239.2z M442.6,265.8h-20v5.9h20V265.8z M438.9,257h-24.4v5.9h24.4V257z M450.3,283.8h-12.2v5.9h12.2
	V283.8z M448.1,274.9h-16.9v5.9h16.9V274.9z M393.7,212.1h-2.7v5.9h2.7V212.1z M400.8,203.3h-1.3v5.9h1.3V203.3z"/>
<path class="st4" d="M392.5,234.3h-10.1v-2.5h10.1V234.3z M392.5,223h-10.1v2.5h10.1V223z M392.5,249.8h-10.1v2.5h10.1V249.8z
	 M392.5,240.9h-10.1v2.5h10.1V240.9z M400.9,267.5h-18.5v2.5h18.5V267.5z M393.2,258.7h-10.8v2.5h10.8V258.7z M415,285.5h-32.7v2.5
	H415V285.5z M409.6,276.6h-27.3v2.5h27.3V276.6z M390.9,213.8h-8.6v2.5h8.6V213.8z M386,205h-3.7v2.5h3.7V205z"/>
<path class="st9" d="M532,375.7c6.8-6.1,15.8-27.1,10.4-28.8c-5.5-1.7-7.9,5.2-9.3,1.9c-1.5-3.4,5.1-14.2,2-15.1
	c-3.1-0.9-5.3,3.6-6.1,2.5s3.2-21.8-5.3-23.5c-8.5-1.7-12.3,7.5-11.2,12.6c1.1,5.1,4,13,1.7,13c-2.3,0-3.8-7.7-7.1-5.8
	c-4.3,2.6-4.7,12,1.5,15.5c6.1,3.5,10,10.8,7.3,9.5c-2.8-1.4-6.1-1.7-7.3,1.2c-1.2,2.9,4.5,10.5,10.4,15.6
	C524.8,379.4,529.4,378,532,375.7z"/>
<path class="st10" d="M533.1,366.3c0.6-1.4,2.2-7.4,2.2-7.4s-3.5,5-4.4,6.4c-0.7,1-1.6,4.4-2.1,6.4c-0.6-3.3-1.5-8.7-2.2-13.2
	c0.6-1.9,1.5-4.9,1.8-5.7c0.5-1.2,1.2-9.2,1.2-9.2s-2.7,8.1-3,9.2c-0.1,0.5-0.2,2.1-0.4,3.7c-0.4-2.6-0.7-4.6-0.6-5.1
	c0.1-1-1.6-8.9-2.8-14.6c0.2-1.9,0.5-4.5,0.4-5.3c-0.3-1.2-2.4-9.3-2.4-9.3s-0.3,6.2,0,8.3c0.3,2.1,1.7,8.3,1.7,8.3l0,0
	c0.8,5.7,1.8,12.9,2.4,15.8c0.2,0.9,0.4,2.3,0.7,3.8c0,0-2.6-5.8-4.1-6.8c-1.5-1-9-7.8-9-7.8l5.2,6.8l7.8,7.8
	c0.9,4.7,2.1,11.2,2.7,14.4c-1.9-2-4.7-4.8-6-5.8c-2.1-1.5-6-3.6-6-3.6s4.7,3.4,5.3,4.3c0.4,0.6,4.5,3.8,6.9,5.7
	c0.2,0.8,0.2,1.4,0.2,1.4l0.6,0c0,0-0.1-0.3-0.1-0.8c0.6,0.5,1,0.8,1,0.8s-0.4-0.5-1.1-1.2c0-0.3-0.1-0.6-0.2-1L533.1,366.3z"/>
<path class="st9" d="M112.8,386.1c0,0,16.7-35.9,11.5-35.7s-10,12.7-10.6,8c-0.6-4.7,2.4-34.6-3.3-32.8c-5.7,1.8-3.1,20.1-4.5,15.2
	s-4.1-16.3-6.1-11.7s1.2,34.1,0,31.8c-1.2-2.3-5.5-12.8-8.6-7.8c-3.1,4.9,1.1,26.8,7.4,31.3C104.8,388.9,112.8,386.1,112.8,386.1z"
	/>
<path class="st11" d="M77.1,379.8c10.5-8.3,24.4-36.9,16-39.1s-12.1,7.1-14.3,2.5c-2.3-4.6,7.8-19.3,3.1-20.6s-8.2,4.9-9.4,3.4
	c-1.2-1.5,4.9-29.7-8.2-32S45.4,304.2,47,311.1s6.1,17.7,2.7,17.7c-3.5,0-5.8-10.5-10.9-7.9c-6.7,3.5-7.2,16.4,2.3,21.1
	s15.3,14.7,11.3,12.9c-4.3-1.9-9.4-2.3-11.3,1.6c-1.8,3.9,7,14.2,16,21.3C66.1,384.9,73.2,382.9,77.1,379.8z"/>
<path class="st3" d="M95,377.6h27.3c0,0,7.4,4.1,8.2,13.7s-16,11.8-20.8,11.8c-10.5,0-25.2-1.3-24.2-11.7
	C86.6,380.1,95,377.6,95,377.6z"/>
<path class="st10" d="M78.4,363.9c1-1.9,3.4-10.1,3.4-10.1s-5.3,6.8-6.8,8.7c-1,1.3-2.5,6-3.2,8.8c-0.9-4.5-2.3-11.9-3.4-17.9
	c0.9-2.6,2.4-6.7,2.8-7.8c0.7-1.6,1.9-12.5,1.9-12.5s-4.2,11-4.6,12.5c-0.2,0.7-0.4,2.8-0.5,5c-0.6-3.6-1-6.3-0.9-6.9
	c0.2-1.3-2.4-12.1-4.3-19.9c0.4-2.5,0.8-6.1,0.5-7.2c-0.5-1.6-3.6-12.7-3.6-12.7s-0.4,8.4,0,11.2c0.4,2.9,2.7,11.2,2.7,11.2l0,0
	c1.2,7.7,2.8,17.6,3.6,21.4c0.3,1.3,0.7,3.1,1.1,5.2c0,0-4-7.9-6.3-9.3c-2.3-1.4-13.8-10.6-13.8-10.6l8.1,9.2L67,353
	c1.3,6.4,3.2,15.2,4.1,19.6c-2.9-2.7-7.2-6.5-9.3-7.8c-3.3-2-9.3-4.9-9.3-4.9s7.2,4.6,8.2,5.9c0.7,0.9,6.9,5.2,10.6,7.7
	c0.2,1.2,0.4,1.8,0.4,1.8h1c0,0-0.1-0.4-0.2-1.1c1,0.7,1.6,1.1,1.6,1.1s-0.7-0.6-1.7-1.6c-0.1-0.4-0.2-0.8-0.3-1.3L78.4,363.9z"/>
<path class="st11" d="M37,369.1h64.8c0,0,0,33.9-32.4,33.9S37,369.1,37,369.1z"/>
<path class="st9" d="M532.8,377.7c-5.6-6.1-12.1-25.8-7.1-26.7s6.6,5.4,8.2,2.6c1.6-2.9-3.4-13.2-0.6-13.7s4.5,3.7,5.3,2.8
	c0.8-0.9-1.2-19.8,6.5-20.5c7.7-0.7,10.4,7.9,9,12.3c-1.3,4.5-4.6,11.3-2.5,11.5s4-6.5,6.7-4.5c3.7,2.7,3.3,11.2-2.5,13.7
	c-5.7,2.5-9.7,8.7-7.3,7.8c2.6-1,5.6-0.9,6.4,1.8c0.9,2.7-4.8,8.9-10.5,13C539,381.7,534.9,380,532.8,377.7z"/>
<path class="st10" d="M533,367.2c-0.4-1.3-1.4-6.8-1.4-6.8s2.7,4.8,3.5,6.2c0.5,0.9,1.1,4.1,1.4,6c0.8-2.9,2-7.6,3-11.6
	c-0.4-1.8-1-4.5-1.2-5.3c-0.3-1.1-0.4-8.3-0.4-8.3s1.8,7.5,2,8.5c0.1,0.5,0.1,1.9,0,3.3c0.6-2.3,0.9-4.1,0.9-4.5
	c0-0.9,2.1-7.8,3.6-12.8c-0.1-1.7-0.1-4.1,0.1-4.8c0.4-1,2.8-8.1,2.8-8.1s-0.2,5.5-0.6,7.4c-0.4,1.8-2.2,7.2-2.2,7.2l0,0
	c-1.1,5-2.6,11.4-3.3,13.8c-0.2,0.8-0.6,2-0.9,3.3c0,0,2.8-4.9,4.2-5.7c1.4-0.8,8.6-6.1,8.6-6.1l-5.2,5.5l-7.6,6.2
	c-1.1,4.1-2.7,9.8-3.5,12.6c1.8-1.6,4.5-3.8,5.8-4.6c2-1.1,5.7-2.6,5.7-2.6s-4.5,2.6-5.1,3.3c-0.4,0.5-4.3,3-6.6,4.4
	c-0.2,0.7-0.3,1.2-0.3,1.2l-0.6-0.1c0,0,0.1-0.3,0.2-0.7c-0.6,0.4-1,0.6-1,0.6s0.4-0.4,1.1-0.9c0.1-0.2,0.1-0.5,0.2-0.9L533,367.2z"
	/>
<path class="st3" d="M557.8,371.2h-47.5c0,0,0,27.9,23.7,27.9C557.8,399.1,557.8,371.2,557.8,371.2z"/>
<path class="st0" d="M526.1,352.1c-2.6-5-10.2,2.5-12.3,0.2c-2.1-2.3,2.5-14.2,5-20.2c3.9-9.4,3.6-25.1-1.2-25.6
	c-7.5-0.7-4.4,8.2-8,7.1c-1.1-0.4-7-8.5-11.9,3.7c-2.5,6.1-0.2,18.1-0.2,18.1c-0.5,2.2-2.5-15.8-8.6-13.9
	c-6.1,1.9-6.1,11.9-3.4,18.4c2.8,6.5,6.8,13.9,5.9,14.9c-0.8,0.9-9.2-6.8-12.3-0.5c-5.4,11.1,9.3,24.6,12.2,26
	c2.9,1.4,22.4,0,22.4,0S532,363.4,526.1,352.1z M487.9,335.4c-0.6-1.4-1.2-4.1,0-5.9c1.2-1.8,2.6,1.8,2.6,1.8s2.3,4.8,1.7,6.8
	C491.7,340.2,488.4,336.8,487.9,335.4z M489.8,367.8c-0.9-1.2-2.9-4.6-2-6.5c0.8-1.8,3,1.8,4.6,1.1c1.6-0.7,0.9-1.5,3.4-1
	c2.6,0.5,3.1,5.9,3,6.7C498.6,372,490.6,369.1,489.8,367.8z M512.6,315.4c0.4-2.4,1.7-2.8,3.8-4c2.2-1.2,2.8,5.5,2.8,5.5
	s-3,4.6-4.5,5.3C513.2,323,512.2,317.8,512.6,315.4z M511.6,330.3c-0.3-2.5-0.6-1.8,1-3.5c1.5-1.8,3.3,3.5,3.3,3.5
	C515.4,332.2,511.8,332.7,511.6,330.3z M516.3,363.4c-2.3-0.3-0.6-3.2,0.8-5c1.4-1.8,4.4,0,4.5,1
	C521.8,361.9,518.5,363.6,516.3,363.4z"/>
<path class="st12" d="M487.7,378.1h27.9c0,0,7.5,4.2,8.4,14c0.8,9.8-16.3,12-21.2,12c-10.7,0-25.8-1.3-24.7-12
	C479.1,380.6,487.7,378.1,487.7,378.1z"/>
<path class="st13" d="M197.8,191c-0.4,0.5-1.5,0.1-1.5,0.1s-1,6.1-2.9,6.6c0,0,0.1,0.6,0.1,1.4v0.1h0.7l1.1,12.7l-0.1,0
	c0.2,1.6,0.4,3.6,0.5,6.2c0.3,7.1,0.5,18.2-3,19.8c-0.2,0.1-0.4,0.2-0.7,0.2c-0.2,0-0.5,0-0.8,0c-6.6-0.2-23.4-11.3-23.4-11.3
	c-0.2,8.7-2,21.6-3,28.3c-0.4,2.6-0.7,4.3-0.7,4.3l-1.4,0.3c0,0-0.1,0-0.1,0c0,0-0.6,59.1-0.6,83.8s0.6,44.7,0.6,44.7
	c-0.3,0-0.5,0.1-0.7,0.1v0.1c0,0.6,0.1,1.3,0.1,1.9c7.3,5.3,18.2,8.2,18.2,12.1c0,1-21.6,0.2-22.8-0.4c-1.3-0.6-0.9-8.8-0.8-11.1
	c0.1-0.4,0.1-0.6,0.1-0.6l-0.2-1.7c-0.1,0-0.2,0-0.3,0c-0.3,0-0.5,0-0.5,0s-1.1-4.4-2.8-14.9c-1.7-10.5-5.4-20.6-5.9-27.5
	c-0.5-6.9,2.4-12.8,1.9-17.9c-0.5-5.1-3.3-35.5-3.3-35.5l-9.8,30.6c-2.6,11.7-2.1,9.2-5.6,22.2c-3.5,13-9.7,44.4-9.7,44.4
	c-0.3,0.1-0.6,0.1-0.9,0.1v0.1l-0.1,1.1c0,0,1.4,7.7,1,10.1c-0.4,2.5,0.2,2.7-5.4,2.7c-5.6,0-6.7-0.5-7.2-1.1
	c-0.6-0.6-0.5-3.4,0-4.3c0.4-0.9,7.1-7.6,7.1-7.6l0.1-1c-0.3,0-0.4-0.1-0.6-0.1c-0.1,0-0.2,0-0.2,0c-0.6-8.8,0.3-40.5,2.2-48.7
	c1.8-8.2,7.3-20.7,7.4-21.5c0-0.8,3.8-27.1,5.7-39.6c1.6-11.3,3.4-19,3.8-20.4c0-0.2,0.1-0.3,0.1-0.3s-1.1-0.4-1.1-0.7
	c0-0.2,0.3-2.4,0.4-5.5c0.2-3.7,0.2-8.6-0.9-13c-1.8-8.2-3-9.8-3-9.8s-3.1,5-6.4,12.1c-1.3,3-3.3,7.2-5.3,11.7
	c-2,4.5-4.2,9.3-6.1,13.4l-3.7,9.8l-0.6-0.2c-0.3,0.8-0.5,1.2-0.5,1.2c0,0.1,0.6,1.2,0.6,1.3c0.2,0.6,0.7,2.1,0.9,3.2
	c0.1,1.4-1,4.9-1.2,5.3c-0.3,0.4-1.8,0.9-1.8,0.9s-0.5,0.6-1.1,0.7c-0.6,0.1-1.8-0.6-1.8-0.6s-0.9,0.5-1.6,0.2
	c-0.3-0.1-0.8-0.9-0.8-0.9s-1.2,0.4-1.6,0.2c-0.4-0.2-0.3-0.8-0.3-0.8s-1.3,0.1-1.6-0.6c-0.5-1.2,0.8-3.8,1.5-5.8
	c0.8-2.3,3.5-3.9,4-4.5c0.1-0.4,0.2-0.9,0.3-1.3l-0.6-0.2l9.3-29.3c1.2-3.9,2.2-7.2,2.6-8.8c1.7-6.6,5.1-17,8.1-22.2
	c4.6-8.2,22.3-11.1,22.6-11.4l0.2-0.7c0.3-1.6,0.9-5.5,1-5.5c-2.2-1.4-3.5-2.7-3.7-3.3c-0.5-1.4-1-3.7-1.1-4.2c0,0,0-0.1,0-0.1
	s-2.7-1-3.2-3.5c-0.5-2.5,1.4-2.7,1.4-2.7s-2.9-2.3-3.7-6.2c-0.7-3.3,1.2-6.1,5-6.4c3.7-0.3,8.2-1.3,10.3-2.2
	c2.1-0.9,7.5-3.1,9.5-2.1c2,1,1.6,2.4,1.6,2.4s3.6,0.5,3.6,3.7c0,3.1-2.5,4-4.3,4.2c-1.1,0.2-2,0.1-2,0.1s0,4.7,0,7.8s0,6.5,0,6.5
	s1.2,0.1,1.4,0.7c0.2,0.6,0,2.3,0,2.3s1.7,0.6,1.9,1.8c0.5,2.9-2.4,7.3-8.7,5l0.4,2.7c20.1,3.1,18.2,9.2,33.4,18.1
	c0.2,0,0.8-5.4,1.3-11.1l0.5-12.5h0.5c-0.3-1.4-1.8-9.5-1.7-10.2c0.1-0.8,1.3-1.5,1.3-1.5s0.5-3.2,0.8-4.8c0.3-1.5,1.4-8.1,2.3-8.2
	c0.9-0.1,0.9,1.3,0.5,3.4c-0.4,2.1-0.4,5.6-0.3,5.6c0.1,0,2.1-0.1,2.5,0.1c0.4,0.1,0.6,0.9,0.6,0.9s1.1-0.4,1.5,0
	c0.4,0.4,0.7,1.1,0.7,1.1s0.8-0.5,1,0.6C198,187.2,198.2,190.6,197.8,191z"/>
<path class="st14" d="M286.4,348.4l-6.3,42.5c0,0,0.3,0.1,0.7,0.1l0.8,0.2v0c-0.2,0.5-0.3,1-0.3,1.2c-7.2,4.6-16.1,7.5-18.2,10.8
	c-0.3,0.5-0.5,1-0.5,1.4c0,1,21.6,0.1,22.7-0.5c1.6-0.7,1.4-10.1,1.8-10.9l0.2-0.8l0-0.1l1.4,0.3c0,0,11.4-37.6,12.2-41
	c0.3-1.2,0.6-2.3,1-3.2H286.4z M342.2,295c-1.5-5.7-5.9-13.9-10-17c-4.1-3.1-14.1-4-14.1-4s-3.7-4-5.5-10.8c0,0,2.7,0.4,3.8-3.1
	c0,0,2.5,1.6,4.1,0c1.6-1.6-0.4-5.5,1.6-5.7c2-0.3,2.5-4,1.6-5.3c-1.6-2.5-6.9-1.5-9.4-3c-2.6-1.5-6.7-8.6-10.5-8.1
	c-3.8,0.6-5.3,2.1-5.2,5.6c0.1,3.5,2.1,6.8,2.1,6.8s-5.1,8.1-3.8,13.4c1.2,5.3,7.3,4.2,7.3,4.2s0.2,2,0.5,5.8l0,0.4
	c0,0-7,1.8-11.5,4.3c-4.2,2.3-22.2,24.1-22.2,24.1s-17.5-16.3-18.7-16.3h0c-0.1,0.1-0.4,0.2-0.6,0.4c-0.8-1-1.5-1.7-1.5-1.9
	c0-0.4,0-4.2-0.4-5.2c-0.4-1-3.5-5.3-3.9-5.3c-0.4,0.2-0.7,1.4,0,2c0.7,0.6,1.2,2.5,1.1,2.9c-0.1,0.4-0.6,0.8-0.6,0.8
	s-2.9-2.8-3.6-3.7c-0.8-0.9-4.3-3.2-4.8-2.8c-0.7,0.5-1.2,2.8-1.1,3.1c0.7,1.3,5.2,4.6,8,7.9c1.2,1.5,2.8,3.4,4.1,5.1
	c-0.1,0.1-0.2,0.3-0.2,0.4c-0.2,0.3-0.2,0.4-0.2,0.4s0,0,0,0.1c0.8,1,10.3,13.5,13.8,17.4c3.7,4.1,6.4,9.3,9.7,8.2
	c3.3-1.1,17.6-12.6,17.6-12.6l0.6,14l0.1,1.6l0.1,1.6l0.1,2c0,0-0.1,0-0.2,0h-0.4c-4,0.2-25.6,1.2-35.3,4.1
	c-10.7,3.1-16.3,7.4-17.9,14.1c-1.6,6.7,16.5,50.3,16.5,50.3s0.3,0,0.7,0c0.3,0,0.6,0,0.9,0v0c0.2,0.7,0.4,1.4,0.4,1.7
	c-7.3,5.3-16.9,6.7-16.9,10.6c0,1,23.5,0.1,23.9,0c0.3-0.1,0.5-0.2,0.7-0.5c1.2-2.3-2.1-11.1-2.2-11.3l-0.2-0.7v0c0.2,0,0.3,0,0.5,0
	c0.1,0,0.2,0,0.3,0c0.3,0,0.6-0.1,0.8-0.1c0,0-2.3-17.4-4.5-27.9c-1.9-9-4.9-18-4.9-18h34v0h31c1.3-0.8,5.3-4.1,5.6-12.8
	c0.1-3.4-0.3-6.6-0.8-9.1c-0.2-0.9-0.3-1.6-0.5-2.3c-0.4-1.8-0.8-3-0.9-3.3c0,0,0-0.1,0-0.1h23.8c0,0,3-0.3,2.9-2.9
	C347.8,312.1,343.7,300.8,342.2,295z M323.9,309.6c0,0,4.2-12.8,4.4-12.8c0,0.4,4.4,11.6,4.4,11.6L323.9,309.6z"/>
<path class="st13" d="M456.4,317.5h-1.6l-50.6,0.1h-23.6c0,0,10.1-4.9,10.9-4.5c0.7,0.4,8.8,0.9,8.8,0.9s0.9-0.1,1.8-0.3
	c0.1-0.8,0.1-1.3,0.1-1.3s6.3-0.4,11.7-1.3c3.9-0.7,23.7-1.7,34.3-2.2c3.9-0.2,6.6-0.3,6.6-0.3L456.4,317.5z"/>
<path class="st13" d="M499.4,298.9c0.9,9.2-13.7,17.1-25.8,16.2c-0.9-0.1-1.9-0.2-2.8-0.4c0,0,0.3,10.3,0.2,10.8c0,0,0,0-0.1,0.1
	c0,0-0.1,0.1-0.1,0.1c0,0-0.1,0.1-0.1,0.1c-0.2,0.2-0.6,0.4-0.9,0.6c0,0-0.1,0-0.1,0.1c0,0-0.1,0-0.1,0.1c-0.1,0.1-0.2,0.1-0.2,0.1
	s3.4,17.3-3.5,18.4h-42.7c-0.9,0-1.6,0.7-1.6,1.6c0,0.9,0.7,1.6,1.6,1.6h2.6l-8.1,0.6c0,0,13.5,35.3,14.8,42c0,0-0.1,0-0.3,0.1
	c-0.2,0-0.4,0.1-0.6,0.1c-0.1,0-0.1,0-0.2,0l0.3,1.1c0.1,0.3,4.3,11.2,1.5,11.8c-0.4,0.1-23.9,1-23.9,0c0-3.9,9.6-5.2,16.9-10.6
	c0-0.3-0.1-0.8-0.3-1.3c-0.2,0-0.3,0.1-0.3,0.1c0,0-0.2,0-0.3,0.1l-2.2,0.4c0,0-11.2-20.9-18.5-36.2l-24.4,36.1l-1.4-0.6l-0.7,1.2
	c-0.3,0.8,0.1,9.4-1.4,10.2c-1.1,0.5-22.7,0.5-22.7,0.5c0-3.9,11-7.4,19.2-12.7c0-0.3,0.3-0.8,0.6-1.3l-0.4-0.2l-1.2-0.5
	c0,0,19.9-35.9,26.6-48.1c0.1-7.2,7.4-8.7,20.8-10.5c10.4-1.5,19.3-2.4,22.2-2.7c0.2,0,0.4-0.1,0.5-0.1c0.5,0,0.9-0.1,0.9-0.1
	s0.3-2.1,0.3-2.7c0-0.4-1.7-4.9-2-7.4c-0.1-0.8-0.3-1.4-0.4-1.6c-2.6-3.8-1.9-6.1-1.8-6.3c-0.8,0.4-12.8,6.7-19,7.9H420
	c-0.1,0-0.2,0-0.2,0c-1.1,0.2-1.9,0.2-2.5,0l0,0c-1.7-0.7-2.2-3.1-1.6-6.7c0.7-4.6,2.9-11.2,6.1-18.5c3.8-8.9,8.3-15.7,8.3-15.7
	s0.3,0.1,0.8,0.3l0.8-1.5c0,0,1.4-6.3,1.8-7c0.4-0.7,1.5-1.4,1.9-1.5c0.4-0.1,1.2-0.4,2-0.4s1.5,0.4,1.5,0.4s2,0.1,2.3,0.4
	c0.3,0.3,0.5,1.7,0.5,1.7s0.5,1.9,0.5,2.4c0,0.5-0.9,1.8-1.8,2.4c-1,0.6-2.4,1.3-2.9,1.4c-0.3,0-1.5,1.9-2.5,3.3
	c0.1,0.1,0.3,0.1,0.4,0.2l0,0h0c0.3,0.2,0.5,0.4,0.6,0.5l-7,22.2c0,0,12.1-12.2,17.6-14.2c0-0.3,0-0.6,0-0.9c0-0.7,0-1.4,0-2.1
	l0.1-1.4c0.1-1.6,0.3-3.7,0.9-5.8c0.1-0.6,0.2-1,0.3-1.4c0-0.1,0-0.2,0.1-0.3c-2.2-0.6-5.1-1.6-5.5-3.1c-0.7-2,2.5-12.3,3.6-15.9
	c0,0,0,0-0.1,0c-0.9-0.9-1.7-1.7-2.3-2.4c-2.2-2.8-1.9-8.8,2-10.4c4-1.6,4.2-0.6,5.5,1.4c0,0,2.5,5.3,7.8,5.1
	c5.3-0.3,13.4-1.5,16.1,2.2c2.7,3.7,1.4,7,1.4,7s2.7,0.7,2,4.4c-0.7,3.7-3.4,9-1.6,12.4C478.6,279.5,498.4,288.9,499.4,298.9z"/>
<path class="st15" d="M144.5,181.3c-1.7,1.2-1.1,6.7,0.8,10.5c2,3.8,6.6,3.8,7.4,3.3c0.8-0.6,0.3-2,1-2.7c0.6-0.7,4.2-0.5,4.2-0.5
	s1.2,0.1,1.4,0.7c0.2,0.6,0,2.3,0,2.3s1.7,0.6,1.9,1.8c0.5,2.9-2.4,7.3-8.7,5c-3.1-1.4-7.9-3.9-7.9-3.9c-2.2-1.4-3.5-2.7-3.7-3.3
	c-0.5-1.4-1-3.7-1.1-4.2c1,0.4,2.2,0.8,2.5,0.8c0.4,0,0-1.9-0.8-4.2c-0.8-2.3-3.5-2.8-3.5-2.8s-2.9-2.3-3.7-6.2
	c-0.7-3.3,1.2-6.1,5-6.4c3.7-0.3,8.2-1.3,10.3-2.2c2.1-0.9,7.5-3.1,9.5-2.1c2,1,1.6,2.4,1.6,2.4s3.6,0.5,3.6,3.7
	c0,3.1-2.5,4-4.3,4.2c-0.7,0-1.4,0-2,0.1c-3.1,0.3-3.2,0.8-4.7,1.5C151.6,179.8,146.2,180,144.5,181.3z"/>
<path class="st16" d="M162.8,259.8c0,0-0.1,0-0.1,0c0,0-0.6,59.1-0.6,83.8s0.6,44.7,0.6,44.7c-0.3,0-0.5,0.1-0.7,0.1v0.1
	c-2.3,0.3-4.7,0.3-5.7,0.3c-0.3,0-0.5,0-0.5,0s-1.1-4.4-2.8-14.9c-1.7-10.5-5.4-20.6-5.9-27.5c-0.5-6.9,2.4-12.8,1.9-17.9
	c-0.5-5.1-3.3-35.5-3.3-35.5l-9.8,30.6c-2.6,11.7-2.1,9.2-5.6,22.2c-3.5,13-9.7,44.4-9.7,44.4c-0.3,0.1-0.6,0.1-0.9,0.1v0.1
	c-2,0.1-4.5-0.1-5.2-0.2c-0.1,0-0.2,0-0.2,0c-0.6-8.8,0.3-40.5,2.2-48.7c1.8-8.2,7.3-20.7,7.4-21.5c0-0.8,3.8-27.1,5.7-39.6
	c1.6-11.3,3.4-19,3.8-20.4c0-0.2,0.1-0.3,0.1-0.3L162.8,259.8z"/>
<path class="st17" d="M192.7,238c-0.5,0.1-0.9,0.2-1.4,0.3c-6.6-0.2-23.4-11.3-23.4-11.3c-0.3,12.2-3.7,32.6-3.7,32.6l-1.4,0.3
	c0,0-0.1,0-0.1,0c-2.4,0.2-6.5,0.5-12.2,0.4c-7.9-0.1-13.4-0.3-16.2-0.3c-0.4,0-0.9-0.1-0.9-0.1s-1.1-0.4-1.1-0.7
	c0-0.3,1.4-10.4-0.4-18.6c-1.8-8.2-3-9.8-3-9.8s-3.1,5-6.4,12.1c-1.3,3-3.3,7.2-5.3,11.7c-2,4.5-4.2,9.3-6.1,13.4l-3.7,9.8l-0.6-0.2
	l-5.1-1.6l-0.6-0.2l9.3-29.3c1.2-3.9,2.2-7.2,2.6-8.8c1.7-6.6,5.1-17,8.1-22.2c4.6-8.2,22.3-11.1,22.6-11.4l-0.7,2.7
	c0,0,2.4,4.7,7.4,4.6c3.6,0,2.7-6.9,2.7-6.9c20.1,3.1,18.2,9.2,33.4,18.1c0.2,0,0.8-5.4,1.3-11.1l0.5-12.5h5.5v0.1h0.7l1.1,12.7
	l-0.1,0c0.2,1.6,0.4,3.6,0.5,6.2C196,225.3,196.3,236.3,192.7,238z"/>
<path class="st18" d="M120.4,401.8c-0.4,2.5,0.2,2.7-5.4,2.7c-5.6,0-6.7-0.5-7.2-1.1c-0.6-0.6-0.5-3.4,0-4.3
	c0.4-0.9,7.1-7.6,7.1-7.6s0,0.2,0,0.5c0,0.6,0.3,1.7,1.1,1.8c1.2,0.2,3.4-2.1,3.4-2.1S120.8,399.4,120.4,401.8z M162,390.5
	c0,0,0.8,2.5-1.9,2.2c-1.6-0.2-2.8-0.9-3.4-1.4c-0.1,2.2-0.6,10.4,0.8,11.1c1.1,0.6,22.7,1.3,22.8,0.4
	C180.2,398.7,169.3,395.9,162,390.5z"/>
<path class="st19" d="M323.5,332.3c-0.3,10.4-6,13-6,13h-14.2c0,0-1.4,2.9-2.2,6.3c-0.8,3.4-12.2,41-12.2,41c-0.3,0-0.9-0.1-1.5-0.2
	c-1.7-0.3-4.2-0.9-5.8-1.2c-0.3-0.1-0.6-0.1-0.8-0.2c-0.4-0.1-0.7-0.1-0.7-0.1l6.8-45.8h-34c0,0,3,9,4.9,18
	c2.3,10.4,4.5,27.9,4.5,27.9c-0.2,0.1-0.5,0.1-0.8,0.1c-0.1,0-0.2,0-0.3,0c-0.2,0-0.3,0.1-0.5,0.1c-1.7,0.2-4.1,0.2-5.6,0.2h-0.9
	c-0.4,0-0.7,0-0.7,0s-18.1-43.6-16.5-50.3c1.6-6.7,7.2-11,17.9-14.1c9.7-2.9,31.3-3.9,35.3-4.1h0.4c0.1,0,0.2,0,0.2,0l-0.2-3.6
	c11.3,0.3,24.3,0.9,31.5,1.6c0.2,0.7,0.3,1.5,0.5,2.3C323.2,325.7,323.6,328.9,323.5,332.3z"/>
<path class="st16" d="M342.2,295c-1.5-5.7-5.9-13.9-10-17c-4.1-3.1-14.1-4-14.1-4s-8.6,7.3-10.8,6.7c-2.3-0.6-2.5-6.5-2.5-6.5
	s-7,1.8-11.5,4.3c-4.2,2.3-22.2,24.1-22.2,24.1s-17.5-16.3-18.7-16.3h0c-1.7,1.2-2.9,3-3.4,3.8c-0.2,0.3-0.2,0.4-0.2,0.4s0,0,0,0.1
	c0.8,1,10.3,13.5,13.8,17.4c3.7,4.1,6.4,9.3,9.7,8.2c3.3-1.1,17.6-12.6,17.6-12.6l0.8,19.3c0,0-0.1,0-0.2,0c3,0,27.9,0.7,32.1,0.3
	c-0.6-3.5-1.4-5.7-1.4-5.7h23.8c0,0,3-0.3,2.9-2.9C347.8,312.1,343.7,300.8,342.2,295z M323.9,309.6c0,0,4.2-12.8,4.4-12.8
	c0,0.4,4.4,11.6,4.4,11.6L323.9,309.6z"/>
<path class="st19" d="M454.9,317.5l-50.6,0.1h-2.1l0-3.9c0.1-0.8,0.1-1.3,0.1-1.3s6.3-0.4,11.7-1.3c3.9-0.7,23.7-1.7,34.3-2.2
	L454.9,317.5z"/>
<path class="st18" d="M322.3,254.4c-2,0.3,0,4.1-1.6,5.7c-1.6,1.6-4.1,0-4.1,0s0.5-2.1-0.6-2.7c-1.1-0.6-4.5,1.8-4.7,1.6
	c-0.2-0.1-0.2-0.7,0.2-1.7c0.4-1-2-2-2-3.5c0.1-1.5,0.7-2.7-0.6-4.1c-1.3-1.4-5.3-2-8.1,0.6c0,0-1.9-3.3-2.1-6.8
	c-0.1-3.5,1.4-5.1,5.2-5.6c3.8-0.5,7.9,6.6,10.5,8.1c2.6,1.5,7.8,0.6,9.4,3C324.8,250.4,324.3,254.2,322.3,254.4z"/>
<path class="st18" d="M263.1,403.2c-0.1,0.3-0.4,0.5-0.7,0.5c-0.4,0.1-23.9,1-23.9,0c0-3.9,9.6-5.2,16.9-10.6c0,0-0.4,1.7,1,1.6
	c1.3-0.1,4.5-2.9,4.5-2.9C261,392.1,264.4,400.9,263.1,403.2z M282,394.9c-1.1-0.2-0.7-2.4-0.7-2.4c-7.2,4.6-16.1,7.5-18.2,10.8
	c-0.3,0.5-0.5,1-0.5,1.4c0,1,21.6,0.1,22.7-0.5c1.6-0.7,1.4-10.1,1.8-10.9C287.2,393.2,285.5,395.4,282,394.9z"/>
<path class="st20" d="M314.2,313.5c0,0-8.5-0.6-9.1-0.4s-12.6,4.7-12.6,4.7h23.4C315.9,317.8,315.1,315.1,314.2,313.5z"/>
<path class="st16" d="M465.7,345.1l-3.7,0.5l-44.3,3.4c0,0,13.5,35.3,14.8,42c0,0-0.1,0-0.3,0.1c-0.2,0-0.4,0.1-0.6,0.1
	c-0.1,0-0.1,0-0.2,0c-1.6,0.3-4.5,0.8-5.4,1c-0.2,0-0.3,0.1-0.3,0.1c0,0-0.2,0-0.3,0.1l-2.2,0.4c0,0-11.2-20.9-18.5-36.2l-24.4,36.1
	l-1.4-0.6l-5.1-2.2l-0.4-0.2l-1.2-0.5c0,0,19.9-35.9,26.6-48.1c0.1-7.2,7.4-8.7,20.8-10.5c11.1-1.6,20.3-2.5,22.7-2.7
	c0.5,0,0.9-0.1,0.9-0.1s25.2-10,26.4-1.1c-0.1,0.1-0.2,0.1-0.2,0.1S474.4,343.4,465.7,345.1z"/>
<path class="st19" d="M473.6,315.1c-0.9-0.1-1.9-0.2-2.8-0.4c0,0,0.3,10.3,0.2,10.8c0,0,0,0-0.1,0.1c0,0-0.1,0.1-0.1,0.1
	c0,0-0.1,0.1-0.1,0.1c-1.1,1.1-3.8,2-13.2,2c-7.9,0-12.4,0-15.7,0c0.2,0,0.4-0.1,0.5-0.1c0.5,0,0.9-0.1,0.9-0.1s0.3-2.1,0.3-2.7
	c0-0.4-1.7-4.9-2-7.4c-0.1-0.8-0.3-1.4-0.4-1.6c-2.6-3.8-1.9-6.1-1.8-6.3c-0.8,0.4-12.8,6.7-19,7.9H420c-1.2,0.2-2.1,0.3-2.7,0l0,0
	c-1.7-0.7-2.2-3.1-1.6-6.7c0.7-4.6,2.9-11.2,6.1-18.5c3.8-8.9,8.3-15.7,8.3-15.7s0.3,0.1,0.8,0.3l4.6,1.8l0,0h0
	c0.3,0.2,0.5,0.4,0.6,0.5l-7,22.2c0,0,12.1-12.2,17.6-14.2c0-0.3,0-0.6,0-0.9c2-1.1,3.5-1.8,3.9-1.5c1.5,0.8,24.5,15,24.5,16.5
	C474.9,302.1,474.2,308.9,473.6,315.1z"/>
<path class="st15" d="M499.4,298.9c1,10-16,18.3-28.6,15.9c-26.1-6.2-24-22.3-24.2-27.4c0-1,0-2,0-3c0.2-3.7,1-7.1,1.2-8.6
	c0-0.1,0-0.2,0.1-0.3c0.4-1.5,2.5-9.5,4-9.4c2.2,0.2,4.2-3.7,3.2-5.1c-1-1.3-3.2,0-3.2,0s-1.2,0-2.6-1.1c-1.4-1.1-3.3-3.4-3.3-3.4
	s0,0-0.1,0c-0.9-0.9-1.7-1.7-2.3-2.4c-2.2-2.8-1.9-8.8,2-10.4c4-1.6,4.2-0.6,5.5,1.4c0,0,2.5,5.3,7.8,5.1c5.3-0.3,13.4-1.5,16.1,2.2
	c2.7,3.7,1.4,7,1.4,7s2.7,0.7,2,4.4c-0.7,3.7-3.4,9-1.6,12.4C478.6,279.5,498.4,288.9,499.4,298.9z"/>
<path class="st18" d="M378.1,393.1c-0.3,0.8,0.1,9.4-1.4,10.2c-1.1,0.5-22.7,0.5-22.7,0.5c0-3.9,11-7.4,19.2-12.7c0,0-1.3,1.9-1,2.9
	C372.5,394.8,378.1,393.1,378.1,393.1z M431.7,392.2c0,0-2.3,3.5-3.9,3c-1.5-0.5-1.5-1.7-1.5-1.8c-7.3,5.4-16.9,6.7-16.9,10.6
	c0,0.9,23.5,0.1,23.9,0C436,403.5,431.7,392.5,431.7,392.2z"/>
<path class="st21" d="M293.1,323c0,0-2.6,1.4-3.6,4.6c-1,3.2-2.6,17.5-2.6,17.5h-34c0,0,3,9,4.9,18c2.3,10.4,4.5,27.9,4.5,27.9
	c-0.2,0.1-0.5,0.1-0.8,0.1c-0.1,0-0.2,0-0.3,0c-0.2,0-0.3,0-0.5,0v0l0.2,0.7c0.1,0.3,3.4,8.9,2.2,11.3v0l-0.3,0.4c0,0,0,0-0.1,0
	c-0.1,0-0.3,0.1-0.5,0.1c-0.1,0-0.1,0-0.2,0c-3.2,0.2-23.5,0.9-23.5,0c0-3.9,9.6-5.2,16.9-10.6c0-0.3-0.2-1-0.4-1.7v0
	c-0.4,0-0.7,0-0.9,0c-0.4,0-0.7,0-0.7,0s-18.1-43.6-16.5-50.3c1.6-6.7,7.2-11,17.9-14.1c9.7-2.9,31.3-3.9,35.3-4.1h0.5L293.1,323z
	 M162,390.5c0-0.6-0.1-1.3-0.1-1.9v-0.1c0.2,0,0.5-0.1,0.7-0.1c0,0-0.6-20-0.6-44.7c0-19.5,0.4-60.6,0.5-76.9
	c-3.3,3.8-10.8,12.4-12.3,14.3c-1.9,2.5-4.6,12-4.6,12s2.8,30.3,3.3,35.5c0.5,5.1-2.4,11.1-1.9,17.9c0.5,6.9,4.2,17,5.9,27.5
	c1.7,10.5,2.8,14.9,2.8,14.9s0.2,0,0.5,0c0.1,0,0.2,0,0.3,0l0.2,1.7c0,0,0,0.2-0.1,0.6c-0.1,2.2-0.6,10.4,0.8,11.1
	c1.1,0.6,22.7,1.3,22.8,0.4C180.2,398.7,169.3,395.9,162,390.5z M404.7,356.4l-24.4,36.1l-1.4-0.6l-0.7,1.2
	c-0.3,0.8,0.1,9.4-1.4,10.2c-1.1,0.5-22.7,0.5-22.7,0.5c0-3.9,11-7.4,19.2-12.7c0-0.3,0.3-0.8,0.6-1.3l-0.4-0.2l-1.2-0.5
	c0,0,19.9-35.9,26.6-48.1c0-0.2,0-0.4,0.1-0.6C398.9,345.2,404.7,356.4,404.7,356.4z M417.3,317.6l-13,0h-23.6
	c0,0,10.1-4.9,10.9-4.5c0.7,0.4,8.8,0.9,8.8,0.9s0.9-0.1,1.8-0.3c0.1-0.8,0.1-1.3,0.1-1.3s6.3-0.4,11.7-1.3c0.4-0.1,0.9-0.1,1.6-0.2
	C415.1,314.5,415.5,316.9,417.3,317.6z M441,315.9c-2.6-3.8-1.9-6.1-1.8-6.3c-0.8,0.4-12.8,6.7-19,7.9l21.2,0
	C441.3,316.8,441.2,316.1,441,315.9z"/>
<path class="st22" d="M481.4,345.1h-15.5c-0.1,0-0.1,0-0.2,0l-3.7,0.5l-36.2,2.8h55.6c0.9,0,1.6-0.8,1.6-1.6
	C483.1,345.8,482.3,345.1,481.4,345.1z M267.3,345.1c-0.9,0-1.6,0.7-1.6,1.6c0,0.9,0.7,1.6,1.6,1.6h19.2l0.5-3.3H267.3z
	 M326.7,345.1h-8.8c-0.3,0.2-0.4,0.2-0.4,0.2h-14.2c0,0-0.6,1.2-1.2,3h24.6c0.9,0,1.6-0.8,1.6-1.6
	C328.3,345.8,327.6,345.1,326.7,345.1z M437.8,317.6H198.4c-0.9,0-1.6,0.7-1.6,1.6c0,0.9,0.7,1.6,1.6,1.6h239.4
	c0.9,0,1.6-0.7,1.6-1.6C439.5,318.4,438.7,317.6,437.8,317.6z"/>
</svg>
