<svg version="1.1" id="Layer_11" xmlns="http://www.w3.org/2000/svg" xmlns:xlink="http://www.w3.org/1999/xlink" x="0px" y="0px"
	 viewBox="0 0 600 530" style="enable-background:new 0 0 600 530;" xml:space="preserve">
<style type="text/css">
	.st0{fill:#EAEAEA;}
	.st1{fill:#E5E5E5;}
	.st2{fill:#DBDBDB;}
	.st3{fill:#FFFFFF;}
	.st4{fill:#EFEFEF;}
	.st5{fill:#F2F2F2;}
	.st6{fill:#50208F;}
	.st7{fill:#E01D85;}
	.st8{opacity:0.2;fill:#3D3D75;}
	.st9{fill:#816051;}
	.st10{fill:#363636;}
	.st11{fill:#F7F7F7;}
	.st12{fill:#F5C85C;}
	.st13{fill:#FFFFFF;stroke:#D0E7F4;stroke-width:0.4;stroke-linecap:round;stroke-linejoin:round;stroke-miterlimit:10;}
	.st14{fill:#9B84C1;}
	.st15{fill:#EDBCDA;}
	.st16{fill:#D0E7F4;}
	.st17{fill:#99CFF8;}
	.st18{fill:#EFD1C7;}
</style>
<ellipse class="st0" cx="301.7" cy="347.2" rx="278.2" ry="34.7"/>
<path class="st1" d="M145.6,288.8c-0.9-9.6-11.2-25.6-4.3-25.6c2.7,0,4.3,9.5,4.6,6.6s-4.6-23.2,2.4-23c3.1,0.1,0.3,11.7,2.5,11.4
	c3.1-0.5,1-3.7,3.6-4.2c7.3-1.6-1.3,21,0,21.1c1.1,0.1,3.3-8.6,8.1-6.1c4.5,2.3-5.8,8.9-5.9,18.9
	C156.6,290.9,145.7,289.8,145.6,288.8z"/>
<path class="st2" d="M158.8,276.3h-16.5c0,0-6.1,16.5-5.9,24.5c0.2,8.1,2.4,15,12.4,15.4c17.5,0.8,17.5-8.1,17.5-15
	C166.2,290.1,158.8,276.3,158.8,276.3z"/>
<path class="st1" d="M434.3,307.3c5.5-5.6,12.8-25.1,8.4-26.7c-4.4-1.5-6.3,4.8-7.5,1.7c-1.2-3.1,4.1-13.2,1.6-14
	c-2.5-0.8-4.3,3.4-4.9,2.3s2.6-20.2-4.3-21.8c-6.9-1.6-9.9,6.9-9,11.7s3.2,12.1,1.4,12.1c-1.8,0-3-7.1-5.7-5.3
	c-3.5,2.4-3.8,11.1,1.2,14.3c4.9,3.2,8,10,5.9,8.8c-2.3-1.3-4.9-1.5-5.9,1.1s3.7,9.7,8.4,14.5C428.5,310.8,432.2,309.5,434.3,307.3z
	"/>
<path class="st3" d="M437.6,300.8c0.5-1.3,1.8-6.9,1.8-6.9s-2.8,4.7-3.6,6c-0.5,0.9-1.3,4.1-1.7,6c-0.5-3-1.2-8.1-1.8-12.2
	c0.5-1.8,1.2-4.6,1.5-5.3c0.4-1.1,1-8.5,1-8.5s-2.2,7.5-2.4,8.5c-0.1,0.5-0.2,1.9-0.3,3.4c-0.3-2.4-0.5-4.3-0.5-4.7
	c0.1-0.9-1.3-8.3-2.3-13.5c0.2-1.7,0.4-4.2,0.3-4.9c-0.3-1.1-1.9-8.7-1.9-8.7s-0.2,5.7,0,7.6c0.2,1.9,1.4,7.6,1.4,7.6l0,0
	c0.6,5.3,1.5,12,1.9,14.6c0.2,0.9,0.4,2.1,0.6,3.5c0,0-2.1-5.4-3.3-6.3c-1.2-0.9-7.2-7.2-7.2-7.2l4.2,6.3l6.3,7.2
	c0.7,4.3,1.7,10.4,2.1,13.4c-1.5-1.8-3.8-4.4-4.9-5.3c-1.7-1.4-3.6-3.1-3.6-3.1s2.5,2.9,3,3.7c0.4,0.6,3.6,3.5,5.5,5.3
	c0.1,0.8,0.2,1.3,0.2,1.3l0.5,0c0,0,0-0.3-0.1-0.7c0.5,0.4,0.8,0.7,0.8,0.7s-0.3-0.4-0.9-1.1c0-0.3-0.1-0.6-0.1-0.9L437.6,300.8z"/>
<path class="st4" d="M171.9,304.5c0,0,14.1,0.9,16,0c1.9-0.9,11.3-9.4,7.8-16.3c-1.9-3.9-7.1,4.1-8,1.7c-0.3-0.8,3.3-6.2,4-10.7
	c0.7-5.1,0.5-9.9-3.4-11.1c-3.9-1.2-2.6,19.6-5.1,15.6c-1.5-2.3,6.8-27,0-32c-6.1-4.6-3.4,9.3-5.8,10.1c-2.3,0.7-3.6-6.8-5.3-1.9
	c-1.1,3.3-0.8,6.9,0.7,13.8c0.9,4.1,1.6,11,0.3,12.4c-1.3,1.4-2.6-4.9-4.5-0.4C165.2,293.3,171.9,304.5,171.9,304.5z M187.3,278
	c-0.4-1.3,1.1-4.3,1.1-4.3s0.9-2.3,1.7-1.2c0.8,1.2,0.4,2.9,0,3.7C189.7,277.2,187.6,279.3,187.3,278z M183.1,296.9
	c0-0.5,0.3-3.9,1.9-4.2c1.7-0.3,1.2,0.2,2.2,0.6c1,0.4,2.4-1.8,2.9-0.7c0.5,1.2-0.7,3.3-1.3,4C188.3,297.4,183.3,299.3,183.1,296.9z
	 M179.7,281.3c-1-0.5-3-8.8-3.3-9.8c-0.5-1.6,1.1-6.4,2.5-5.6c1.4,0.8,2.1,1.8,2.7,5.4C181.9,272.8,180.6,281.8,179.7,281.3z
	 M170.4,293.2c0.1-0.7,3-0.6,3.9,0.5c0.9,1.1,1.9,2.9,0.5,3.1C173.4,296.9,170.2,294.8,170.4,293.2z"/>
<path class="st5" d="M168.4,300.3H194c0,0,7.6,3.7,7.7,12.3c0,6.9-14.1,7.8-18.6,7.8c-9.8,0-23.5-0.5-23.5-7.8
	C159.6,302.5,168.4,300.3,168.4,300.3z"/>
<path class="st1" d="M434.9,309.2c-2.1-2.8-1-17.7-1-22.5c0-4.6-0.9-12.1,1.4-12.6s3.7,3.5,4.3,2.6c0.6-0.9-2.6-16.4,5.3-19
	c6-2,8.6,5,7.3,11.4c-0.9,4.2-3.7,10.4-2,10.6c1.6,0.2,2.2-5,4.5-3.1c3,2.5-0.9,9.8-3.3,11.5c-5.6,4-5.5,8.1-3.5,7.3
	c2.1-0.9,4.5-0.8,5.2,1.7c0.7,2.5-3.9,8.2-8.4,12C439.9,313,436.6,311.4,434.9,309.2z"/>
<path class="st3" d="M440.2,293.7c-0.3-1.7-0.8-4.2-1-4.9c-0.3-1-0.3-7.7-0.3-7.7s1.5,6.9,1.6,7.9c0.1,0.4-0.1,2.7-0.1,4
	c0.4-2.1,3.8-16.9,3.8-16.9c-0.1-1.6-0.1-3.8,0.1-4.4c0.3-1,2.3-7.5,2.3-7.5s-0.4,5.1-0.5,6.8c-0.4,4.2-1.5,5.4-1.5,5.4
	c-0.9,4.6-2.4,11.8-2.9,14.1c-0.2,0.8-0.5,1.8-0.8,3.1c0,0,2.2-4.6,3.4-5.3c1.1-0.7,6.9-5.6,6.9-5.6l-4.2,5.1l-6.1,5.8
	c-0.9,3.8-2.2,9.1-2.8,11.7c1.5-1.5,3.7-3.6,4.7-4.2c1.6-1.1,4.6-2.4,4.6-2.4s-3.6,2.4-4.1,3.1c-0.4,0.5-3.5,2.8-5.3,4.1
	c-0.2,0.7-0.3,1.1-0.3,1.1l-0.4-0.1c0,0,0.1-0.2,0.1-0.6c-0.5,0.3-0.8,0.6-0.8,0.6s0.3-0.3,0.9-0.9
	C437.6,305.6,439.4,297.3,440.2,293.7z"/>
<path class="st2" d="M456.3,304.4h-39.6c0,0,0,18.9,19.8,18.9S456.3,304.4,456.3,304.4z"/>
<path class="st0" d="M303.3,299.2c1-12.9,11.4-34.3,4.4-34.3c-2.7,0-4.3,12.7-4.7,8.8c-0.3-3.9,5.7-30-1.4-29.6
	c-3.1,0.2-1.4,14.6-3.6,14.1c-3.1-0.7-1.1-4.9-3.7-5.7c-7.5-2.1,1.3,28.1,0,28.2c-1.1,0.1-2.6-10.3-5.1-6.9
	c-3.3,4.4,2.7,10.7,2.8,24C292,301.9,303.2,300.5,303.3,299.2z"/>
<path class="st5" d="M287.7,292.1h19.8c0,0,5.3,4.5,5.9,14.9c0.6,10.4-11.6,12.8-15,12.8c-7.6,0-18.3-1.4-17.5-12.8
	C281.7,294.8,287.7,292.1,287.7,292.1z"/>
<path class="st1" d="M516.5,317.2c-7.2-6.5-16.9-29-11.1-30.7c5.8-1.8,8.4,5.6,9.9,2c1.6-3.6-5.4-15.2-2.1-16.1
	c3.3-1,5.7,3.9,6.5,2.7c0.9-1.2-3.4-23.3,5.7-25.1c9.1-1.8,13.1,8,11.9,13.5c-1.1,5.5-4.3,13.9-1.9,13.9c2.4,0,4-8.2,7.5-6.2
	c4.6,2.7,5,12.8-1.6,16.5c-6.5,3.7-10.6,11.5-7.8,10.1c3-1.5,6.5-1.8,7.8,1.3c1.3,3.1-4.8,11.2-11.1,16.7
	C524.1,321.3,519.2,319.7,516.5,317.2z"/>
<path class="st3" d="M515.2,307.3c-0.7-1.5-2.4-7.9-2.4-7.9s3.7,5.4,4.7,6.9c0.7,1,1.7,4.7,2.2,6.9c0.6-3.5,1.6-9.3,2.4-14.1
	c-0.6-2.1-1.6-5.3-1.9-6.1c-0.5-1.3-1.3-9.8-1.3-9.8s2.9,8.6,3.2,9.8c0.1,0.5,0.3,2.2,0.4,3.9c0.4-2.8,0.7-5,0.7-5.4
	c-0.1-1,1.7-9.5,3-15.6c-0.3-2-0.6-4.8-0.4-5.6c0.3-1.3,2.5-10,2.5-10s0.3,6.6,0,8.8c-0.3,2.2-1.9,8.8-1.9,8.8l0,0
	c-0.8,6.1-1.9,13.8-2.5,16.8c-0.2,1-0.5,2.4-0.8,4c0,0,2.8-6.2,4.4-7.3c1.6-1.1,9.6-8.3,9.6-8.3l-5.6,7.2l-8.4,8.3
	c-0.9,5-2.2,12-2.8,15.4c2-2.1,5-5.1,6.4-6.1c2.3-1.6,6.4-3.9,6.4-3.9s-5,3.6-5.7,4.6c-0.5,0.7-4.8,4.1-7.3,6.1
	c-0.2,0.9-0.3,1.4-0.3,1.4l-0.7,0c0,0,0.1-0.3,0.1-0.8c-0.7,0.5-1.1,0.8-1.1,0.8s0.5-0.5,1.2-1.2c0.1-0.3,0.1-0.6,0.2-1L515.2,307.3
	z"/>
<path class="st4" d="M60.9,327c8.9-7,20.8-31.4,13.6-33.4s-10.3,6.1-12.2,2.2c-1.9-3.9,8.6-13.8,2.6-17.5c-5.1-3.2-6.6,3.7-8,2.9
	c-4.4-2.6,4.2-25.3-7-27.3c-11.2-2-16.8,5.8-14.7,14.6c1.4,5.9,5.2,14.8,2.3,15.1c-1.9,0.2-4.5-7.7-9.3-6.7c-6.2,1.3-8.3,13,1.9,18
	c8.1,3.9,13.1,12.5,9.6,11c-3.7-1.6-8-1.9-9.6,1.4s5.9,12.1,13.6,18.1C51.4,331.4,57.5,329.7,60.9,327z"/>
<path class="st3" d="M62,313.5c0.8-1.7,2.9-8.6,2.9-8.6s-4.5,5.8-5.8,7.5c-0.9,1.1-2.3,5.5-2.9,7.8c-0.7-3.8-2.1-10.1-3-15.3
	c0.8-2.3,2.3-6,2.7-7c0.6-1.4,1.6-10.7,1.6-10.7s-3.6,9.4-4,10.7c-0.2,0.6-0.6,3.9-0.7,5.7c-0.5-3.1-4.7-26.3-4.7-26.3
	s0.6-3.7,0.3-5.4c-0.2-1.4-2.5-9.5-2.5-9.5s-0.1,7.1,0,9.6c0.1,3.9,1.6,5.4,1.6,5.4c1,6.6,3.1,19.2,3.8,22.5c0.2,1.1,0.6,2.6,1,4.4
	c0,0-3.4-6.7-5.4-7.9c-2-1.2-11.8-9-11.8-9l6.9,7.9l10.3,9.1c1.2,5.4,2.7,13,3.5,16.7c-2.5-2.3-6.1-5.6-7.9-6.7
	c-2.8-1.7-7.9-4.2-7.9-4.2s6.2,4,7,5c0.6,0.7,5.9,4.4,9,6.6c0.2,1,0.3,1.6,0.3,1.6H57c0,0-0.1-0.4-0.2-0.9c0.8,0.6,1.3,0.9,1.3,0.9
	s-0.6-0.5-1.4-1.3c-0.1-0.3-0.1-0.7-0.2-1.1L62,313.5z"/>
<path class="st4" d="M26.7,318h55.2c0,0,0,28.9-27.6,28.9S26.7,318,26.7,318z"/>
<path class="st1" d="M515.6,319.4c6-6.5,12.9-27.5,7.6-28.5c-5.3-1-10.8,5.6-8.7,2.7c2.5-3.5,3.7-14.1,0.7-14.6c-3-0.5-4.8,4-5.6,3
	c-0.8-1,3.4-18.9-7-21.9c-8-2.3-11.4,5.7-9.6,13.2c1.2,4.8,4.9,12,2.7,12.3c-2.2,0.2-4.2-7-7.2-4.8c-3.9,2.9-3.5,11.9,2.6,14.6
	s10.4,9.3,7.7,8.3c-2.8-1.1-6-1-6.9,1.9s5.2,9.5,11.2,13.8C509,323.7,513.3,321.9,515.6,319.4z"/>
<path class="st3" d="M526.6,308.2c0.5-1.4,1.5-7.3,1.5-7.3s-2.9,5.1-3.7,6.6c-0.6,1-1.2,4.4-1.5,6.3c-0.8-3.1-2.1-8.2-3.2-12.3
	c0.4-1.9,1.1-4.8,1.3-5.6c0.3-1.2,0.4-8.9,0.4-8.9s-2,8-2.1,9.1c-0.1,0.5,0.1,3.1,0.1,4.6c-0.6-2.5-5-19.5-5-19.5
	c0.1-1.8,0.2-4.4-0.1-5.1c-0.4-1.1-3-8.7-3-8.7s0.5,5.9,0.7,7.9c0.5,4.8,1.9,6.2,1.9,6.2c1.2,5.3,3.1,13.6,3.9,16.2
	c0.3,0.9,0.6,2.1,1,3.5c0,0-2.9-5.3-4.5-6.1c-1.5-0.8-9.2-6.5-9.2-6.5l5.5,5.9l8.1,6.6c1.2,4.4,2.9,10.5,3.7,13.5
	c-1.9-1.7-4.9-4.1-6.2-4.9c-2.2-1.2-6-2.8-6-2.8s4.8,2.8,5.4,3.6c0.5,0.6,4.6,3.2,7,4.7c0.2,0.8,0.3,1.3,0.3,1.3l0.6-0.1
	c0,0-0.1-0.3-0.2-0.7c0.6,0.4,1,0.6,1,0.6s-0.4-0.4-1.1-1c-0.1-0.3-0.1-0.6-0.2-0.9L526.6,308.2z"/>
<path class="st2" d="M489,312.5h50.6c0,0,0,29.8-25.3,29.8C489,342.3,489,312.5,489,312.5z"/>
<path class="st5" d="M535.9,323c0,0,20.8,1.5,23.9,0c3.1-1.5,18.8-15.9,13.1-27.8c-3.3-6.7-12.2,1.5-13.1,0.5c-0.9-1,3.4-9,6.3-15.9
	c2.9-6.9,2.9-17.6-3.6-19.7c-6.5-2-8.6,17.1-9.1,14.8c0,0,2.4-12.8-0.2-19.3c-5.3-13.1-9.7-5.8-11-5.4c-3.8,1.2-2.5-17.2-11.1-14.1
	c-4.8,1.7-4.6,25.1-0.5,35.2c2.7,6.4,7.5,19.1,5.3,21.6s-10.3-5.5-13.1-0.2C516.5,304.8,535.9,323,535.9,323z M558.8,277.9
	c-0.6-2.2,1.9-7.3,1.9-7.3s1.5-3.9,2.8-2c1.3,2,0.6,4.9,0,6.3C562.9,276.4,559.4,280.1,558.8,277.9z M551.8,309.9
	c-0.1-0.9,0.5-6.6,3.2-7.1c2.8-0.6,2,0.3,3.7,1c1.7,0.7,4.1-3.1,4.9-1.2c0.9,2-1.2,5.6-2.1,6.9C560.6,310.8,552.1,314,551.8,309.9z
	 M534.9,260.8c-1.6-0.8-3.4-4-3.9-5.8c-0.8-2.7-0.8-11.9,1.6-10.6c2.3,1.3,3.5,3.1,4.5,9.2C537.6,256.1,536.5,261.6,534.9,260.8z
	 M533.7,269.4c-0.3-3.9,1.4-6.3,3.6-5c1.3,0.7,4.4,2.7,2.8,7.4C539.3,274.3,533.8,271.5,533.7,269.4z M527.6,300.6
	c0.1-1.1,3.4-3,4.8-1.1c1.4,1.9,3.2,5,0.8,5.3C530.8,305,527.3,303.2,527.6,300.6z"/>
<path class="st5" d="M563.8,319.8H534c0,0-8,4.5-8.9,14.9s17.4,12.8,22.6,12.8c11.4,0,27.5-1.4,26.4-12.8
	C572.9,322.5,563.8,319.8,563.8,319.8z"/>
<path class="st6" d="M90.5,251.6c0,0-13.3,10.4-15.1,30.6s-1.7,27.7-6.9,36.3c-5.1,8.6-9.2,38.7,21,44.4
	c76.7,14.5,88.8,1.3,88.8,1.3c15.3-16.2-9.5-34.4-16.3-40c-6.7-5.6-19-7.2-22.4-23.9c-3.4-16.7-6-37.4-21.2-47.6
	C112.3,248.5,90.5,251.6,90.5,251.6z"/>
<path class="st7" d="M160.8,321l16.9-4.5c0,0,1,0.5-1.7,4.8c-2.7,4.3-13,21.6-15.4,18.5C158.3,336.7,160.8,321,160.8,321z"/>
<path class="st8" d="M160.8,321l16.9-4.5c0,0,1,0.5-1.7,4.8c-2.7,4.3-13,21.6-15.4,18.5C158.3,336.7,160.8,321,160.8,321z"/>
<path class="st9" d="M239.2,360c0.2,0.8-12.7,0.1-14.3-0.1c-2.6-0.4-8.9,0.9-8.9,0.9c-3.8-2.1-1.4-5.8-1.7-6.8c0-0.1,0-0.1,0-0.1
	c-0.2-0.4-5.5-1.9-9.9-3.3c-4.3-1.4-8.6-2.7-8.6-2.7c-3-1.1-5.2-1.9-6.1-2.4c-14.7-7.6-21.1-17.9-21.6-18.6
	c-0.5-0.7-13.9-2.1-13.9-2.1s-11.6-5.5-12.7-7.8c-1.1-2.3,1.8-4.9,1.8-4.9s13.6-3.2,20.2-1c6.7,2.2,8.7,2.2,10.9,3.7
	s3.8,7.5,16.1,16.9c9.5,7.2,21.5,13.6,31.9,18.8C234.9,356.8,238.6,357.8,239.2,360z"/>
<path class="st10" d="M241.2,360.4c0.2,0.8-10.4,0.9-16.8,0.6c-2.6-0.1-8.5-0.3-8.5-0.3c-3.8-2.1-1.4-5.8-1.7-6.8
	c1.4,0.3,4.6,1,7.1-1c1.4-1.1,1.5-1.8,1-2.4C232.1,356.1,240.1,355.8,241.2,360.4z"/>
<path class="st8" d="M228.3,353.5c-1.7-0.9-3.7-1.9-6-3c-10.4-5.2-22.4-11.6-31.9-18.8c-12.3-9.3-13.9-15.4-16.1-16.9
	s-4.2-1.4-10.9-3.7c-6.6-2.2-20.2,1-20.2,1s-2.9,2.6-1.8,4.9c1.1,2.3,12.7,7.8,12.7,7.8s13.4,1.3,13.9,2.1c0.5,0.7,6.9,11,21.6,18.6
	c0.9,0.5,3.1,1.3,6.1,2.4c0,0,4.3,1.3,8.6,2.7c4.3,1.4,9.6,2.9,9.9,3.3c0,0,0,0.1,0,0.1c0.3,1-2.1,4.7,1.7,6.8c0,0,5.9,0.1,8.5,0.3
	c6.4,0.3,17,0.2,16.8-0.6C240.3,356.8,235.3,356.7,228.3,353.5z"/>
<path class="st9" d="M237.8,364.6c0.2,0.8-12.7,0.1-14.3-0.1c-2.6-0.4-8.9,0.9-8.9,0.9c-3.8-2.1-1.4-5.8-1.7-6.8c0-0.1,0-0.1,0-0.1
	c-0.2-0.4-5.5-1.9-9.9-3.3c-4.3-1.4-8.6-2.7-8.6-2.7c-3-1.1-5.2-1.9-6.1-2.4c-14.7-7.6-21.1-17.9-21.6-18.6
	c-0.5-0.7-13.9-2.1-13.9-2.1s-11.6-5.5-12.7-7.8c-1.1-2.3,1.8-4.9,1.8-4.9s13.6-3.2,20.2-1c6.7,2.2,8.7,2.2,10.9,3.7
	c2.2,1.5,3.8,7.5,16.1,16.9c9.5,7.2,21.5,13.6,31.9,18.8C233.6,361.5,237.3,362.5,237.8,364.6z"/>
<path class="st10" d="M239.9,365c0.2,0.8-10.4,0.9-16.8,0.6c-2.6-0.1-8.5-0.3-8.5-0.3c-3.8-2.1-1.4-5.8-1.7-6.8c1.4,0.3,4.6,1,7.1-1
	c1.4-1.1,1.5-1.8,1-2.4C231,360.3,238.7,360.8,239.9,365z"/>
<path class="st9" d="M112.7,301.7C112.7,301.6,112.7,301.6,112.7,301.7c-9.3,0.5-13.2,0-13.3-3.4c-0.2-3.4,0.9-22.3,0.9-22.3
	c-8.3-1.2-12.1-4.5-13.5-6.2c-0.6-0.7-0.8-1.1-0.8-1.1s-10.8,0.5-12.6-8.2c-2.1-10.2,10.7-14.6,14.1-17c3.3-2.3-1-10.4,5.4-17.2
	c0.2-0.2,0.4-0.4,0.6-0.6c6.3-5.9,18.2-4,18.2-4c4.7-5.9,12-7.8,19-5.2c7,2.5,5.3,12.1,5.3,12.1s-0.4,1.2,0.6,3
	c0.3,0.5,0.7,1.1,1.3,1.7c2.7,2.7-0.7,8.2-6.3,8.3c0,0,0.1,6.7-3,8.4c-1.3,0.7-3.7,0.2-3.7,0.2s-0.2,1.8,0.2,3.1
	c0.1,0.4,0.3,0.8,0.6,1c0.2,0.2,0.4,0.2,0.8,0.3c1.4,0.2,3.6-0.4,6.7,2.2c3.7,3.1,18.7,19.1,20,18.5c1.3-0.6,12.9-11.4,13.6-11.5
	c0.4-0.1,0.9,0.2,1.2,0.5l0.2,0.2l1.6-1.7c0,0-1.9-1.6-0.3-5.8c1-2.5,1.8-5.1,2.7-6.6c0.5-1.1,1.1-1.6,1.5-1.4
	c0.9,0.4,0.6,1.8,0.2,3.2c-0.5,1.5-1.2,2.9-0.9,3.1c0.6,0.4,1,0.5,2.2-1c0.1-0.1,0.2-0.2,0.3-0.4c1.7-2.2,5.9-8.4,6.9-7.3
	c1,1.2,2.2,4.9,1.3,7.7c-0.4,1.1-1.3,3-3.7,5.4c-0.7,0.7-1.4,1.4-2.2,2c-2.5,2-4.5,3.4-4.5,3.4l-2,1.9c0,0,0,0,0.1,0
	c0,0,0.1,0.1,0.1,0.1l1.5,1.7c0,0-16.8,16.8-20.1,18.4c-1.3,0.7-11.9-8.7-11.9-8.7s0,0.1,0,0.1c0.8,2.7-3.4,20.3-3.4,20.3
	c0.1,0.9,3.9,0.9,4,1.9L112.7,301.7z"/>
<path class="st7" d="M177.7,316.5c-8.6,1.4-17,23.4-17,23.4s-16.9-10.4-42.9-18.5c-2.6-3.2-5.2-12.6-2.8-18.7c1.6-4-2.2-1-2.2-1
	c-9.3,0.5-14.3,0.2-14.5-3.1c-0.2-3.4,2.1-22.5,2.1-22.5c-8.3-1.2-12.1-4.5-13.5-6.2c1.4-4.1,2.5-7.1,2.9-7.7
	c1.3-2,27.1-8.3,27.1-8.3s6.3,7.9,9,6.6c2-0.9,0.8-4.3,0.1-6c1.2,0.9,3.7-0.7,7.4,2.5c3.7,3.1,18.7,19.1,20,18.5
	c1.3-0.6,12.9-11.4,13.6-11.5c0.4-0.1,0.9,0.2,1.2,0.5l0.2,0.2l3.2,2.5c0,0,0,0,0.1,0c0,0,0.1,0.1,0.1,0.1l1.5,1.7
	c0,0-16.8,16.8-20.1,18.4c-1.3,0.7-10.6-6.9-10.6-6.9c-0.4,1.2-1.2,2.3-1.2,2.3c0.3,5.6-0.5,11.9-0.5,11.9
	C149,307.9,177.7,314.4,177.7,316.5z"/>
<path class="st11" d="M134.6,315.6l-26.7-3.8c-0.5-0.1-0.9-0.6-0.8-1.1l4.6-32.6c0.1-0.5,0.6-0.9,1.1-0.8l26.7,3.8
	c0.5,0.1,0.9,0.6,0.8,1.1l-4.6,32.6C135.6,315.3,135.1,315.6,134.6,315.6z"/>
<path class="st9" d="M125.7,296.9c2,0.2,3.6,0.4,4.5,0.5c0.7-0.3,2.9-2,5.1-1.9c1.9,0,4.4,0,5.3,0.6c1.1,0.7,0.1,2.2,0.1,2.2
	s0.3,0.8,0.2,1.1c0,0.8-0.7,1.5-0.7,1.5s0.4,0.8,0.1,1.7c-0.2,0.8-0.8,1.1-0.8,1.1s0.6,1.1-0.5,1.6c-0.4,0.2-4.7,0-5.8-0.6
	c-0.9-0.5-2-1.4-2.5-1.7c0,0-1.1-1.2-0.9-0.9c0,0-2,0.1-5.2,0.3L125.7,296.9z"/>
<path class="st12" d="M131.7,241.6c0,0,0.1-9.6-3.5-14.4c0,0-4,5.5-6.6,7.6c-2.6,2.1-8.7,4.9-8.7,4.9l0.7,4.5c0,0,0.2,1.5,3,3.3
	c0,0-1.3,2.1,0.2,4.2c1.5,2,4,3.7,4.4,8.3c0.4,4.6-3.2,8-7.3,8.7c0,0,0.2-6.6-5-7c-5.2-0.4-8,2.3-8.8,14.4
	c-11.5-1.7-14.3-7.3-14.3-7.3s-10.8,0.5-12.6-8.2c-2.1-10.2,10.7-14.6,14.1-17c3.3-2.3-1-10.4,5.4-17.2c0.2-0.2,0.4-0.4,0.6-0.6
	c6.3-5.9,18.2-4,18.2-4c4.7-5.9,12-7.8,19-5.2c7,2.5,5.3,12.1,5.3,12.1s-0.4,1.2,0.6,3c0.3,0.5,0.7,1.1,1.3,1.7
	C140.7,236,137.3,241.5,131.7,241.6z"/>
<path class="st8" d="M183.8,254.3c-0.4,1.1-1.3,3-3.7,5.4c-0.7,0.7-1.4,1.4-2.2,2c-2.5,2-4.5,3.4-4.5,3.4l-2,1.9c0,0,0,0,0.1,0
	c0,0,0.1,0.1,0.1,0.1l1.5,1.7c0,0-16.8,16.8-20.1,18.4c-1.3,0.7-10.6-6.9-10.6-6.9c0.8-1.5,3.1-6.1-2.8-12.9
	c-3.7-4.3-6.1-10.2-9.8-12.6c1.4,0.2,2.3,0.8,3.5,1.8c3.7,3.1,18.7,19.1,20,18.5c1.3-0.6,12.9-11.4,13.6-11.5
	c0.4-0.1,0.9,0.2,1.2,0.5l0.2,0.2l1.6-1.7c0,0-1.9-1.6-0.3-5.8c1-2.5,1.8-5.1,2.7-6.6c0.5-1.1,1.1-1.6,1.5-1.4
	c0.9,0.4,0.6,1.8,0.2,3.2c-0.5,1.5-1.2,2.9-0.9,3.1c0.6,0.4,1,0.5,2.2-1c0.1-0.1,0.2-0.2,0.3-0.4c1.7-2.2,5.9-8.4,6.9-7.3
	C183.5,247.8,184.6,251.5,183.8,254.3z"/>
<path class="st7" d="M128.8,295.9l-1.2,7.7c0,0-15.9,0.1-21.5-0.6c-8.9-1.1-7.4-5-7.5-5.3c-0.6-2.3,7.7-4.6,7.7-4.6L128.8,295.9z"/>
<path class="st13" d="M193.6,194h-42c-5.7,0-10.4,4.7-10.4,10.4v22c0,5.1,3.8,9.4,8.7,10.2c-3.6,7.4-10.8,9-10.8,9
	c11.9-0.2,17.8-5.3,20.5-8.9h34c5.7,0,10.4-4.7,10.4-10.4v-22C204,198.6,199.3,194,193.6,194z"/>
<path class="st14" d="M183,201.6h-10c-0.8,0-1.5,0.7-1.5,1.5v3.8c-0.3-0.5-0.8-0.8-1.4-0.8c-1,0-1.8,0.9-1.8,2c0,1.1,0.8,2,1.8,2
	c0.6,0,1.1-0.3,1.4-0.8v3.8c0,0.8,0.7,1.5,1.5,1.5h3.9c-0.5,0.3-0.9,0.8-0.9,1.4c0,1,0.9,1.8,2,1.8s2-0.8,2-1.8
	c0-0.6-0.4-1.1-0.9-1.4h3.9c0.8,0,1.5-0.7,1.5-1.5v-10C184.5,202.3,183.8,201.6,183,201.6z"/>
<path class="st15" d="M170.1,206.1c0.6,0,1.1,0.3,1.4,0.8v-3.8c0-0.8-0.7-1.5-1.5-1.5h-3.6c0.4-0.3,0.6-0.8,0.6-1.3
	c0-1-0.9-1.8-2-1.8s-2,0.8-2,1.8c0,0.5,0.2,0.9,0.6,1.3h-3.6c-0.8,0-1.5,0.7-1.5,1.5v10c0,0.8,0.7,1.5,1.5,1.5h3.8
	c-0.5-0.3-0.8-0.8-0.8-1.4c0-1,0.9-1.8,2-1.8s2,0.8,2,1.8c0,0.6-0.3,1.1-0.8,1.4h3.8c0.8,0,1.5-0.7,1.5-1.5v-3.8
	c-0.3,0.5-0.8,0.8-1.4,0.8c-1,0-1.8-0.9-1.8-2S169.1,206.1,170.1,206.1z"/>
<path class="st14" d="M172.9,219.3c-0.6,0-1.1,0.3-1.4,0.8v-4c0-0.8-0.7-1.5-1.5-1.5h-3.9c0.5-0.3,0.9-0.8,0.9-1.4
	c0-1-0.9-1.8-2-1.8s-2,0.8-2,1.8c0,0.6,0.4,1.1,0.9,1.4h-3.9c-0.8,0-1.5,0.7-1.5,1.5v3.8c-0.3-0.5-0.8-0.8-1.4-0.8
	c-1,0-1.8,0.9-1.8,2s0.8,2,1.8,2c0.6,0,1.1-0.3,1.4-0.8v3.8c0,0.8,0.7,1.5,1.5,1.5h3.9c-0.5,0.3-0.9,0.8-0.9,1.4c0,1,0.9,1.8,2,1.8
	s2-0.8,2-1.8c0-0.6-0.4-1.1-0.9-1.4h3.9c0.8,0,1.5-0.7,1.5-1.5v-3.7c0.3,0.5,0.8,0.8,1.4,0.8c1,0,1.8-0.9,1.8-2
	S173.8,219.3,172.9,219.3z"/>
<path class="st16" d="M178.8,225c0,1.1-0.8,2-1.8,2c-0.6,0-1.1-0.3-1.4-0.8v3.8c0,0.8,0.7,1.5,1.5,1.5h10c0.8,0,1.5-0.7,1.5-1.5v-10
	c0-0.8-0.7-1.5-1.5-1.5h-3.8c0.5,0.3,0.8,0.8,0.8,1.4c0,1-0.9,1.8-2,1.8c-1.1,0-2-0.8-2-1.8c0-0.6,0.3-1.1,0.8-1.4h-3.8
	c-0.8,0-1.5,0.7-1.5,1.5v3.8c0.3-0.5,0.8-0.8,1.4-0.8C178,222.9,178.8,223.8,178.8,225z"/>
<path class="st17" d="M283.5,268.3c-0.4-3.1,1.8-10.6-12.1-32c-12.8-19.7-27.9-18.8-30.2-18.6c-2.3-0.3-20.9-1.8-33.4,18.1
	c-10.1,16.2-8.6,29.3-9,32.4c-0.4,3.1-18.2,17.9-13.3,33.6s9.7,17.5,18,21.4c0,0,19.4,5.1,35.2,5.2c18.7,0,30.1-2.1,39.5-5.2
	c6.2-2,15.5-6.2,18.6-21.4C300.2,285.8,283.9,271.4,283.5,268.3z"/>
<path class="st18" d="M279.2,331.4c0,2-1.6,3.5-7.7,2.4c-4.3-0.8-9.1-3.9-11.4-5.6c0,0,0,0,0,0c-0.9-0.7-1.5-1.1-1.5-1.1
	c-3.3-1-11.1-1.8-19.9-3.1c-8.7,1.4-16.6,2.1-19.9,3.1c0,0-0.6,0.5-1.7,1.3c-2.4,1.7-7.1,4.7-11.3,5.5c-6.1,1.1-7.7-0.4-7.7-2.4
	c0-2.1,5.1-7.5,16.8-8.9c0.5-0.1,1-0.1,1.6-0.2l4.1-1.9c0,0,0.2-0.1,0.6-0.3c-1.9-0.6-3.7-1.3-5.4-2c-9.3-4.1-23.3-14-20.7-22.4
	c1.8-5.9,8.4-5.9,12.1-5.4c0,0,0.1,0,0.1,0c1.5,0.2,2.5,0.5,2.5,0.5c-0.6-0.5-0.8-1.8-0.9-3.6c-0.1-7.3,3.7-22.6,3.7-22.6l3-10.1
	c-1.2-0.2-2.7-0.9-4-1.9c-2.9-2.1-5.3-5.5-3.5-9.2c2.8-6,10.8-3.4,9.9-7c-1.4-5.4,0.3-9.4,5-11.8c4.7-2.4,2.9-2.5,7.6-9
	c0.8-1.1,1.9-2,3.1-2.5l0,0c4.3-2.2,10-1,10-1s0,0,0,0.1c1.6,0.4,3.1,1.2,4.2,2.6l0.9,1.2c0,0,7.1,0.6,8.8,7.2
	c1.7,6.5-5.1,7.2-2.2,11.5c2.9,4.3,5.8,6.9,1,10c0,0,0.1,0.1,0.4,0.2c0.4,0.3,1,0.8,1.7,1.7c1.1,1.4,2.6,3.9,3.8,8l3,10.1
	c0,0,3.1,12.8,3.6,20.6c0.2,2.8,0,4.9-0.8,5.6l0,0c0.7-0.2,12.1-3.3,14.6,4.8c2.6,8.4-11.4,18.3-20.7,22.4c-1.7,0.8-3.5,1.4-5.4,2
	c0.4,0.2,0.6,0.3,0.6,0.3l4.1,1.9c0.7,0.1,1.3,0.1,1.9,0.2c0,0,0,0,0.1,0C274.3,324.1,279.2,329.4,279.2,331.4z"/>
<path class="st10" d="M217.1,328.4c-2.4,1.7-7.1,4.7-11.3,5.5c-6.1,1.1-7.7-0.4-7.7-2.4c0-2.1,5.1-7.5,16.8-8.9c0,0-5.6,1.5-6,5.1
	C208.6,331.2,214.9,329.4,217.1,328.4z M262.9,322.6c0.8,0.3,7.4,2.6,5.7,6.1c-1.2,2.6-7.9-0.2-8.5-0.4c2.4,1.7,7.1,4.8,11.4,5.6
	c6.1,1.1,7.7-0.4,7.7-2.4C279.2,329.4,274.3,324.1,262.9,322.6z"/>
<path class="st6" d="M261.6,318.1c-1.7,0.8-3.5,1.4-5.4,2c0.4,0.2,0.6,0.3,0.6,0.3l4.1,1.9c-0.1,3.9-2.3,4.8-2.3,4.8
	c-3.3-1-11.1-1.8-19.9-3.1c-8.7,1.4-16.6,2.1-19.9,3.1c-2.5-1.9-2.3-4.8-2.3-4.8l4.1-1.9c0,0,0.2-0.1,0.6-0.3
	c-1.9-0.6-3.7-1.3-5.4-2c-9.3-4.1-23.3-14-20.7-22.4c1.8-5.9,8.4-5.9,12.1-5.4c0,0,0.1,0,0.1,0c1.5,0.2,2.5,0.5,2.5,0.5
	c-0.6-0.5-0.8-1.8-0.9-3.6c8.4,1,18,3.4,18,3.4s24.5-5.8,35.6-5.6c2,0,4,0.1,6.1,0.3c0.2,2.8,0,4.9-0.8,5.6l0,0
	c0.7-0.2,12.1-3.3,14.6,4.8C284.9,304.1,270.9,314,261.6,318.1z"/>
<path class="st7" d="M267.6,290.9c0,0-3.5,0.8-7.2,2.6c-3.7,1.8-44.4-0.3-44.4-0.3s-3.9-1.7-8.8-2.7c1.5,0.2,2.5,0.5,2.5,0.5
	c-3-2.7,2.8-26.2,2.8-26.2l3-10.1c-1.2-0.2-2.7-0.9-4-1.9c3.3-4.1,6.6-8.2,6.6-8.2s6.9,8,21.1,7.9c9.7,0,16.3-3.8,19-5.8
	c1.1,1.4,2.6,3.9,3.8,8l3,10.1C264.9,264.7,270.6,288.2,267.6,290.9z"/>
<path class="st8" d="M261.8,295.9c0,0-15.8,9.6-23.1,14.6c0,0-18.1-11.9-22.4-14.6c0,0,17.7-3.3,19.8-3.3
	C238.2,292.7,261.8,295.9,261.8,295.9z"/>
<path class="st8" d="M238.7,324c-0.1,0-0.2,0-0.2,0c-5.7-0.9-17.3-3.8-17.3-3.8l-1.7,0.8l10.4,4.3L238.7,324z"/>
<path class="st10" d="M256,244.7c0,0,0.1,0.1,0.4,0.2c-4.6-2.1-9.3-0.7-11.5-2.1c-2.1-1.3-1.4-4.1-1.4-4.1c2.9-1.8,3.4-5.5,3.4-5.5
	c1,0.5,2.8-1.2,2.5-3.5c-0.3-2.1-2.1-1.4-2.2-1.4c0.1-0.3,0.1-3.5-0.2-3.2c-1.1,1-3.3,4-6.9,4.6c-3.6,0.6-2.9,0-4.3-0.2
	c-1.5-0.2-2.9,1.5-3.8,2.9c-0.9,1.4-1.3,2.5-1.3,2.5c0.8,2.8,3.7,4.1,3.7,4.1c0,5.1-6.4,4-11,5.5c-5.8,1.9-7.8,9.9-7.8,9.9
	c-3.6-0.7-10.2-5.6-7.6-11.1c2.8-6,10.8-3.4,9.9-7c-1.4-5.4,0.3-9.4,5-11.8c4.7-2.4,2.9-2.5,7.6-9c0.8-1.1,1.9-2,3.1-2.5l0,0
	c4.3-2.2,10-1,10-1s0,0,0,0.1c1.6,0.4,3.1,1.2,4.2,2.6l0.9,1.2c0,0,7.1,0.6,8.8,7.2c1.7,6.5-5.1,7.2-2.2,11.5
	C257.9,239,260.8,241.6,256,244.7z"/>
<path class="st4" d="M269.3,265.4l-6.9,30.5c0,0.5-0.4,0.9-0.9,0.9h-45.9c-0.2,0-0.3-0.1-0.5-0.1c-0.2-0.2-0.4-0.4-0.4-0.7
	l-6.9-30.5c0-0.5,0.4-0.9,0.9-0.9h59.7c0.3,0,0.5,0.1,0.6,0.3C269.3,265,269.3,265.2,269.3,265.4z"/>
<circle class="st8" cx="239" cy="280.2" r="2.4"/>
<path class="st14" d="M252.3,171.8h-10c-0.8,0-1.5,0.7-1.5,1.5v3.8c-0.3-0.5-0.8-0.8-1.4-0.8c-1,0-1.8,0.9-1.8,2c0,1.1,0.8,2,1.8,2
	c0.6,0,1.1-0.3,1.4-0.8v3.8c0,0.8,0.7,1.5,1.5,1.5h3.9c-0.5,0.3-0.9,0.8-0.9,1.4c0,1,0.9,1.8,2,1.8s2-0.8,2-1.8
	c0-0.6-0.4-1.1-0.9-1.4h3.9c0.8,0,1.5-0.7,1.5-1.5v-10C253.8,172.5,253.1,171.8,252.3,171.8z"/>
<path class="st15" d="M239.4,176.3c0.6,0,1.1,0.3,1.4,0.8v-3.8c0-0.8-0.7-1.5-1.5-1.5h-3.6c0.4-0.3,0.6-0.8,0.6-1.3
	c0-1-0.9-1.8-2-1.8s-2,0.8-2,1.8c0,0.5,0.2,0.9,0.6,1.3h-3.6c-0.8,0-1.5,0.7-1.5,1.5v10c0,0.8,0.7,1.5,1.5,1.5h3.8
	c-0.5-0.3-0.8-0.8-0.8-1.4c0-1,0.9-1.8,2-1.8s2,0.8,2,1.8c0,0.6-0.3,1.1-0.8,1.4h3.8c0.8,0,1.5-0.7,1.5-1.5v-3.8
	c-0.3,0.5-0.8,0.8-1.4,0.8c-1,0-1.8-0.9-1.8-2S238.4,176.3,239.4,176.3z"/>
<path class="st14" d="M242.2,189.5c-0.6,0-1.1,0.3-1.4,0.8v-4c0-0.8-0.7-1.5-1.5-1.5h-3.9c0.5-0.3,0.9-0.8,0.9-1.4
	c0-1-0.9-1.8-2-1.8s-2,0.8-2,1.8c0,0.6,0.4,1.1,0.9,1.4h-3.9c-0.8,0-1.5,0.7-1.5,1.5v3.8c-0.3-0.5-0.8-0.8-1.4-0.8
	c-1,0-1.8,0.9-1.8,2s0.8,2,1.8,2c0.6,0,1.1-0.3,1.4-0.8v3.8c0,0.8,0.7,1.5,1.5,1.5h3.9c-0.5,0.3-0.9,0.8-0.9,1.4c0,1,0.9,1.8,2,1.8
	s2-0.8,2-1.8c0-0.6-0.4-1.1-0.9-1.4h3.9c0.8,0,1.5-0.7,1.5-1.5v-3.7c0.3,0.5,0.8,0.8,1.4,0.8c1,0,1.8-0.9,1.8-2
	S243.1,189.5,242.2,189.5z"/>
<path class="st16" d="M248.1,195.2c0,1.1-0.8,2-1.8,2c-0.6,0-1.1-0.3-1.4-0.8v3.8c0,0.8,0.7,1.5,1.5,1.5h10c0.8,0,1.5-0.7,1.5-1.5
	v-10c0-0.8-0.7-1.5-1.5-1.5h-3.8c0.5,0.3,0.8,0.8,0.8,1.4c0,1-0.9,1.8-2,1.8s-2-0.8-2-1.8c0-0.6,0.3-1.1,0.8-1.4h-3.8
	c-0.8,0-1.5,0.7-1.5,1.5v3.8c0.3-0.5,0.8-0.8,1.4-0.8C247.3,193.1,248.1,194,248.1,195.2z"/>
<path class="st6" d="M340,331.5c0,0,29.8,0.2,38.6-2.1c7-1.8,16.9-1.8,20.2-22.9c2.2-14.2,12.5-48.3,5.8-59.8
	c-11.1-19-32.1-22.2-51.3-10.7c-19.2,11.5-20.4,40-20.3,43.4s-47,29.7-30,43C313.7,330.9,334.4,331.5,340,331.5z"/>
<path class="st18" d="M385.6,256c-3.2-7.4-6.7-8.1-6.7-8.1c-1.3-0.6-2.9-1.2-4.9-1.6c-5.3-1.2-7.3-2.3-8-3.9c0-0.1-0.1-0.2-0.1-0.4
	c-0.5-1.9-0.5-6.8-0.5-6.8l1.4-2.2c0,0,1,0.1,2.6-0.7c2.4-1.2,2.7-3.5,1.8-4c-0.1-0.1-0.2-0.1-0.3-0.1c0,0,4.1-2.1,4.9-5.1
	c0.8-2.9-3.9-3-3.9-5.8s-2.6-5.3-7.1-5.9c-4.5-0.6-5.2-3.8-10.2-2.9c-3.3,0.6-4.8,3.6-4.7,6.5c0,0.2,0,0.3,0,0.3
	c-1.1,0.8-2.6,2-3.4,2.8c-0.3-0.2-0.5-0.3-0.8-0.5c0,0-6.4,3.2-16.1,8.9c-9.7,5.7-12.5,11.5-13,12.2c-1.9,2.8,22.5,14.6,26.7,16.9
	c0,0-1.3,3.8-1.2,10.6c0.1,6.8,2.4,21.2,2.4,21.2s0,0,0,0c-0.3-0.1-2.8-0.8-5.6-1.2c-2.8-0.4-5.8-0.7-6.9,0.2c0,0-0.6,0.1-2.1,1.5h0
	c-0.8,0.7-1.8,1.7-3.1,3.1c-1.5,1.7-7.1,8-13.6,15.2c-10,11.3-21.9,25-23.7,28.1c0,0,0.5,0.4,1.2,0.9l-0.8,0.8c0,0,0,0,0,0
	c-0.7,0.3-11.1,4.5-14.6,6.3c-3.6,1.9-3.9,3.8-4,4.2c-0.1,0.4,22.8,0,24.3-0.8c1.5-0.8,1-6.8,1-6.8s0.3-0.3,0.6-0.8
	c0.6,0.1,1.2,0.2,1.8,0.1c0,0,11.1-10.8,21.1-20.3c3.7-3.5,7.3-6.8,10.1-9.3c3.3-3,5.6-4.9,6-4.8c1.4,0.3,9.1,3,17.4,6.6
	c0,0,3.8-3.9,15.8-11.6c0.6-0.4,1.2-0.9,1.8-1.3l-0.3-0.9c0,0,0,0,0,0l-0.2-0.9c0,0-0.8-2.8-1.1-6.7c8.5-2.9,18.4-7.4,18.8-8.8
	C389.1,278.5,388.9,263.4,385.6,256z M331.9,237.9c0.7-0.5,18.1-15,18.1-15.3c0,0,0,0,0-0.1c0-0.1-0.1-0.3-0.2-0.5
	c-0.1-0.1-0.1-0.3-0.2-0.5c0,0,0,0,0,0c0.7-0.3,2.1-0.1,3.1-0.6l0,0c0.1,0.1,0.1,0.2,0.2,0.3c0.1,0.1,0.1,0.1,0.2,0.1
	c0.2,0.2,0.4,0.3,0.5,0.4c0,0,0,0,0.1,0c0,0-1.3,4-1.3,9.3c-0.1,5.3,3.3,9.1,6.8,7.1c0,0,0.1,3.2-2.5,4.1c-0.2,0.1-0.4,0.1-0.6,0.2
	c0,0-2.3,0.3-6.7-0.7C345,240.8,331.2,238.4,331.9,237.9z M370.6,279.8c0.1-0.2,0.1-0.4,0.2-0.7c0.5-1.5,4.1-10,5.5-13.4
	c1.7,4.3,1.3,9.9,1.4,10.5C377.9,276.6,375.9,278.2,370.6,279.8z"/>
<path class="st7" d="M341.4,346.1c-1.5,0.8-25.5,1.2-25.4,0.8c0.1-0.4,0.4-2.3,4-4.2c3.6-1.9,12.6-4.8,12.6-4.8l-0.2-0.3
	c-0.4,0-0.6,0.1-0.6,0.1s-5.8-9.4-11.6-19.2c-2.5-4.1-5-8.3-7-11.9c-2.8-4.8-4.8-8.6-5.2-9.8c-1.3-4.1-0.9-8.9,5-11.2
	c4-1.5,12.2,0.9,17,2.6h0c2.2,0.8,3.7,1.4,3.7,1.4L329,306l1.2,3.1l10.5,27.6c-0.2,0.1-0.5,0.1-0.7,0.1c0.7,1.4,1.4,2.6,1.4,2.6
	S342.9,345.3,341.4,346.1z"/>
<path class="st8" d="M341.4,346.1c-1.5,0.8-25.5,1.2-25.4,0.8c0.1-0.4,0.4-2.3,4-4.2c3.6-1.9,12.6-4.8,12.6-4.8l-0.2-0.3
	c-0.4,0-0.6,0.1-0.6,0.1s-5.8-9.4-11.6-19.2c-2.5-4.1-5-8.3-7-11.9c-2.8-4.8-4.8-8.6-5.2-9.8c-1.3-4.1-0.9-8.9,5-11.2
	c4-1.5,12.2,0.9,17,2.6h0c2.2,0.8,3.7,1.4,3.7,1.4L329,306l1.2,3.1l10.5,27.6c-0.2,0.1-0.5,0.1-0.7,0.1c0.7,1.4,1.4,2.6,1.4,2.6
	S342.9,345.3,341.4,346.1z"/>
<path class="st17" d="M385.6,256c-3.2-7.4-6.7-8.1-6.7-8.1c-1.3-0.6-2.9-1.2-4.9-1.6c-5.3-1.2-7.3-2.3-8-3.9c0-0.1-0.1-0.2-0.1-0.4
	c-0.9,1.5-2,3-4.9,2.6c-2.6-0.4-2.7-2.1-3-3.3c-0.8,0.8-1.8,1.1-2,1.1c0,0-2.3,0.3-6.7-0.7c-4.3-1-18.2-3.3-17.5-3.8
	c0.7-0.5,18.1-15,18.1-15.3c0,0,0,0,0-0.1c0-0.1-0.1-0.3-0.2-0.5c-0.1-0.1-0.1-0.3-0.2-0.5c0,0,0,0,0,0c-0.5-0.9-1.4-2.2-2.9-3.2
	c-0.3-0.2-0.5-0.3-0.8-0.5c0,0-6.4,3.2-16.1,8.9c-9.7,5.7-12.7,11.4-13,12.2c-1.9,4.2,22.5,14.6,26.7,16.9c0,0-1.3,3.8-1.2,10.6
	c0.1,6.8,2.4,21.2,2.4,21.2s5.3,5.5,13.3,8.5c3.3,1.2,11.2-1.9,12.9,0c0,0-0.8-2.8-1.1-6.7c8.5-2.9,18.4-7.4,18.8-8.8
	C389.1,278.5,388.9,263.4,385.6,256z M370.6,279.8c0.1-0.2,0.1-0.4,0.2-0.7c0.5-1.5,4.1-10,5.5-13.4c1.7,4.3,1.3,9.9,1.4,10.5
	C377.9,276.6,375.9,278.2,370.6,279.8z"/>
<polygon class="st2" points="359.7,291.8 357.5,262.5 313.6,256.9 311.9,257.3 358.2,292.9 "/>
<polygon class="st4" points="358.5,292.9 356.3,262.9 311.9,257.2 316.2,287.3 "/>
<ellipse transform="matrix(0.1031 -0.9947 0.9947 0.1031 24.8975 578.7748)" class="st8" cx="333.4" cy="275.6" rx="1.5" ry="2.8"/>
<path class="st7" d="M371.2,298c-0.6,0.4-1.2,0.9-1.8,1.3c-12,7.7-15.8,11.6-15.8,11.6c-8.3-3.6-16-6.3-17.4-6.6
	c-0.3-0.1-2.6,1.8-6,4.8c-2.8,2.6-6.4,5.9-10.1,9.3c-10,9.5-21.1,20.3-21.1,20.3c-0.6,0-1.2,0-1.8-0.1c-0.4,0.5-0.6,0.8-0.6,0.8
	s0.6,6-1,6.8c-1.5,0.8-24.4,1.1-24.3,0.8c0-0.4,0.4-2.3,4-4.2c3.4-1.8,13.9-6.1,14.6-6.3c0,0,0,0,0,0l0.8-0.8
	c-0.7-0.5-1.2-0.9-1.2-0.9c1.9-3.1,13.8-16.9,23.7-28.1c6.5-7.3,12.1-13.5,13.6-15.2c1.3-1.4,2.3-2.4,3.1-3.1
	c1.5-1.3,2.1-1.5,2.1-1.5c1.1-0.9,4.1-0.6,6.9-0.2c1.7,0.4,3.5,0.8,5.6,1.3c6.5,1.5,11.6,3.1,15.7,4.6l2.5-0.8l6.8-2.1
	c0.3,3.9,1.1,6.7,1.1,6.7L371.2,298z"/>
<path class="st18" d="M296.5,339.4c0,0-3.6,3.3-4.5,3.4s-4.1-3.1-3.9-3.6s1.6-2.9,1.6-2.9l0.8-0.8c3.9,2.7,6.6,3,6.6,3L296.5,339.4z
	 M332.5,337.9c0,0,0.2,3,0.7,3.2s3.9-1.1,5.4-1.7c1.5-0.5,1.3-2.6,1.3-2.6c-2,0.5-7.6,0.8-7.6,0.8L332.5,337.9z"/>
<path class="st10" d="M341.4,346.1c-1.5,0.8-25.5,1.2-25.4,0.8c0.1-0.4,0.4-2.3,4-4.2c3.6-1.9,12.6-4.8,12.6-4.8s0.8,1.5,3.6,1
	c2.8-0.5,3.8-2.1,3.8-2.1c0.7,1.4,1.4,2.6,1.4,2.6S342.9,345.3,341.4,346.1z"/>
<path class="st10" d="M295.6,346.1c-1.5,0.8-24.4,1.1-24.3,0.8c0-0.4,0.4-2.3,4-4.2c3.4-1.8,13.9-6.1,14.6-6.3
	c-0.2,0.3-1.2,2.2,0.4,3c1.6,0.8,5.4,0.2,6.2,0c0.1,0,0.2,0,0.2,0S297.1,345.4,295.6,346.1z"/>
<path class="st10" d="M375.9,223.2c-0.8,3-4.9,5.1-4.9,5.1c-0.7-0.2-1.4-0.3-1.8-0.2c-0.8,0.1-1.9,0.9-2.1,0.9
	c-0.3,0.1,1.7-5.2-1.2-7.3c-2.9-2.1-9.3,2-12.3,0c0,0,0,0-0.1,0c-0.2-0.1-0.3-0.3-0.5-0.4c-0.1,0-0.1-0.1-0.2-0.1
	c-0.1-0.1-0.2-0.1-0.3-0.2c-2.2-2.2-2.6-5.5-2.6-5.5s0-0.1,0-0.3c-0.1-2.9,1.4-6,4.7-6.5c5-0.9,5.7,2.3,10.2,2.9
	c4.5,0.6,7.1,3.1,7.1,5.9S376.7,220.3,375.9,223.2z"/>
<path class="st14" d="M374.6,168.8h-10c-0.8,0-1.5,0.7-1.5,1.5v3.8c-0.3-0.5-0.8-0.8-1.4-0.8c-1,0-1.8,0.9-1.8,2c0,1.1,0.8,2,1.8,2
	c0.6,0,1.1-0.3,1.4-0.8v3.8c0,0.8,0.7,1.5,1.5,1.5h3.9c-0.5,0.3-0.9,0.8-0.9,1.4c0,1,0.9,1.8,2,1.8s2-0.8,2-1.8
	c0-0.6-0.4-1.1-0.9-1.4h3.9c0.8,0,1.5-0.7,1.5-1.5v-10C376.1,169.5,375.4,168.8,374.6,168.8z"/>
<path class="st15" d="M361.7,173.3c0.6,0,1.1,0.3,1.4,0.8v-3.8c0-0.8-0.7-1.5-1.5-1.5H358c0.4-0.3,0.6-0.8,0.6-1.3
	c0-1-0.9-1.8-2-1.8s-2,0.8-2,1.8c0,0.5,0.2,0.9,0.6,1.3h-3.6c-0.8,0-1.5,0.7-1.5,1.5v10c0,0.8,0.7,1.5,1.5,1.5h3.8
	c-0.5-0.3-0.8-0.8-0.8-1.4c0-1,0.9-1.8,2-1.8s2,0.8,2,1.8c0,0.6-0.3,1.1-0.8,1.4h3.8c0.8,0,1.5-0.7,1.5-1.5v-3.8
	c-0.3,0.5-0.8,0.8-1.4,0.8c-1,0-1.8-0.9-1.8-2C359.9,174.2,360.7,173.3,361.7,173.3z"/>
<path class="st14" d="M364.5,186.4c-0.6,0-1.1,0.3-1.4,0.8v-4c0-0.8-0.7-1.5-1.5-1.5h-3.9c0.5-0.3,0.9-0.8,0.9-1.4
	c0-1-0.9-1.8-2-1.8s-2,0.8-2,1.8c0,0.6,0.4,1.1,0.9,1.4h-3.9c-0.8,0-1.5,0.7-1.5,1.5v3.8c-0.3-0.5-0.8-0.8-1.4-0.8
	c-1,0-1.8,0.9-1.8,2s0.8,2,1.8,2c0.6,0,1.1-0.3,1.4-0.8v3.8c0,0.8,0.7,1.5,1.5,1.5h3.9c-0.5,0.3-0.9,0.8-0.9,1.4c0,1,0.9,1.8,2,1.8
	s2-0.8,2-1.8c0-0.6-0.4-1.1-0.9-1.4h3.9c0.8,0,1.5-0.7,1.5-1.5v-3.7c0.3,0.5,0.8,0.8,1.4,0.8c1,0,1.8-0.9,1.8-2
	S365.5,186.4,364.5,186.4z"/>
<path class="st16" d="M370.5,192.1c0,1.1-0.8,2-1.8,2c-0.6,0-1.1-0.3-1.4-0.8v3.8c0,0.8,0.7,1.5,1.5,1.5h10c0.8,0,1.5-0.7,1.5-1.5
	v-10c0-0.8-0.7-1.5-1.5-1.5H375c0.5,0.3,0.8,0.8,0.8,1.4c0,1-0.9,1.8-2,1.8s-2-0.8-2-1.8c0-0.6,0.3-1.1,0.8-1.4h-3.8
	c-0.8,0-1.5,0.7-1.5,1.5v3.8c0.3-0.5,0.8-0.8,1.4-0.8C369.7,190.1,370.5,191,370.5,192.1z"/>
<path class="st17" d="M451,332.7c0,0-20.7,5.7-27,16.3c-5,8.5-4,12.1-0.5,15.1c4.3,3.8,15,8,86.8,0c6.9-0.8,14.3-0.9,19.3-20
	c5-19.1-11.8-28.2-12-33.9c-0.2-5.7,16.2-51.5-6.9-49.6c-31.5,2.6-36.6,27.5-39.9,34.7C467.6,302.6,460.2,326.9,451,332.7z"/>
<path class="st18" d="M461.2,314.4c0,0-8.2,11.1-8.8,11.2c-0.2,0-1.4-0.5-3.3-1.3c-6.2-2.6-19.2-8.4-19.2-8.4l-22.2,35.2
	c0,0-0.3,0-0.7,0c-0.3,0-0.6,0-1-0.1l-0.1,0.1l-0.3,0.6c-0.3,0.7,0.1,9-1.4,9.8c-1.1,0.5-21.8,0.4-21.8,0.4
	c0-3.8,10.5-7.1,18.5-12.2c0,0,0.1,0,0.1-0.1c0.1-0.1,0.1-0.1,0.1-0.3l-1.4-1c0,0,14.8-35,21.6-43.8c1.4-1.8,7.1-1.2,12.4,0.3
	c3.9,1.1,17.2,6.4,23.8,8.6C459.7,314.2,461.1,314.6,461.2,314.4z"/>
<path class="st6" d="M457.5,313.4c-1.9,2.8-5,6.7-8.4,11c-6.2-2.6-19.2-8.4-19.2-8.4l-22.2,35.2c0,0-0.3,0-0.7,0c-0.3,0-0.6,0-1,0
	c-1.4-0.1-4.8-1.7-4.7-1.8l-1.4-1c0,0,14.8-35,21.6-43.8c1.4-1.8,7.1-1.2,12.4,0.3C437.6,305.9,451,311.2,457.5,313.4z"/>
<path class="st10" d="M405.7,351.8c-0.3,0.7,0.1,9-1.4,9.8c-1.1,0.5-21.8,0.4-21.8,0.4c0-3.7,10.5-7.1,18.5-12.2c0,0-1.3,1.8-1,2.7
	C400.3,353.4,405.7,351.8,405.7,351.8z"/>
<path class="st8" d="M461.2,314.4c0,0-8.2,11.1-8.8,11.2c-0.2,0-1.4-0.5-3.3-1.3c-6.2-2.6-19.2-8.4-19.2-8.4l-22.2,35.2
	c0,0-0.3,0-0.7,0c-0.3,0-0.6,0-1-0.1l-0.1,0.1l-0.3,0.6c-0.3,0.7,0.1,9-1.4,9.8c-1.1,0.5-21.8,0.4-21.8,0.4
	c0-3.8,10.5-7.1,18.5-12.2c0,0,0.1,0,0.1-0.1c0.1-0.1,0.1-0.1,0.1-0.3l-1.4-1c0,0,14.8-35,21.6-43.8c1.4-1.8,7.1-1.2,12.4,0.3
	c3.9,1.1,17.2,6.4,23.8,8.6C459.7,314.2,461.1,314.6,461.2,314.4z"/>
<path class="st18" d="M382.1,351.5l-0.7,1.2c-0.3,0.7,0.1,9-1.4,9.8c-1.1,0.5-21.8,0.4-21.8,0.4c0-3.7,10.5-7.1,18.5-12.2
	L382.1,351.5z"/>
<path class="st10" d="M381.4,352.7c-0.3,0.7,0.1,9-1.4,9.8c-1.1,0.5-21.8,0.4-21.8,0.4c0-3.7,10.5-7.1,18.5-12.2c0,0-1.3,1.8-1,2.7
	C376,354.3,381.4,352.7,381.4,352.7z"/>
<path class="st18" d="M438.8,304.1c-0.2,0-3.5,0.5-4,0.4c-0.4,0-7.6-2.9-9.7-2.8s-3.9,1.1-3.9,1.1s14.9,6,15.7,6
	c0.7,0,5.1-1.9,5.1-1.9L438.8,304.1z"/>
<path class="st7" d="M455.3,297.8c-0.1,0.1-17.3,5-17.3,5s0,4.5,2.4,6.1l16-2.6L455.3,297.8z"/>
<path class="st8" d="M455.3,297.8c-0.1,0.1-17.3,5-17.3,5s0,0.6,0.1,1.4c-1.1,0.1-2.9,0.4-3.2,0.4c-0.4,0-7.6-2.9-9.7-2.8
	s-4.4,1.3-4.4,1.3s15.4,5.8,16.2,5.8c0.4,0,1.5-0.4,2.7-0.9c0.3,0.3,0.6,0.6,0.9,0.9l16-2.6L455.3,297.8z"/>
<polygon class="st2" points="414.4,303.6 397.1,278.9 398.9,277.1 416.4,301.2 443,310.7 442,313.2 "/>
<path class="st18" d="M517.6,275c-0.6-12.3-8.1-15.8-12.9-17.1c-4.9-1.3-3.1-7-4-10.3c-1.1-4-11.5-10-17.6-2l-0.4-0.1
	c-0.6-2.7-2.4-3.3-2.4-3.3s0.1-1.9-2.9-3.5c-3.1-1.6-5.9,0.2-6.2,0.3c-0.3,0.1-1.6-1.3-6.5-2c-4.8-0.7-7.1,3-7.2,6.1
	c-0.1,3.1,3,5,3,5s-3.4,14,0.2,15.2c3.6,1.1,6,0.3,6,0.3s1.8,3.2-0.3,6.5c0,0,0,0.1-0.1,0.1c0,0-4.9-1.1-11.4,5.1
	c-6.5,6.2-13.5,10.2-13.5,10.2s-9.7-10.9-13.2-16.8c0,0-3.6,2.2-5.6,5.3c0,0,16,22.6,18.2,22.3c2.3-0.3,9.2-5.1,9.2-5.1
	s-0.3,4.1,2.4,6.9c0,0,0.6,3.3,0.7,6.1c0.3,6.3,0.2,8,0.2,8l-0.5,1.9l-0.6,2.1c0,0-30.3-12.1-36.3-12c-6,0.1-20.3,19.5-27.6,28.4
	c-7.3,8.8-12.8,17.4-12.8,17.4c0.8,0.8,5.8,3.1,8.7,2.8c0,0,32.4-32,33.2-31.5c0.8,0.5,9.4,5.6,17.9,11c8.5,5.4,14.4,10.5,23.8,10.8
	c0,0,9.4-12.1,19.4-16.6c0,0-0.8-4.8-1.3-8.6c-0.4-2.2-0.6-4.1-0.6-4.3c0-0.2,0.1-0.6,0.2-1.2c0.3-1.3,0.7-3.2,1.1-4.8
	c1.6-6.5,2.7-18.7,2.3-21.6c0,0,0,0,0,0.1c0,0,0,0.1,0,0.2c0,0,0,0.1,0,0.1c0.1,0.2,0.1,0.4,0.2,0.6c0,0.1,0.1,0.3,0.1,0.4
	c0.9,2.6,3.9,7.6,13.2,8.8c0.6,0.1,1.2,0.1,1.9,0.2C510,297.4,518.2,287.4,517.6,275z M478.4,264.9c-0.3,0.5-0.5,1.1-0.7,1.7
	c-0.9,2.6-1.1,5.6-1,6.5c0,0.1,0,0.1,0,0.2c-0.5-1.3-1-2.3-1.4-3.4c-0.3-0.6-0.6-1.3-0.7-2.1c-0.5-2.1-0.5-5.6-0.5-5.6
	s4.5-1.8,7-5.6C481.2,256.5,482.3,257.3,478.4,264.9z"/>
<path class="st14" d="M480.3,193.4h-10c-0.8,0-1.5,0.7-1.5,1.5v3.8c-0.3-0.5-0.8-0.8-1.4-0.8c-1,0-1.8,0.9-1.8,2c0,1.1,0.8,2,1.8,2
	c0.6,0,1.1-0.3,1.4-0.8v3.8c0,0.8,0.7,1.5,1.5,1.5h3.9c-0.5,0.3-0.9,0.8-0.9,1.4c0,1,0.9,1.8,2,1.8s2-0.8,2-1.8
	c0-0.6-0.4-1.1-0.9-1.4h3.9c0.8,0,1.5-0.7,1.5-1.5v-10C481.8,194,481.2,193.4,480.3,193.4z"/>
<path class="st15" d="M467.4,197.8c0.6,0,1.1,0.3,1.4,0.8v-3.8c0-0.8-0.7-1.5-1.5-1.5h-3.6c0.4-0.3,0.6-0.8,0.6-1.3
	c0-1-0.9-1.8-2-1.8s-2,0.8-2,1.8c0,0.5,0.2,0.9,0.6,1.3h-3.6c-0.8,0-1.5,0.7-1.5,1.5v10c0,0.8,0.7,1.5,1.5,1.5h3.8
	c-0.5-0.3-0.8-0.8-0.8-1.4c0-1,0.9-1.8,2-1.8s2,0.8,2,1.8c0,0.6-0.3,1.1-0.8,1.4h3.8c0.8,0,1.5-0.7,1.5-1.5v-3.8
	c-0.3,0.5-0.8,0.8-1.4,0.8c-1,0-1.8-0.9-1.8-2S466.4,197.8,467.4,197.8z"/>
<path class="st14" d="M470.2,211c-0.6,0-1.1,0.3-1.4,0.8v-4c0-0.8-0.7-1.5-1.5-1.5h-3.9c0.5-0.3,0.9-0.8,0.9-1.4c0-1-0.9-1.8-2-1.8
	s-2,0.8-2,1.8c0,0.6,0.4,1.1,0.9,1.4h-3.9c-0.8,0-1.5,0.7-1.5,1.5v3.8c-0.3-0.5-0.8-0.8-1.4-0.8c-1,0-1.8,0.9-1.8,2s0.8,2,1.8,2
	c0.6,0,1.1-0.3,1.4-0.8v3.8c0,0.8,0.7,1.5,1.5,1.5h3.9c-0.5,0.3-0.9,0.8-0.9,1.4c0,1,0.9,1.8,2,1.8s2-0.8,2-1.8
	c0-0.6-0.4-1.1-0.9-1.4h3.9c0.8,0,1.5-0.7,1.5-1.5v-3.7c0.3,0.5,0.8,0.8,1.4,0.8c1,0,1.8-0.9,1.8-2S471.2,211,470.2,211z"/>
<path class="st16" d="M476.2,216.7c0,1.1-0.8,2-1.8,2c-0.6,0-1.1-0.3-1.4-0.8v3.8c0,0.8,0.7,1.5,1.5,1.5h10c0.8,0,1.5-0.7,1.5-1.5
	v-10c0-0.8-0.7-1.5-1.5-1.5h-3.8c0.5,0.3,0.8,0.8,0.8,1.4c0,1-0.9,1.8-2,1.8c-1.1,0-2-0.8-2-1.8c0-0.6,0.3-1.1,0.8-1.4h-3.8
	c-0.8,0-1.5,0.7-1.5,1.5v3.8c0.3-0.5,0.8-0.8,1.4-0.8C475.4,214.7,476.2,215.6,476.2,216.7z"/>
<path class="st18" d="M424.9,273.6c0,0-1.8-1.8-1.8-1.8c0.5,0.4-3.4-2.9-6.1-4.8c-7.8-5.4-7.8-8.8-7.3-9.2c1.7-1.7,7.1,1.1,11.7,4
	c1.6,1.1,1.5,1.3,2,0.9c0.3-0.2-0.4-1.5-0.9-2.9c-0.4-1.3-0.7-2.6,0.2-2.9c0.4-0.2,0.9,0.4,1.4,1.3c0.8,1.4,1.6,3.8,2.5,6.1
	c1.5,3.9-0.3,5.3-0.3,5.3l1.5,1.5L424.9,273.6z"/>
<path class="st6" d="M478.4,326.5c-10,4.5-19.4,16.6-19.4,16.6c-9.5-0.3-15.3-5.4-23.8-10.8c-8.5-5.4-17.1-10.5-17.9-11
	c-0.8-0.5-33.2,31.5-33.2,31.5c-2.9,0.3-8-2-8.7-2.8c0,0,5.5-8.5,12.8-17.4c7.3-8.9,21.6-28.3,27.6-28.4c6-0.1,36.3,12,36.3,12
	l1.1-4.1c4.8,1.3,16.8,0.8,23.5,0.3c-0.1,0.6-0.2,1-0.2,1.2C476.5,314.2,478.4,326.5,478.4,326.5z"/>
<path class="st7" d="M480.1,286c0.4,2.9-0.6,15.1-2.3,21.6c-0.4,1.6-0.9,3.6-1.1,4.8c-0.1,0.6-0.2,1-0.2,1.2c0,0.2,0.3,2.1,0.6,4.3
	c-7.5-0.1-17.8-1.4-21.3-2.2c-0.8-0.2-1.9-0.8-3.1-1.7l0.5-1.9c0,0,0.1-1.8-0.2-8c-0.1-2.8-0.7-6.1-0.7-6.1
	c-2.7-2.8-2.4-6.9-2.4-6.9s-6.9,4.9-9.2,5.1c-2.3,0.3-18.2-22.3-18.2-22.3c2-3.1,5.6-5.3,5.6-5.3c3.6,5.8,13.2,16.8,13.2,16.8
	s7.1-4,13.5-10.2c6.6-6.3,11.4-5.1,11.4-5.1c0,0,4.2,1.1,4.2,1.1s4.8-0.1,4.7-1.3c0,0,0,0,0,0c0.4,1.1,0.9,2,1.4,3.4
	c-0.1-0.3,0-3.8,0.9-6.7c3,4.9,13.2,21.7,15.9,29.6C481.8,294.6,480.3,286.9,480.1,286z"/>
<path class="st12" d="M495.6,296.4c-0.6-0.1-1.3-0.1-1.9-0.2c-9.4-1.2-15.8-5.3-16.9-22.9c0-0.1,0-0.1,0-0.2c-0.1-0.9,0.1-3.9,1-6.5
	c0.2-0.6,0.4-1.1,0.7-1.7c3.8-7.7,2.8-8.4,2.8-8.4c-2.5,3.9-7,5.6-7,5.6l-0.5,1.5c0,0-2.2-3-2.1-5c0.1-0.7,3.5-2.2,2.2-4.1
	c-0.7-1-3.4,0.9-3.4,0.9s-1.1-0.9-0.3-2.8c0.8-1.9-2.6-1.1-4.7-2.5c-3.4-2.3-3.8-3.8-3.8-3.8l-1,1.6c0,0-3.1-1.9-3-5
	c0.1-3,2.4-6.8,7.2-6.1c4.9,0.7,6.2,2.1,6.5,2c0.3-0.1,3.1-1.8,6.2-0.3c3,1.6,2.9,3.5,2.9,3.5s1.8,0.6,2.4,3.3l0.4,0.1
	c6-8,16.4-2,17.6,2c0.9,3.3-0.9,9,4,10.3c4.9,1.3,12.4,4.8,12.9,17.1C518.2,287.4,510,297.4,495.6,296.4z"/>
</svg>
