
<svg version="1.1" id="Layer_4" xmlns="http://www.w3.org/2000/svg" xmlns:xlink="http://www.w3.org/1999/xlink" x="0px" y="0px"
	 viewBox="0 0 600 530" style="enable-background:new 0 0 600 530;" xml:space="preserve">
<style type="text/css">
	.st0{fill:#E5E5E5;}
	.st1{fill:none;stroke:#E5E5E5;stroke-width:0.25;stroke-miterlimit:10;}
	.st2{fill:#F4F4F4;}
	.st3{fill:#EAEAEA;}
	.st4{fill:#EDBCDA;}
	.st5{fill:#9B84C1;}
	.st6{fill:#EDEDED;}
	.st7{fill:#DBDBDB;}
	.st8{fill:#EFEFEF;}
	.st9{fill:#FFFFFF;}
	.st10{fill:#99CFF8;}
	.st11{fill:#D0E7F4;}
	.st12{fill:#F2F2F2;}
	.st13{fill:#EFD1C7;}
	.st14{fill:#363636;}
	.st15{fill:#E01D85;}
	.st16{fill:#50208F;}
	.st17{opacity:0.2;fill:#3D3D75;}
</style>
<path class="st0" d="M138.8,385.8c1.2-18.8,14.5-49.8,5.6-49.8c-3.5,0-5.5,18.5-5.9,12.8s5.9-45.2-3.2-44.6
	c-4,0.2-0.4,22.8-3.3,22.1c-4-1-1.4-7.2-4.7-8.3c-9.5-3.1,1.7,40.8,0,40.9c-1.4,0.1-4.3-16.8-10.6-11.9c-5.8,4.6,7.5,17.3,7.6,36.8
	C124.5,389.8,138.7,387.7,138.8,385.8z"/>
<rect x="447.5" y="210.1" class="st1" width="69.5" height="69.5"/>
<path class="st2" d="M217.2,192.8l17.4-38.6c0,0,1,5.3,2.4,4.8c1.4-0.6,4-4.6,5.9-4.8s16.5-5.9,16.5-5.9s2,3.1,2.3,3.5
	c0.3,0.4,2.1,1.6,2.1,1.6l1.4,2.8c0,0,2,2.5,2,3c0,0.5,0,16.3,0,16.3s-18.2,0.6-22.5,0.6C240.5,176.2,217.2,192.8,217.2,192.8z
	 M291.4,186.2c0,0,2.5-16.2,2-16.4c-0.5-0.1-4.5,8.6-5.2,9.6s-1.8,5-2,6.8c-0.3,1.7-3,5.6-3,5.6L291.4,186.2z M305.2,165.5
	c-0.4,0.6,7.1,13.2,7.1,13.2l7.9,1.3l5.2-17.3c0,0,0.3-8.1,0-9.3c-0.3-1.3,0-1.4-1.8-3c-0.4-0.4-1.3-2.7-1.3-2.7s-1.1-0.3-1.5,0
	c-0.4,0.3-1.4,2.9-1.5,3.6c-0.1,0.8-1,5.2-1.4,6.2c-0.4,1-1.8-2-1.8-2.4s-1-5.3-2-6.7c-1-1.4-5.3-0.4-5.3-0.4
	S305.6,164.8,305.2,165.5z M336.5,179c-0.3,1.5,4.7,5.7,5.2,6.4c0.5,0.8,19.3,6.4,19.3,6.4s-0.4-1.7-0.9-1.7c-0.4,0-2.8-1.4-2.8-1.4
	s-1.9-6.4-2.4-7.1c-0.5-0.8-2.3-3-2.6-3.8c-0.4-0.8-2.1-2.1-2.1-2.1s-0.6-5.3-0.8-6.3c-0.1-1-1.6-1.9-2.5-3.4
	c-0.9-1.5-1.9-10.3-1.9-10.3s-1.5-1.9-1.9-2.2c-0.4-0.3-2.1-5.1-2.1-5.1s-4-0.3-5.1,0s-1.8,14-1.8,14.7
	C334,163.1,336.8,177.4,336.5,179z M380.7,187.9c-0.1,0.5,7.2,2.3,7.2,2.3l0.8-3.9c0,0-2.3-0.5-3.5-1.4c-1.3-0.9-1.3-2.9-1.4-3.5
	c-0.1-0.6-0.8-12.5-0.9-13.9s-1-9.1-1.3-9.8s-0.7-0.1-1.3,0c-0.6,0.1-1,3-1.1,3.5c-0.1,0.5-0.8,6.2-0.9,7.1c-0.1,0.9-1.5,2-1.6,2.3
	s-0.5,5.5-0.5,5.5S380.8,187.4,380.7,187.9z M217.2,231l17.4-17.3c0,0,1,2.4,2.4,2.1s4-2.1,5.9-2.1s16.5-2.7,16.5-2.7s2,1.4,2.3,1.6
	c0.3,0.2,2.1,0.7,2.1,0.7l1.4,1.2c0,0,2,1.1,2,1.4s0,7.3,0,7.3s-18.2,0.3-22.5,0.3C240.5,223.6,217.2,231,217.2,231z M291.4,228.1
	c0,0,2.5-7.3,2-7.3c-0.5-0.1-4.5,3.8-5.2,4.3s-1.8,2.3-2,3c-0.3,0.8-3,2.5-3,2.5L291.4,228.1z M305.2,218.8
	c-0.4,0.3,7.1,5.9,7.1,5.9l7.9,0.6l5.2-7.7c0,0,0.3-3.6,0-4.2c-0.3-0.6,0-0.6-1.8-1.4c-0.4-0.2-1.3-1.2-1.3-1.2s-1.1-0.1-1.5,0
	c-0.4,0.1-1.4,1.3-1.5,1.6c-0.1,0.3-1,2.3-1.4,2.8c-0.4,0.5-1.8-0.9-1.8-1.1s-1-2.4-2-3c-1-0.6-5.3-0.2-5.3-0.2
	S305.6,218.5,305.2,218.8z M336.5,224.8c-0.3,0.7,4.7,2.5,5.2,2.9c0.5,0.3,19.3,2.9,19.3,2.9s-0.4-0.8-0.9-0.7
	c-0.4,0-2.8-0.6-2.8-0.6s-1.9-2.9-2.4-3.2c-0.5-0.3-2.3-1.4-2.6-1.7c-0.4-0.3-2.1-1-2.1-1s-0.6-2.4-0.8-2.8
	c-0.1-0.5-1.6-0.8-2.5-1.5c-0.9-0.7-1.9-4.6-1.9-4.6s-1.5-0.9-1.9-1c-0.4-0.1-2.1-2.3-2.1-2.3s-4-0.1-5.1,0
	c-1.1,0.1-1.8,6.3-1.8,6.6C334,217.7,336.8,224.1,336.5,224.8z M380.7,228.8c-0.1,0.2,7.2,1,7.2,1l0.8-1.8c0,0-2.3-0.2-3.5-0.6
	c-1.3-0.4-1.3-1.3-1.4-1.6c-0.1-0.3-0.8-5.6-0.9-6.2s-1-4.1-1.3-4.4s-0.7-0.1-1.3,0s-1,1.4-1.1,1.6s-0.8,2.8-0.9,3.2
	c-0.1,0.4-1.5,0.9-1.6,1.1s-0.5,2.5-0.5,2.5S380.8,228.6,380.7,228.8z"/>
<path class="st2" d="M457.2,256.3h-2.9v-3.7h2.9V256.3z M467.3,216.9h-7.5v3.7h7.5V216.9z M467.3,225.8h-7.5v3.7h7.5V225.8z
	 M466.5,243.7h-3v3.7h3V243.7z M462.8,261.6h-2.2v3.7h2.2V261.6z M465.8,271.1h-0.9v3.7h0.9V271.1z M478.6,252.4H471v3.7h7.5V252.4z
	 M505.6,243.4h-22.1v3.7h22.1V243.4z M509.9,225.8h-1.4v3.7h1.4V225.8z"/>
<path class="st3" d="M388.9,193.3v-4.5c0,0-3.6-0.4-5.3-0.4s-1.5-7.6-2.1-10.6c-0.6-3-1.3-5.9-2.1-6.2s-3.8,3.2-4.2,4.4
	c-0.4,1.1-1.1,12.1-1.5,14c-0.4,1.9-4.9,0-7.2,0s-6.2,0.9-8.3,0.8c-2.1-0.2-5.9-6.1-7.4-8.1s-3.4-8.5-3.4-10.2s-3-7.9-4-10
	s-2.1-7.8-2.3-9.1s-2.3-2.5-4.2-2.3c-1.9,0.2-2.1,5.3-2.5,7c-0.4,1.7-1.9,5.9-2.5,7.4c-0.6,1.5-1.5,9.8-1.5,12.3s-0.6,13.2-1.5,13.8
	c-0.9,0.6-1.5-9.3-2.1-11s0-16.8,0-18.4c0-1.5-1.9-1.7-2.8-2.5c-0.9-0.8-2.3-5.5-2.6-6.4c-0.4-0.9-1.7,3.8-1.7,8.3
	s-1.3,14.8-1.9,15.1s-2.3-12.3-2.3-14s-3.2-6.1-3.2-6.1l-1.5-8.1l-4.7-0.2c0,0-1.7,1.3-2.3,1.5c-0.6,0.2-2.5-1.1-2.5-1.1
	s-4-0.6-5.1-0.2c-1.1,0.4-1.9,3.2-2.3,4.4s-3.2,7.8-3.4,9.7c-0.2,1.9-1.1,22-2.3,24.8c-1.1,2.8-7,4.2-7,4.2s-2.8-1.7-3.4-1.9
	c-0.6-0.2-4.2-1.3-4.9-1.1c-0.8,0.2-3.4,2.3-3.4,2.3s-1.9-15.5-1.9-18.7s-6.1-5.9-6.8-6.4c-0.8-0.6-0.9-15.9-1.7-17.4
	c-0.8-1.5-15.1,0-15.1,0l-1.3,1.3l-2.3,1.1l-3.2,12.7c0,0-1.7-3.4-1.9-4.4c-0.2-0.9-2.1-10.8-2.1-10.8h-2.5l-3,2.1V148H218l-1.7,6.6
	l-1.5,1.3c0,0-1.1,3.2-1.1,4s-2.1,25.2-2.1,25.2h-1.7l-3,3c0,0-3.4,1.7-4,1.9c-0.6,0.2-2.6,3.2-2.6,3.2H388.9z M200.2,231.5
	c0,0,2.1-1.1,2.6-1.1c0.6-0.1,4-0.7,4-0.7l3-1.1h1.7c0,0,2.1-8.5,2.1-8.7c0-0.3,1.1-1.4,1.1-1.4l1.5-0.5l1.7-2.3h9.8v0.7l3-0.7h2.5
	c0,0,1.9,3.4,2.1,3.7c0.2,0.3,1.9,1.5,1.9,1.5l3.2-4.4l2.3-0.4l1.3-0.5c0,0,14.4-0.5,15.1,0c0.8,0.5,0.9,5.8,1.7,6
	c0.8,0.2,6.8,1.1,6.8,2.2s1.9,6.5,1.9,6.5s2.6-0.7,3.4-0.8c0.8-0.1,4.4,0.3,4.9,0.4c0.6,0.1,3.4,0.7,3.4,0.7s5.9-0.5,7-1.4
	c1.1-1,2.1-7.9,2.3-8.6s3-3,3.4-3.4c0.4-0.4,1.1-1.4,2.3-1.5c1.1-0.1,5.1,0.1,5.1,0.1s1.9,0.5,2.5,0.4c0.6-0.1,2.3-0.5,2.3-0.5
	l4.7,0.1l1.5,2.8c0,0,3.2,1.5,3.2,2.1s1.7,5,2.3,4.9c0.6-0.1,1.9-3.7,1.9-5.3c0-1.6,1.3-3.2,1.7-2.9c0.4,0.3,1.7,2,2.6,2.2
	c0.9,0.3,2.8,0.3,2.8,0.9s-0.6,5.8,0,6.4s1.1,4,2.1,3.8c0.9-0.2,1.5-3.9,1.5-4.8s0.9-3.7,1.5-4.3c0.6-0.5,2.1-2,2.5-2.6
	c0.4-0.6,0.6-2.4,2.5-2.4s4,0.3,4.2,0.8c0.2,0.5,1.3,2.4,2.3,3.2s4,2.9,4,3.5s1.9,2.8,3.4,3.5s5.3,2.8,7.4,2.8
	c2.1,0.1,6.1-0.3,8.3-0.3s6.8,0.7,7.2,0c0.4-0.7,1.1-4.5,1.5-4.9c0.4-0.4,3.4-1.6,4.2-1.5s1.5,1.1,2.1,2.2c0.6,1.1,0.4,3.7,2.1,3.7
	s5.3,0.1,5.3,0.1v1.6H200.2z M457.5,220.8h-3.6v-3.7h3.6V220.8z M457.5,226.1h-3.6v3.7h3.6V226.1z M457.5,261.9h-2.1v3.7h2.1V261.9z
	 M467.6,235h-7.5v3.7h7.5V235z M467.2,252.9h-3v3.7h3V252.9z M466.8,261.9h-2.2v3.7h2.2V261.9z M463.5,244h-3v3.7h3V244z
	 M462.5,271.4h-0.9v3.7h0.9V271.4z M479.3,217.2h-7.5v3.7h7.5V217.2z M479.3,235h-7.5v3.7h7.5V235z M479.3,243.7h-7.5v3.7h7.5V243.7
	z M479.3,261.6h-7.5v3.7h7.5V261.6z M506.3,226.1h-22.1v3.7h22.1V226.1z M510.6,217.2h-1.4v3.7h1.4V217.2z M510.6,252.7h-1.4v3.7
	h1.4V252.7z M510.6,269.5h-0.5v3.7h0.5V269.5z"/>
<path id="path4823_5_"  class="st4" d="M492.5,289.6c-0.4-0.2-0.9,0-1.1,0.4l-1.2,2.2
	c-1.2-0.3-1.9-0.4-3.2-0.2l-1-2.3c-0.2-0.4-0.6-0.7-1.1-0.5l-2.5,0.9c-0.4,0.2-0.7,0.6-0.5,1.1l0.7,2.5c-1.1,0.7-1.6,1.2-2.4,2.1
	l-2.3-1c-0.4-0.2-0.9,0-1.1,0.4l-1.1,2.4c-0.2,0.4,0,0.9,0.4,1.1l2.2,1.2c-0.3,1.2-0.4,1.9-0.2,3.2l-2.3,1c-0.4,0.2-0.7,0.6-0.5,1.1
	l0.9,2.5c0.2,0.4,0.6,0.6,1.1,0.5l2.5-0.7c0.7,1.1,1.2,1.6,2.1,2.4l-1,2.3c-0.2,0.4,0,0.9,0.4,1.1l2.4,1.1c0.4,0.2,0.9,0,1.1-0.4
	l1.2-2.2c1.2,0.3,1.9,0.4,3.2,0.2l1,2.3c0.2,0.4,0.6,0.7,1.1,0.5l2.5-0.9c0.4-0.2,0.7-0.6,0.5-1.1l-0.7-2.5c1.1-0.7,1.6-1.2,2.4-2.1
	l2.3,1c0.4,0.2,0.9,0,1.1-0.4l1.1-2.4c0.2-0.4,0-0.9-0.4-1.1l-2.2-1.2c0.3-1.2,0.4-1.9,0.2-3.2l2.3-1c0.4-0.2,0.7-0.6,0.5-1.1
	l-0.9-2.5c-0.2-0.4-0.6-0.7-1.1-0.5l-2.5,0.7c-0.7-1.1-1.2-1.6-2.1-2.4l1-2.3c0.2-0.4,0-0.9-0.4-1.1L492.5,289.6z M490.9,296
	c3.3,1.6,4.8,5.6,3.2,9c-1.6,3.3-5.6,4.8-9,3.2c-3.3-1.6-4.8-5.6-3.2-9c0,0,0,0,0,0C483.5,295.8,487.5,294.4,490.9,296z"/>
<path id="path4823_4_"  class="st5" d="M504.2,312.9c-0.3-0.2-0.7,0-0.9,0.3l-0.9,1.7
	c-0.9-0.2-1.5-0.3-2.4-0.2l-0.8-1.8c-0.1-0.3-0.5-0.5-0.8-0.4l-1.9,0.7c-0.3,0.1-0.5,0.5-0.4,0.8l0.5,1.9c-0.8,0.5-1.2,0.9-1.8,1.6
	l-1.8-0.7c-0.3-0.1-0.7,0-0.9,0.3l-0.9,1.8c-0.2,0.3,0,0.7,0.3,0.9l1.7,0.9c-0.2,0.9-0.3,1.5-0.2,2.4l-1.8,0.8
	c-0.3,0.1-0.5,0.5-0.4,0.8l0.7,1.9c0.1,0.3,0.5,0.5,0.8,0.4l1.9-0.5c0.5,0.8,0.9,1.2,1.6,1.8l-0.7,1.8c-0.1,0.3,0,0.7,0.3,0.9
	l1.8,0.9c0.3,0.2,0.7,0,0.9-0.3l0.9-1.7c0.9,0.2,1.5,0.3,2.4,0.2l0.8,1.8c0.1,0.3,0.5,0.5,0.8,0.4l1.9-0.7c0.3-0.1,0.5-0.5,0.4-0.8
	l-0.5-1.9c0.8-0.5,1.2-0.9,1.8-1.6l1.8,0.7c0.3,0.1,0.7,0,0.9-0.3l0.9-1.8c0.2-0.3,0-0.7-0.3-0.9l-1.7-0.9c0.2-0.9,0.3-1.5,0.2-2.4
	l1.8-0.8c0.3-0.1,0.5-0.5,0.4-0.8l-0.7-1.9c-0.1-0.3-0.5-0.5-0.8-0.4l-1.9,0.5c-0.5-0.8-0.9-1.2-1.6-1.8l0.7-1.8
	c0.1-0.3,0-0.7-0.3-0.9L504.2,312.9z M503,317.7c2.5,1.2,3.6,4.2,2.4,6.8c-1.2,2.5-4.2,3.6-6.8,2.4s-3.6-4.2-2.4-6.8c0,0,0,0,0,0
	C497.5,317.5,500.5,316.5,503,317.7z"/>
<path class="st6" d="M397.5,112.1c-0.1,0-0.1-0.1-0.1-0.1h-206c-0.1,0.1-0.2,0.1-0.3,0.1c-0.1,0.1-0.2,0.2-0.3,0.3
	c-0.7,0.4-1,1.1-1.4,1.8V125h210.2v-11.1C399,113.2,398.4,112.5,397.5,112.1z"/>
<path class="st1" d="M399.7,188.2v-73.3c0-1.6-1.3-2.9-2.9-2.9H192.4c-1.6,0-2.9,1.3-2.9,2.9v135.6h210.2V188.2z"/>
<circle class="st7" cx="374.1" cy="118.5" r="1.8"/>
<circle class="st7" cx="382.9" cy="118.5" r="1.8"/>
<circle class="st7" cx="391.7" cy="118.5" r="1.8"/>
<path class="st7" d="M232,231.5c0,0,1.9-1.8,2.3-3.2s2.4-7.8,3.4-7.3s3.2,9.3,4.4,9.5c1.3,0.2,6.3,1,6.3,1H232z M269.5,231.5
	c0,0-2.3-4-3.9-5.2s-1.4-4.2-2-5.2c-0.6-1-1.8,3-2.3,5.2c-0.5,2.2-2.1,5.2-2.1,5.2H269.5z M293.4,231.5c0,0-2-4.8-2.4-5.3
	c-0.4-0.5-1.6,1.7-2.6,2c-1,0.3-2.8,3.3-2.8,3.3H293.4z M361,231.5c0,0-3.9-2.3-5.2-2.7c-1.3-0.4-3.2-0.8-4.5,0s-6.7-2.5-6.7-2.5
	l-3.2,2.5c0,0-5.7-0.1-7.8,0c-2.1,0.1-3.8,1-4.8,1.5c-1,0.5-3-0.7-4.9-1.5s-3.3-1.9-4.7-2.7s-3-2.7-3.7-3.2s-2.9,3.8-3.3,5.1
	c-0.4,1.3-1.6,3.5-1.6,3.5H361z M388.6,231.5v-2.7h-12l-2.3,2.7H388.6z M457.5,238.7h-3.6V235h3.6V238.7z M457.5,244h-2.9v3.7h2.9
	V244z M463.5,252.9h-3v3.7h3V252.9z M479.3,226.1h-7.5v3.7h7.5V226.1z M506.3,217.2h-22.1v3.7h22.1V217.2z M506.3,235h-22.1v3.7
	h22.1V235z M506.3,252.7h-22.1v3.7h22.1V252.7z M506.3,261.6h-22.1v3.7h22.1V261.6z M510.6,235h-1.4v3.7h1.4V235z M510.6,243.7h-1.4
	v3.7h1.4V243.7z M510.6,261.6h-1.4v3.7h1.4V261.6z M232,193.3c0,0,1.9-1.4,2.3-2.4s2.4-5.9,3.4-5.6s3.2,7.1,4.4,7.2
	c1.3,0.1,6.3,0.8,6.3,0.8H232z M269.5,193.3c0,0-2.3-3-3.9-4c-1.6-1-1.4-3.2-2-4s-1.8,2.3-2.3,4c-0.5,1.7-2.1,4-2.1,4H269.5z
	 M293.4,193.3c0,0-2-3.7-2.4-4c-0.4-0.4-1.6,1.3-2.6,1.5c-1,0.3-2.8,2.5-2.8,2.5H293.4z M361,193.3c0,0-3.9-1.8-5.2-2.1
	c-1.3-0.3-3.2-0.6-4.5,0s-6.7-1.9-6.7-1.9l-3.2,1.9c0,0-5.7-0.1-7.8,0c-2.1,0.1-3.8,0.8-4.8,1.2c-1,0.4-3-0.5-4.9-1.2
	s-3.3-1.5-4.7-2.1c-1.4-0.6-3-2.1-3.7-2.5s-2.9,2.9-3.3,3.9c-0.4,1-1.6,2.6-1.6,2.6H361z M388.6,193.3v-2.1h-12l-2.3,2.1H388.6z"/>
<ellipse class="st3" cx="295.1" cy="406.1" rx="233.9" ry="19.9"/>
<path class="st0" d="M460,373.6c0,0,10.6-32,5.1-36.8c-3.7-3.3-1.7,3.1-4.5,2c-3.1-1.2,2.8-37.5-4-37.5c-4.9,0-3.1,18.5-4.7,17
	c-1.7-1.6-0.4-10.9-3.5-7.3c-3.4,4,0.4,24.7-1.7,24.8c-1.7,0.1-3-19.8-5.6-14.4s-1.5,44.5,3.5,49.6S460,373.6,460,373.6z"/>
<path class="st7" d="M437.8,357.2h28.9c0,0,4.8,17.6,4.6,26.2c-0.2,8.7-3.2,16-16.6,16.5c-23.4,0.8-23.4-8.6-23.4-16
	C431.2,372,437.8,357.2,437.8,357.2z"/>
<path class="st7" d="M118.2,379.3h27c0,0,8,4,8.1,13.5c0,7.5-14.9,8.6-19.6,8.6c-10.3,0-24.8-0.6-24.7-8.5
	C108.9,381.7,118.2,379.3,118.2,379.3z"/>
<path class="st8" d="M64.7,374.7h56.6c0,0,0,29.6-28.3,29.6S64.7,374.7,64.7,374.7z"/>
<path class="st8" d="M98.1,384.2c12.6-6.6,32.8-33.6,24.5-37.7c-8.3-4-14,5-15.5-0.2s13.8-14.9,7.3-20.8c-5.6-5.1-8.9,3-10.5,1.7
	c-4.8-4.2,11-30-2.2-35s-21.9,3.2-21.4,14.5c0.4,7.6,2.9,19.3-0.8,19c-2.4-0.2-3.7-10.5-9.8-10.4c-7.9,0.2-13.3,14-1.8,22.4
	c9,6.7,13.1,18.4,9.2,15.7c-4.1-2.9-9.4-4.3-12.1-0.5c-2.7,3.7,4.4,16.2,12.4,25.4S93.3,386.7,98.1,384.2z"/>
<path class="st9" d="M102.6,367.9c1.4-1.8,5.6-9.8,5.6-9.8s-6.9,6.1-8.9,7.8c-1.4,1.2-4,6.2-5.4,8.9c0-4.8-0.2-12.9-0.1-19.5
	c1.5-2.6,4.2-6.9,4.9-7.9c1.1-1.6,4.5-12.7,4.5-12.7s-6.6,10.6-7.3,12.1c-0.3,0.7-1.6,4.6-2.2,6.8c0.1-3.9,0.4-33.3,0.4-33.3
	s1.6-4.4,1.7-6.6c0-1.8-0.8-12.2-0.8-12.2s-1.7,8.7-2.2,11.7c-0.8,4.8,0.7,6.9,0.7,6.9c-0.3,8.3-0.7,24.2-0.6,28.4
	c0,1.4,0.1,3.4,0.1,5.6c0,0-2.6-9-4.7-10.9c-2.2-1.9-12.3-13.8-12.3-13.8l6.6,11.2l10.5,13.5c0.1,6.9,0.3,16.5,0.3,21.3
	c-2.5-3.4-6.2-8.3-8.1-10c-3-2.8-8.7-7-8.7-7s6.6,6.3,7.4,7.8c0.5,1,6.1,6.8,9.5,10.2c0,1.2,0,2,0,2l1,0.2c0,0,0-0.5,0-1.2
	c0.9,0.9,1.4,1.4,1.4,1.4s-0.6-0.8-1.4-2c0-0.4,0-0.9,0-1.4L102.6,367.9z"/>
<path class="st8" d="M508.8,364.5c-2.4-6.3-7.8,7.4-10.2,7.3c-2.4,0-0.4-2.8,1.6-5.5c2-2.8,3.8-8.6,1.4-12.2
	c-4.2-6.5-3.8,4.1-6.9,6.3c-1.8,1.3-3.4,4.6-3.5,0.4c-0.1-4.1,7.2-7.5,4.8-13.6c-2.5-6.1-4-8-5.5-6.4c-1.4,1.6,0,11.8-4.1,10.1
	c-2.4-0.9,2.2-14.2-0.3-13.4c-2.5,0.8-6.2,5.2-6.9,9.7c-0.6,4.5,1.7,8.6-0.7,8.6c-2.4,0-1.9-6.5-1.7-8.7c0.3-2.2,2.6-6.2-0.4-4.4
	c-3,1.8-5.3,3.6-4.3,11.3c1,7.7,4.9,7.8,5.4,11.5c0.3,2.2-2.1,1.7-4.9-1.9c-1.7-2.2-1.4-3.3-3.1-5.2c-1.2-1.3-8.5-2-3.5,18.3
	c4.2,16.9,21.2,28,21.2,28c3.7-0.1,13.8-15.9,13.8-15.9C501.5,388.3,511.2,370.8,508.8,364.5z M474.1,354.1
	c-0.4-0.3-1.5-5.8-0.1-4.9C475.4,350.1,476.3,356.1,474.1,354.1z M476,376.3c-5,3.7-7.8-13.1-2.3-7.6C473.7,368.6,479,374,476,376.3
	z M483.1,346.5c2.1,4.8,1.5,13,0.3,10c-1.2-3-1.1-5.2-1.1-5.2S481,341.7,483.1,346.5z M484,370.5c-2.2-4.7-0.6-10.3,0.5-7.6
	C485.2,364.7,486.1,375.2,484,370.5z M492.5,348c1.1,2.9-1.6,10.5-3.1,6.6C489.5,354.7,491.5,345.2,492.5,348z M488.5,378.3
	c0.1-2.4,4.7-11.4,5.5-7.6C494.8,374.5,488.4,381.2,488.5,378.3z M496,362.4c0,0,3.9-8.7,3.8-3.6C499.5,363.9,495.4,367.5,496,362.4
	z M503.8,375.8c-0.7,1.2-1.3,3-4,3.5c-2.8,0.5,3.5-9,6.2-10.6C508.6,367,504,375.5,503.8,375.8z"/>
<polygon class="st5" points="191.6,352.8 225.2,352.8 316.6,202 285,202 "/>
<polygon class="st4" points="361.2,285.6 327.6,285.6 285,202 316.6,202 "/>
<polygon class="st5" points="438.3,171.8 423.7,129.4 373.6,171.8 390.5,171.8 327.7,285.6 361.3,285.6 422.7,171.8 "/>
<path class="st10" d="M276.6,403.5h-31.9v-79.5h31.9V403.5z M220.9,345.2H189v58.4h31.9V345.2z M329.8,298.3h-31.9v105.2h31.9V298.3
	z M383,264.4H351v139.2H383V264.4z M436.1,231.5h-31.9v172h31.9V231.5z M168.4,370h-31.9v33.5h31.9V370z"/>
<path class="st11" d="M165.5,171c-1.8-0.5-3.4-0.3-4.5,0c-0.2-0.9-0.6-1.9-1.6-2.8c-4.6-4-11.5-0.4-11.5-0.4s0.4-5.2-4.7-6.2
	c-4.1-0.8-5.8,1.5-5.8,1.5s1.2-6.7-4.3-9.1c-5.6-2.5-10.1,1.9-10.1,1.9c1.1-9.5-10.7-19.6-21.2-12.5c-10.5,7.2-4.3,24-4.3,24
	s-6.4-5.7-13-3c-3.7,1.5-4.8,4.5-5.2,6.8c-0.9-0.3-2-0.5-3.5-0.3c-4.9,0.6-9.9,3.5-9.9,3.5h13.4h1.4h72.1h8.1h10.7
	C171.4,174.4,168.9,172,165.5,171z"/>
<path class="st11" d="M511,146.9c4.9-1.6,9.7,3.6,9.7,3.6H443c9.8-5.7,15.4-3.1,15.4-3.1s0.9-5.5,6.9-7.3c7.1-2,9.2,3.8,9.2,3.8
	s1.9-10.7,12-11.8c10.1-1.1,12.3,9.5,12.4,9.2c0.1-0.4,3.1-3,6.8-2.6C513.2,139.5,511,146.9,511,146.9z"/>
<path class="st11" d="M467,192.5h-45.3c0,0,7.3-7,15-7.5s9.6,3.8,9.6,3.8s1.5-7.9,11.2-7.9s9.6,9.1,9.6,9.1s6.2-0.8,8.4,2.6H467z"/>
<path id="path4817"  class="st4" d="M145.9,216.3c-0.6,0.1-1,0.7-1,1.4l0.4,3.5
	c-1.6,0.7-2.5,1.2-3.8,2.4l-3.1-1.8c-0.5-0.4-1.3-0.2-1.6,0.3l-2.1,3c-0.4,0.5-0.2,1.3,0.3,1.6l2.8,2.2c-0.7,1.7-0.9,2.6-0.9,4.4
	l-3.5,0.8c-0.6,0.2-1.1,0.7-1,1.4l0.7,3.6c0.1,0.6,0.7,1,1.4,1l3.5-0.4c0.7,1.6,1.2,2.5,2.4,3.8l-1.8,3.1c-0.4,0.5-0.2,1.3,0.3,1.6
	l3,2.1c0.5,0.4,1.2,0.2,1.6-0.3l2.2-2.8c1.7,0.7,2.6,0.9,4.4,0.9l0.8,3.5c0.2,0.6,0.7,1.1,1.4,1l3.6-0.7c0.6-0.1,1-0.7,1-1.4
	l-0.4-3.5c1.6-0.7,2.5-1.2,3.8-2.4l3.1,1.8c0.5,0.4,1.3,0.2,1.6-0.3l2.1-3c0.4-0.5,0.2-1.3-0.3-1.6l-2.8-2.2
	c0.7-1.7,0.9-2.6,0.9-4.4l3.5-0.8c0.6-0.2,1.1-0.7,1-1.4l-0.7-3.6c-0.1-0.6-0.7-1-1.4-1l-3.5,0.4c-0.7-1.6-1.2-2.5-2.4-3.8l1.8-3.1
	c0.4-0.5,0.2-1.3-0.3-1.6l-3-2.1c-0.5-0.4-1.3-0.2-1.6,0.3l-2.2,2.8c-1.7-0.7-2.6-0.9-4.4-0.9l-0.8-3.5c-0.2-0.6-0.7-1.1-1.4-1
	L145.9,216.3z M149.4,224.8c5.1-0.9,10,2.5,10.9,7.6c0.9,5.1-2.5,10-7.6,10.9c-5.1,0.9-10-2.5-10.9-7.6c0,0,0,0,0,0
	C140.9,230.6,144.2,225.8,149.4,224.8z"/>
<path id="rect4764"  class="st4" d="M130.5,245.2c-0.8-0.1-1.4,0.5-1.6,1.2l-0.7,4.2
	c-2.1,0.2-3.2,0.5-5.1,1.4l-2.8-3.1c-0.5-0.6-1.4-0.7-2-0.2l-3.4,2.7c-0.6,0.5-0.7,1.4-0.2,2l2.4,3.5c-1.3,1.6-1.9,2.7-2.6,4.6
	l-4.2-0.3c-0.8-0.1-1.5,0.5-1.6,1.2l-0.5,4.3c-0.1,0.8,0.5,1.4,1.2,1.6l4.2,0.7c0.2,2.1,0.5,3.2,1.4,5.1l-3.1,2.8
	c-0.6,0.5-0.7,1.4-0.2,2l2.7,3.4c0.5,0.6,1.3,0.7,2,0.2l3.5-2.4c1.6,1.3,2.7,1.9,4.6,2.6l-0.3,4.2c-0.1,0.8,0.5,1.5,1.2,1.6l4.3,0.5
	c0.8,0.1,1.4-0.5,1.6-1.2l0.7-4.2c2.1-0.2,3.2-0.5,5.1-1.4l2.8,3.1c0.5,0.6,1.4,0.7,2,0.2l3.4-2.7c0.6-0.5,0.7-1.4,0.2-2l-2.4-3.5
	c1.3-1.6,1.9-2.7,2.6-4.6l4.2,0.3c0.8,0.1,1.5-0.5,1.6-1.2l0.5-4.3c0.1-0.8-0.5-1.4-1.2-1.6l-4.2-0.7c-0.2-2.1-0.5-3.2-1.4-5.1
	l3.1-2.8c0.6-0.5,0.7-1.4,0.2-2l-2.7-3.4c-0.5-0.6-1.4-0.7-2-0.2l-3.5,2.4c-1.6-1.3-2.7-1.9-4.6-2.6l0.3-4.2
	c0.1-0.8-0.5-1.5-1.2-1.6L130.5,245.2z M131.4,256c6.1,0.7,10.5,6.3,9.8,12.4c-0.7,6.1-6.3,10.5-12.4,9.8
	c-6.1-0.7-10.5-6.3-9.8-12.4c0,0,0,0,0,0C119.8,259.7,125.3,255.3,131.4,256z"/>
<path id="path4823" class="st5" d="M124.7,208.3c-0.5-0.2-1.1,0-1.4,0.5l-1.5,2.7
	c-1.5-0.4-2.3-0.4-3.9-0.3l-1.2-2.8c-0.2-0.5-0.8-0.8-1.3-0.6l-3,1.1c-0.5,0.2-0.8,0.8-0.6,1.3l0.8,3c-1.3,0.8-2,1.4-2.9,2.6
	l-2.9-1.2c-0.5-0.2-1.1,0-1.4,0.5L104,218c-0.2,0.5,0,1.1,0.5,1.4l2.7,1.5c-0.4,1.5-0.4,2.3-0.3,3.9l-2.8,1.2
	c-0.5,0.2-0.8,0.8-0.6,1.3l1.1,3c0.2,0.5,0.8,0.8,1.3,0.6l3-0.8c0.8,1.3,1.4,2,2.6,2.9l-1.2,2.9c-0.2,0.5,0,1.1,0.5,1.4l2.9,1.4
	c0.5,0.2,1.1,0,1.4-0.5l1.5-2.7c1.5,0.4,2.3,0.4,3.9,0.3l1.2,2.8c0.2,0.5,0.8,0.8,1.3,0.6l3-1.1c0.5-0.2,0.8-0.8,0.6-1.3l-0.8-3
	c1.3-0.8,2-1.4,2.9-2.6l2.9,1.2c0.5,0.2,1.1,0,1.4-0.5l1.4-2.9c0.2-0.5,0-1.1-0.5-1.4l-2.7-1.5c0.4-1.5,0.4-2.3,0.3-3.9l2.8-1.2
	c0.5-0.2,0.8-0.8,0.6-1.3l-1.1-3c-0.2-0.5-0.8-0.8-1.3-0.6l-3,0.8c-0.8-1.3-1.4-2-2.6-2.9l1.2-2.9c0.2-0.5,0-1.1-0.5-1.4
	L124.7,208.3z M122.7,216.1c4.1,2,5.8,6.9,3.8,10.9c-2,4.1-6.9,5.8-10.9,3.8c-4.1-2-5.8-6.9-3.8-10.9c0,0,0,0,0,0
	C113.8,215.8,118.6,214.1,122.7,216.1z"/>
<path class="st12" d="M467.7,382.9h37.2c0,0,11.1,5.3,11.2,18c0,10-20.6,11.4-27.1,11.4c-14.2,0-34.2-0.8-34.2-11.4
	C454.9,386.1,467.7,382.9,467.7,382.9z"/>
<path class="st13" d="M286.9,165.8c0,0-0.2-0.7-1-1.2c-0.8-0.4-1.4-0.1-1.4-0.1s-0.1-0.7-1.3-1c-1.2-0.3-1.5,0.3-1.5,0.3
	s-0.6-0.6-1.7-0.1c-0.7,0.3-1.9,4.4-1.9,4.4s-0.8,0.6-1,2.4c-0.2,1.8,0.4,3,0.4,3s0,0.2-0.1,0.4v0l0,0c-1-0.4-1.6-0.5-1.6-0.5
	s0,0,0,0c-0.4,0.8-6.4,13.6-11.6,19.7c0,0-5.4-4.8-7.5-9.1c-3.6-7.3-3.7-10.8-10.1-14.5c-0.5-0.3-0.8-0.4-0.8-0.4
	c-0.3-0.2-0.6-0.3-0.9-0.5l2.6-5.7c0,0,3,1.5,4.7,0.5c5-2.9,4.3-18,4.3-18s4.8-4,2.9-7.6c-1.9-3.6-7.2-0.6-11,0.3
	c-3.8,0.9-9.4-1.2-12.4,1.8c-3,3-0.7,7.1-0.6,7.5c0.1,0.4-0.7,6.2-0.1,8.8c0.7,2.9,3.3,3.5,3.3,3.5s-3,5.9-5.6,6.4
	c-3.6,1-10.4,3.4-16.8,5.9c-6.4,2.5-15.6,5.2-17.2,6.9c-4.1,4.1-5.2,23.5-6.9,31.7c0,0,0.3,0.1,0.8,0.2c0,0.1-0.1,0.1-0.1,0.2
	c-0.6,0.8-1.2,1.4-1.6,1.9c-1,1.3-2.4,4.4-2.6,6.5c-0.3,2.9,1.3,2.5,1.3,2.5s0.3,0.7,1.2,1c0.9,0.3,1.5-0.4,1.5-0.4s0.3,0.6,1.5,0.7
	c1.2,0.1,1.4-0.5,1.4-0.5s0.7,0.5,1.7-0.2c0.6-0.5,1.1-4.4,1.1-4.6c0,0,0.7-0.7,0.6-2.5c-0.1-1.8-1-2.8-1-2.8s0-0.4,0.1-0.8
	c0.5,0,0.8,0,1-0.1c0,0,5.3-23.2,6.6-24c0.8-0.5,11.6-2.5,17.4-4.1c-0.1,9.4-3.3,18.9-5.3,22.9c-0.1,0.1-0.1,0.3-0.1,0.5l0.5,0.4
	c-1.3,2.3-5.1,7.8-5.7,14.2c-4.3,9.9-11,27.2-14.4,44.4c0,0-7.3,9.9-9.9,22.4c-2.5,12.5,0.1,38.3,0.1,38.3h1.7v0.1
	c0,0-0.1,0.1-0.2,0.3c0,0,0,0-0.1,0.1c-0.7,1.2-2.8,4.4-2.9,5c-0.6,2.5,6.9,13.3,6.9,13.3h12.8c0-3.9-7.1-5.3-7.1-5.3l-1.6-7.7
	l-1.2-5.8h0.6c0,0-0.7-12.9,4.8-34.4c1-4,6.3-14.3,8.4-18.7c5.3-11.7,13.5-27.2,17.9-34.8c6.7,4.3,20.5,13.5,26.7,18.7
	c0,0-5.8,7.3-6,24.1c-0.3,20.6-0.1,33.1-0.1,33.1l0.7,0c0,0.4,0,0.8,0,1.4c-0.1,3-0.2,8.2,0,8.2c0.3,0,22.8,0,22.8,0
	s0.8-3.3-8.2-5.5c-6-1.6-8.2-2.4-8.2-2.4l-0.1-1.3v-0.1l1,0c0,0,0.3-15.4,5.9-34.4c4.8-16.3,8.4-24.1,8.1-27
	c-0.3-2.9-29.1-28.9-31.7-36.5l0.1-1.5l-0.9-2.6c0.1-0.3,0.5-0.5,1.1-1.7c0.8-1.4-0.2-4.6,0.9-6c2.1-2.6,8.2-6,9.8-8.4c0,0,0,0,0,0
	c0.1-0.2,0.3-0.4,0.3-0.6c0,0,9.4,10.7,13.7,10.2c4.3-0.5,13.3-17.8,18.3-29.5c-0.2-0.2-0.5-0.4-0.7-0.5c1-1.5,1.8-1.6,2.5-2.1
	c1.2-1.1,2.8-3.4,3.4-5.4C288.4,166,286.9,165.8,286.9,165.8z"/>
<path class="st14" d="M256.5,145.4c0,0-2.1,0.3-4-0.5c-1.9-0.7-2.6,0.5-4.7,2.1c-2.1,1.6-1.8,1.9-2.6,3c-0.7,1.2-1.1,2.4-1.1,2.4
	s-0.3-3.2-1.7-2.9c-1.4,0.3-2.3,2.4-1.8,3.8c0.5,1.4,2.3,1.1,2.3,1.1s-1.4,5.9-4.3,5.2c0,0-2.6-0.6-3.3-3.5
	c-0.6-2.6,0.1-8.4,0.1-8.8c-0.1-0.4-2.3-4.4,0.6-7.5c3-3,8.6-0.9,12.4-1.8c3.8-0.9,9.1-3.9,11-0.3
	C261.3,141.4,256.5,145.4,256.5,145.4z"/>
<path class="st15" d="M262.5,280.3c-5.5,19-5.9,34.4-5.9,34.4l-1,0v0.1l-6.4-0.3l-0.7,0c0,0-0.3-12.5,0.1-33.1
	c0.3-16.9,6-24.1,6-24.1c-11.9-8.1-20-14-26.7-18.3c-4.4,7.5-12.6,22.6-17.9,34.3c-2,4.5-7.3,14.8-8.4,18.7
	c-5.5,21.5-4.8,34.4-4.8,34.4h-8.9c0,0-2.6-25.9-0.1-38.3c2.6-12.5,9.9-22.4,9.9-22.4c3.4-17.2,10.1-34.4,14.4-44.4
	c0.6-6.4,3.3-11.4,5.7-14.2l1.2-0.8l0.5-0.1c0.1-0.1,0.1-0.7,0.2-0.8c1.2-1.2-0.2-1.2,0.2-1.4c1.2-0.4,14.9,6.5,19.3,9
	c-0.6,1.2-0.2,1.5-0.3,1.8l0,0.6l-0.3,1.3c2.9,3.4,31.4,33.5,31.7,36.5C270.9,256.3,267.3,264.1,262.5,280.3z"/>
<path class="st16" d="M282.4,176.8c-5,11.7-14,29-18.3,29.5c-4.3,0.5-13.7-10.2-13.7-10.2c-0.1,0.5-2.5,5.5-6.1,11
	c-1,1.5-2.8,5.1-3.7,6.6c-0.6,1.2-1.6,3.9-1.7,4.2c0,0-12.3-5-16.9-7.4c-3.8-2-5.2-2.7-5.1-2.8c1.9-4.4,4.3-14.7,5.9-24.3
	c-5.8,1.6-16.6,3.6-17.4,4.1c-1.3,0.8-6.6,24-6.6,24s-3.5,0-6.2-0.5c0.1,0,0.1-0.1,0.1-0.2c-0.5-0.1-0.8-0.2-0.8-0.2
	c1.7-8.2,2.8-27.6,6.9-31.7c3.3-3.3,27-10.7,34.1-12.8c0,0,2.6-0.9,4.4,0.7c1.2,1.1,3.9,5.4,5.5,5c0.9-0.2,1.9-3.3,1.9-3.3
	c8.2,4.1,8,7.6,11.8,15.4c2.1,4.3,7.5,9.1,7.5,9.1c5.2-6.1,11.3-18.9,11.6-19.7c0,0,0,0,0,0s0.6,0.1,1.6,0.5h0v0
	c1.1,0.4,2.6,1.2,4.3,2.4C282,176.4,282.2,176.6,282.4,176.8z"/>
<path class="st14" d="M206.2,345.2h-13c0,0-7.3-10.8-6.7-13.3c0.2-0.6,2.2-3.9,2.9-5c0.1,0,0.3-0.4,0.3-0.4s1.6,2.6,5.2,3.9
	c1.6,0.6,1.8-1.6,1.8-2.2l2.4,11.8C199.1,339.9,206.2,341.3,206.2,345.2z"/>
<path class="st14" d="M272.1,324c0,0-22.5,0-22.8,0c-0.2,0-0.1-5.2,0-8.2c0.5,0.3,4.3,2.9,5.9,2.7c1.6-0.3,0.6-2.5,0.6-2.5
	s2.1,0.9,8.2,2.4C272.9,320.8,272.1,324,272.1,324z"/>
<path class="st17" d="M272.1,324c0,0-22.5,0-22.8,0c-0.2,0-0.1-5.2,0-8.2c0-0.6,0-1,0-1.4l-0.7,0c0,0-0.3-12.5,0.1-33.1
	c0.3-16.9,6-24.1,6-24.1c-9.5-6.3-20-14-26.7-18.3c1.5-2.6,8.6-17.4,10.5-21.2l0.5,0.2l0.3-0.7c6.4,7.2,31.1,33.2,31.4,36.1
	c0.3,3-3.3,10.8-8.1,27c-5.5,19-5.9,34.4-5.9,34.4l-1,0v0.1l0.1,1.3c0,0,2.1,0.9,8.2,2.4C272.9,320.8,272.1,324,272.1,324z"/>
<path class="st17" d="M287.6,168.8c-0.6,2-2.2,4.3-3.4,5.4c-0.6,0.6-1.5,0.6-2.5,2.1c0.2,0.2,0.5,0.3,0.7,0.5
	c-5,11.7-14,29-18.3,29.5c-4.3,0.5-13.7-10.2-13.7-10.2c-0.1,0.2,3.7-8.9,2.2-15.1c-2-8.2-3.5-8.8-6.1-11.5
	c6.5,3.7,6.6,7.2,10.1,14.5c2.1,4.3,7.5,9.1,7.5,9.1c5.2-6.1,11.3-18.9,11.6-19.7c0,0,0,0,0,0s0.6,0.1,1.6,0.5l0,0v0
	c0.1-0.2,0.1-0.4,0.1-0.4s-0.6-1.2-0.4-3c0.2-1.7,1-2.4,1-2.4s1.2-4,1.9-4.4c1.1-0.5,1.7,0.1,1.7,0.1s0.3-0.6,1.5-0.3
	c1.2,0.3,1.3,1,1.3,1s0.6-0.3,1.4,0.1c0.8,0.5,1,1.2,1,1.2S288.4,166,287.6,168.8z"/>
</svg>
