<svg version="1.1" id="Layer_6_copy" xmlns="http://www.w3.org/2000/svg" xmlns:xlink="http://www.w3.org/1999/xlink" x="0px"
	 y="0px" viewBox="0 0 600 530" style="enable-background:new 0 0 600 530;" xml:space="preserve">
<style type="text/css">
	.st0{fill:#9B84C1;}
	.st1{fill:#E01D85;}
	.st2{opacity:0.2;fill:#3D3D75;}
	.st3{fill:#EFD1C7;}
	.st4{fill:#99CFF8;}
	.st5{fill:#EFEFEF;}
	.st6{fill:#F5C85C;}
	.st7{fill:#363636;}
	.st8{fill:#F4F4F4;}
	.st9{fill:#EDBCDA;}
	.st10{fill:#FFFFFF;}
	.st11{fill:none;stroke:#FFFFFF;stroke-width:0.35;stroke-linecap:round;stroke-linejoin:round;}
	.st12{fill:none;stroke:#FFFFFF;stroke-width:0.35;stroke-linecap:round;stroke-linejoin:round;stroke-dasharray:1.0016,1.0016;}
	.st13{fill:none;stroke:#FFFFFF;stroke-width:0.35;stroke-linecap:round;stroke-linejoin:round;stroke-dasharray:1.0039,1.0039;}
	.st14{fill:none;stroke:#FFFFFF;stroke-width:0.35;stroke-linecap:round;stroke-linejoin:round;stroke-dasharray:0.9948,0.9948;}
	.st15{fill:none;stroke:#FFFFFF;stroke-width:0.35;stroke-linecap:round;stroke-linejoin:round;stroke-dasharray:0.994,0.994;}
	.st16{fill:none;stroke:#FFFFFF;stroke-width:0.35;stroke-linecap:round;stroke-linejoin:round;stroke-dasharray:1.0046,1.0046;}
	.st17{fill:none;stroke:#FFFFFF;stroke-width:0.35;stroke-linecap:round;stroke-linejoin:round;stroke-dasharray:1.0083,1.0083;}
	.st18{fill:none;stroke:#FFFFFF;stroke-width:0.35;stroke-linecap:round;stroke-linejoin:round;stroke-dasharray:1.0062,1.0062;}
	.st19{fill:none;stroke:#FFFFFF;stroke-width:0.35;stroke-linecap:round;stroke-linejoin:round;stroke-dasharray:1.0041,1.0041;}
</style>
<ellipse class="st0" cx="311" cy="416.7" rx="166" ry="32.7"/>
<path class="st1" d="M361.7,379.2c0,0-2.4-12.9-12.6-13.4c-10.2-0.4-62.7,0.3-68.6,1s-18.5,4.5-19.7,6.8s27,20.2,28.5,21.8
	c1.5,1.6,14.6,7.6,20.2,6.7c5.6-0.9,22.9-10,25.9-10.7S361.7,379.2,361.7,379.2z"/>
<path class="st2" d="M361.7,379.2c0,0-2.4-12.9-12.6-13.4c-10.2-0.4-62.7,0.3-68.6,1s-18.5,4.5-19.7,6.8s27,20.2,28.5,21.8
	c1.5,1.6,14.6,7.6,20.2,6.7c5.6-0.9,22.9-10,25.9-10.7S361.7,379.2,361.7,379.2z"/>
<path class="st3" d="M381.6,428.2c-5,5-12.7,5.2-24.3,2.2c-11-2.9-14.9-5.8-14.9-5.8l-7-3l1-10.6c0,0,2.8-1.6,3.2-0.5
	c0.4,1,6.7,2,6.7,2s0,0,0.1,0c1.6,0,18.8,0.1,27.7,4.3C383.4,421.2,383,426.7,381.6,428.2z"/>
<path class="st1" d="M284.6,364.5l-13.5-1.3c0,0-14-4.8-24.8-2c-10.8,2.8-14.9,14.9,0.2,28.5s62.6,30.1,90.3,34.4
	c0,0,4.8-5.1,5.2-13.3L274,371.3L284.6,364.5z"/>
<path class="st3" d="M408,288c0,0,5.5-7.6,7.7-10.1c2.2-2.5,6.4-6.3,7.9-8.1c3.5-4.1,4-10.8,3.5-11.1c-0.5-0.3-4.7,0.8-5.9,3.1
	s-2.5,5.3-5.7,7c-3.3,1.7-6,4.2-7.6,4c-1.6-0.2-3.5-2.3-3.6-3.5c-0.1-1.2,0.5-4.5-0.5-5.9s-1.6-0.9-1.8-0.4
	c-0.2,0.4-2.1,3.8-1.7,6.5s-0.3,7.2-0.1,8.3c0.2,1.1,1,5.4,0,7.9C399.2,287.8,408,288,408,288z"/>
<path class="st3" d="M216.6,288c0,0-5.5-7.6-7.7-10.1c-2.2-2.5-6.4-6.3-7.9-8.1c-3.5-4.1-4-10.8-3.5-11.1c0.5-0.3,4.7,0.8,5.9,3.1
	s2.5,5.3,5.7,7c3.3,1.7,6,4.2,7.6,4c1.6-0.2,3.5-2.3,3.6-3.5s-0.5-4.5,0.5-5.9s1.6-0.9,1.8-0.4c0.2,0.4,2.1,3.8,1.7,6.5
	c-0.4,2.7,0.3,7.2,0.1,8.3c-0.2,1.1-1,5.4,0,7.9C225.3,287.8,216.6,288,216.6,288z"/>
<path class="st4" d="M412.4,286.6c0,0-14.5,29.2-20.5,39.3c-5.9,10.1-11.8,16.7-14.8,16c-6.6-1.5-33.1-27.2-33.7-26.7
	c-0.5,0.5-3,5.6-2.8,5.8c0.1,0.2-21.4,0.1-28.4,0c-7,0.1-28.5,0.2-28.4,0c0.1-0.3-2.3-5.3-2.8-5.8c-0.5-0.5-27,25.2-33.7,26.7
	c-3,0.6-8.8-6-14.8-16c-6-10.1-20.5-39.3-20.5-39.3c6.1-5.1,13.6-5.2,13.6-5.2c5.7,8.3,23.2,36.3,23.2,36.3s20.6-26.2,28.4-30.3
	c7.8-4.1,22.9-4.6,26.1-5.9l3-11.7c0,0,5,2.4,5.8,2.6c0.8-0.2,5.8-2.6,5.8-2.6l3,11.7c3.2,1.3,18.3,1.8,26.1,5.9
	c7.8,4.1,28.4,30.3,28.4,30.3s17.5-28,23.2-36.3C398.8,281.4,406.3,281.5,412.4,286.6z"/>
<path class="st3" d="M289.2,421.5l-7,3c0,0,0,0,0,0c-0.5,0.3-4.5,3.1-14.9,5.8c-11.6,3-19.3,2.8-24.3-2.2c-1.4-1.4-1.8-7,7.4-11.3
	c9.4-4.4,27.8-4.3,27.8-4.3s6.3-1,6.7-2c0.5-1.2,3.2,0.5,3.2,0.5L289.2,421.5z"/>
<path class="st1" d="M378.1,389.7c-11.3,10.2-40.3,21.9-65.8,28.9c-3.1,0.9-6.2,1.7-9.2,2.4c-5.5,1.3-10.6,2.4-15.2,3.1
	c0,0-4.8-5.1-5.2-13.3v0l2-1.2l65.9-38.3l-10.6-6.8l13.5-1.3c0,0,14-4.8,24.8-2C389.2,364,393.3,376.1,378.1,389.7z"/>
<path class="st5" d="M363.5,321.7L352,369.9c0,0.8-0.6,1.4-1.4,1.4h-76.9c-0.3,0-0.6-0.1-0.8-0.2c-0.4-0.3-0.6-0.7-0.6-1.2
	l-11.5-48.2c0-0.8,0.7-1.4,1.4-1.4h99.9c0.4,0,0.8,0.2,1.1,0.5C363.3,321,363.5,321.3,363.5,321.7z"/>
<circle class="st2" cx="312.7" cy="347.1" r="3.9"/>
<path class="st3" d="M329.2,259.8c-1.1,2.5-4.1,2.3-4.1,2.3l-0.5,2.1v0c-1.5,4.7-5.1,7.7-7.5,8.5c-2.2,0.8-4.8,0.7-5.6,0.6
	c-0.9,0.1-3.4,0.2-5.6-0.6c-2.5-0.9-6.5-4.3-7.8-9.6c-0.1-0.3-0.1-0.6-0.1-0.7c0-0.1,0-0.2-0.1-0.4c0,0-2.9,0.2-4-2.3
	c-1.1-2.5-1-5.5,1.6-5.6c0,0,0,0,0-0.1c-0.2-1-2.6-9.7-1.8-14c0.9-4.7,3.4-7.1,3.4-7.1s-1.1-2.5-0.4-4.2c0.7-1.7,3-3.2,3-3.2
	c5-2.6,11-2,16-0.5c4.1,1.1,5.5,4,5.5,4s4,1.3,6.2,5.7c3,5.8,0.2,19.5,0.2,19.5C330.2,254.3,330.3,257.2,329.2,259.8z"/>
<path class="st3" d="M321.1,281.5c0,0-2,6.1-8.4,6.5c-6.3,0.4-9.2-6.5-9.2-6.5l3-11.7c0,0,5,2.4,5.8,2.6c0.8-0.2,5.8-2.6,5.8-2.6
	L321.1,281.5z"/>
<path class="st6" d="M327.5,234.7c-2.2-4.5-6.2-5.7-6.2-5.7s-1.5-2.8-5.5-4c-5.1-1.5-11.1-2.1-16,0.5c0,0-2.3,1.5-3,3.2
	c-0.7,1.7,0.4,4.2,0.4,4.2s-2.5,2.4-3.4,7.1c-0.8,4.3,1.5,13.1,1.8,14c0,0,0,0.1,0,0.1s1.9,6,2.5,7.9c0,0.1,0,0.2,0.1,0.4
	c0,0.1,0.1,0.4,0.1,0.7c1.3,5.3,5.3,8.7,7.8,9.6c2.2,0.8,4.7,0.7,5.6,0.6c0.9,0.1,3.4,0.2,5.6-0.6c2.3-0.8,5.9-3.8,7.5-8.5v0
	l0.5-2.1c0,0,1.6-6.6,2.5-7.9C327.7,254.2,330.4,240.5,327.5,234.7z M324.9,258c-0.3,2.9-0.8,7.6-3.6,7.1c-2.7-0.5-3.9-2.7-5.3-3.7
	c-1.4-1-3.8-1-3.8-1c-1.9-0.2-4.4,1.5-5.9,3.1c-1.5,1.5-5.1,0.9-6.3-0.4c-1.2-1.2-2-6.2-2-6.2s1.6-2.7,1.9-4.9
	c0.3-2.2-1.2-8.3,1.3-9.9c2.4-1.6,6-2.6,8.7-2.3s-1.2,1.9-1.7,3.9c-0.4,1.9,5.3,3.1,8.9,2.8c3.7-0.2,6-2.2,7.9-2.1
	C326.9,244.3,325.3,255.2,324.9,258z"/>
<path class="st2" d="M312.3,418.7c-3.1,0.9-6.2,1.7-9.2,2.4c-8-3.9-17.5-8.6-20.5-10.2v0l2-1.2C284.7,409.7,310.7,417.8,312.3,418.7
	z"/>
<path class="st7" d="M282.2,424.6C282.2,424.6,282.2,424.6,282.2,424.6c-0.5,0.4-4.5,3.2-14.9,5.8c-11.6,3-19.3,2.8-24.3-2.2
	c-1.4-1.4-1.8-7,7.4-11.3c9.4-4.4,27.8-4.3,27.8-4.3s-5.8,1.2-6,6.2C272,423.7,282.2,424.6,282.2,424.6z"/>
<path class="st7" d="M381.6,428.2c-5,5-12.7,5.2-24.3,2.2c-11-2.9-14.9-5.8-14.9-5.8s7.5-0.8,8.9-5c1.3-4.2-4.9-7-4.9-7s0,0,0.1,0
	c1.6,0,18.8,0.1,27.7,4.3C383.4,421.2,383,426.7,381.6,428.2z"/>
<path class="st8" d="M227.1,386.1c-0.5,2.2-1,6.6,0.9,13.1c1.3,4.4,15.7,22.4,10.8,30.2c2.1,4.4-3.7,11.3-15.2,10.2
	c-11.2-1.1-20.1-2.2-23.7,0c-6.1,3.7-3.5,8.1-7.2,8.1c-6.7,0-4.9-9.5-0.7-12.7c5.8-4.3,15.4-3.1,15.4-3.1
	c-8.2-3.1-0.7-27.4-0.7-27.4s1.4-8.6,4.6-16.5c2.3-5.7,5-10.4,7.5-12.3c-1.1-4.6,0.1-9,3.5-10.9c0.7-0.4,1.5-0.6,2.4-0.7l-0.1,0
	c0,0,10.7-4.2,9-1.2l-2.1,3.1c1.7,1.2,3.4,3,4.6,5.1c1.4,2.5,2,5.1,1.9,7.5c1.6,0,3.9,0.2,3.7,0.8c-0.2,1-4.2,4.3-6.3,5.7
	c0,0,0,0-0.1,0c-0.4,0.4-0.8,0.7-1.2,0.9C232,387.2,229.5,387.1,227.1,386.1z"/>
<path class="st2" d="M218.9,375.7c0,0,2.8,7.1,8.2,10.3c0,0-3,4.2-5.7,1.8C218.7,385.6,218.9,375.7,218.9,375.7z"/>
<path class="st9" d="M231.9,375.3c0,0-1.7-3.6-2.3-2.5c-0.5,0.9-0.7,2.5,0,2.7S232.7,376.5,231.9,375.3z"/>
<path class="st7" d="M233.7,362.9l-2.1,3.1c0,0-3-1.8-6.9-1.9C224.7,364.1,235.4,359.9,233.7,362.9z"/>
<path class="st7" d="M241.7,379.4c-0.2,1-4.2,4.3-6.3,5.7c0,0,0,0-0.1,0c2.3-2.4,2.6-6.6,2.6-6.6
	C239.7,378.6,241.9,378.8,241.7,379.4z"/>
<path class="st7" d="M223.6,439.6c-11.2-1.1-20.1-2.2-23.7,0c-6.1,3.7-3.5,8.1-7.2,8.1c-6.7,0-4.9-9.5-0.7-12.7
	c5.8-4.3,15.4-3.1,15.4-3.1c2.1,0.5,10,3.6,20.6,1.5c10.6-2,10.6-4,10.6-4.1C240.9,433.8,235.1,440.7,223.6,439.6z"/>
<path class="st10" d="M116.2,203.8c0.5-0.7,0.8-1.1,2.3-1.3c1.5-0.3,2.1-0.7,4-2.5c2-1.8,5.1-2.5,8.3-2.3s5.6,1.4,5.6,1.4
	c-0.6-2.1,1.5-3.1,2-3.6c0.4-0.4,0.6-1.3,0.6-1.3c3.4,1.5,4.6,5,3.3,8.2c-1.4,3.2-5,3.4-5,3.4s2.1,1,4.8-0.3c2.7-1.3,3.1-4.5,3.1-5
	c0,0,2.5,1.5,4.1,6.9c1.6,5.4,0,11-2,13.4c0,0,0.2-2.7-0.5-4.4c0,0-0.1,5.9-5.7,9.7c0,0,1.6-2.5,2-5.4c0,0-3.3,6.4-11,7
	c0,0,3.1-1.2,5.1-4.4c0,0-0.9,0.9-4.2,1.1c0,0,2.6-1.4,3.4-4.4c0.7-2.8,0.3-4.6,0.3-4.6s-0.7,4.5-4.4,6.2s-7.4,0.5-8.2-0.3l1.4,0
	c0,0-1.6-1.1-1.8-2.9c-0.3-2.1,1.1-3.2,2.4-3c1.3,0.2,0.4,1.7,0.4,1.7s-0.2,1.7,2.4,1.8c0,0,0.1-0.1,0.4-0.7
	c0.3-0.5,0.6-1.5,0.6-1.5l0.1,1.7c0,0,1.1-0.9,1.2-1.3c0.1-0.4,0.3-0.8,0.5-0.8c0.8,0,1.5,1.1,1.5,1.1c-0.2-2.7-1.4-5-4.3-7.3
	c-3.2-2.5-8.1-1.5-8.1-1.5l-1.2,1.4l0-1.5l-0.7,1l-0.2-1.3c-1.4-0.4-1.5-1.8-1.5-1.8C115.7,205.8,115.6,204.7,116.2,203.8z
	 M136.2,195.1c-0.2,0.8-1,2.2-0.4,3.1c0,0,0-1.9,1.9-2.8c0,0,0.3-1.7-2.3-1.6C135.4,193.7,136.4,194.3,136.2,195.1z"/>
<path class="st10" d="M212.4,92.5L212.4,92.5L212.4,92.5l-10.2,23h3.9l2-5.1h4.9v0l3.7,0l2,5.1h3.9L212.4,92.5L212.4,92.5
	L212.4,92.5z M215.3,107.2l-3.6,0h-2.3l2.9-7.2L215.3,107.2z M228.9,94l-16.2-5.9c0,0,0,0-0.1,0c0,0-0.1,0-0.1,0c0,0-0.1,0-0.1,0
	c0,0,0,0-0.1,0L196,94c-0.2,0.1-0.4,0.3-0.4,0.6l2.4,21.6c0,0.2,0.1,0.3,0.3,0.4l13.8,7.7c0,0,0,0,0,0l0,0c0.1,0,0.2,0.1,0.3,0.1
	c0.1,0,0.2,0,0.3-0.1l0,0c0,0,0,0,0,0l13.8-7.7c0.2-0.1,0.3-0.2,0.3-0.4l2.4-21.6C229.3,94.3,229.1,94.1,228.9,94z M225.7,115.8
	l-13.3,7.4l-13.3-7.4l-2.4-20.9l15.7-5.7l15.6,5.6L225.7,115.8z"/>
<path class="st10" d="M281.5,108.6c0,0.1,0.1,0.1,0.2,0.2c0,0,0,0,0,0c0.1,0,0.2,0.1,0.2,0.1s0.2,0,0.2-0.1c0,0,0,0,0,0
	c0.1,0,0.1-0.1,0.2-0.2c0,0,0,0,0,0l17.5-30.4c0.1-0.2,0.1-0.3,0-0.5c-0.1-0.2-0.2-0.2-0.4-0.2h-7h-6.6c-0.2,0-0.3,0.1-0.4,0.3
	l-3.5,6.4l-3.5-6.4c-0.1-0.2-0.3-0.3-0.4-0.3h-6.6h-7c-0.2,0-0.3,0.1-0.4,0.2c-0.1,0.2-0.1,0.3,0,0.5L281.5,108.6
	C281.5,108.6,281.5,108.6,281.5,108.6z M271.1,78.5l10.4,17.8c0,0,0,0,0,0c0,0,0,0,0,0c0,0,0,0,0,0c0,0,0,0,0,0c0,0,0,0,0.1,0.1
	c0,0,0,0,0,0c0,0,0,0,0,0c0,0,0,0,0,0c0,0,0,0,0,0c0,0,0,0,0.1,0c0,0,0,0,0,0c0,0,0,0,0,0c0,0,0,0,0,0c0,0,0,0,0,0c0,0,0,0,0,0
	c0,0,0,0,0,0c0,0,0,0,0,0c0,0,0,0,0,0c0,0,0,0,0,0c0,0,0,0,0,0c0,0,0,0,0,0c0,0,0,0,0,0c0,0,0,0,0.1,0c0,0,0,0,0,0c0,0,0,0,0,0
	c0,0,0,0,0,0c0,0,0,0,0,0c0,0,0,0,0.1-0.1c0,0,0,0,0,0c0,0,0,0,0,0c0,0,0,0,0,0c0,0,0,0,0,0l10.4-17.8h5.9l-16.7,28.9l-16.7-28.9
	H271.1z"/>
<path class="st10" d="M360.2,84.2c1.1-4.4,0.7-7.9-1.4-9.1c-1.7-1-4.2-0.3-7.1,2c-0.5,0.4-1,0.9-1.5,1.3c-3.3-3.1-6.5-4.5-8.6-3.3
	c-2.1,1.2-2.5,4.7-1.4,9.1c-4.4,1.3-7.1,3.4-7.1,5.8c0,2.4,2.8,4.5,7.1,5.8c-1.1,4.4-0.7,7.9,1.4,9.1c0.5,0.3,1.1,0.4,1.7,0.4
	c1.9,0,4.4-1.4,6.9-3.7c0.5,0.5,1,0.9,1.5,1.3c2,1.6,3.8,2.4,5.3,2.4c0.6,0,1.2-0.1,1.7-0.4c2.1-1.2,2.5-4.7,1.4-9.1
	c4.4-1.3,7.1-3.4,7.1-5.8C367.3,87.5,364.5,85.5,360.2,84.2z M352.5,78c1.7-1.4,3.3-2.1,4.5-2.1c0.4,0,0.8,0.1,1.1,0.3
	c1.5,0.8,1.8,3.7,0.9,7.7c-1.5-0.4-3.1-0.6-4.8-0.8c-1-1.4-2-2.7-3.1-3.8C351.5,78.8,352,78.4,352.5,78z M355.2,92.9
	c-0.6,1-1.2,1.9-1.8,2.8c-1,0.1-2.1,0.1-3.3,0.1c-1.1,0-2.2,0-3.3-0.1c-0.6-0.9-1.2-1.8-1.8-2.8c-0.6-1-1.1-2-1.5-2.9
	c0.5-0.9,1-1.9,1.5-2.9c0.6-1,1.1-1.9,1.8-2.8c1-0.1,2.1-0.1,3.3-0.1c1.1,0,2.2,0,3.3,0.1c0.6,0.9,1.2,1.8,1.8,2.8
	c0.6,1,1.1,2,1.5,2.9C356.3,90.9,355.8,91.9,355.2,92.9z M357.4,91.4c0.5,1.2,0.9,2.4,1.3,3.5c-1.1,0.3-2.3,0.5-3.6,0.6
	c0.4-0.6,0.8-1.3,1.2-2C356.7,92.8,357.1,92.1,357.4,91.4z M350.2,99.7c-0.8-0.8-1.6-1.8-2.4-2.8c0.8,0,1.6,0.1,2.4,0.1
	c0.8,0,1.6,0,2.4-0.1C351.8,98,351,98.9,350.2,99.7z M345.3,95.5c-1.3-0.2-2.5-0.4-3.6-0.6c0.3-1.1,0.7-2.2,1.3-3.5
	c0.3,0.7,0.7,1.4,1.1,2.1C344.5,94.2,344.9,94.8,345.3,95.5z M343,88.5c-0.5-1.2-0.9-2.4-1.3-3.5c1.1-0.3,2.3-0.5,3.6-0.6
	c-0.4,0.7-0.8,1.3-1.2,2C343.7,87.1,343.3,87.8,343,88.5z M352.5,83c-0.8,0-1.5-0.1-2.3-0.1c-0.8,0-1.6,0-2.4,0.1
	c0.8-1,1.6-2,2.4-2.8C351,81,351.8,81.9,352.5,83z M356.3,86.4c-0.4-0.7-0.8-1.4-1.2-2c1.3,0.2,2.5,0.4,3.6,0.6
	c-0.3,1.1-0.7,2.2-1.3,3.5C357.1,87.8,356.7,87.1,356.3,86.4z M342.3,76.2c0.3-0.2,0.7-0.3,1.1-0.3c1.5,0,3.7,1.2,6,3.4
	c-1.1,1.1-2.1,2.4-3.1,3.8c-1.7,0.2-3.4,0.4-4.8,0.8C340.4,79.9,340.8,77,342.3,76.2z M334.3,89.9c0-1.7,2.3-3.4,6.2-4.6
	c0.4,1.5,1,3,1.7,4.6c-0.7,1.6-1.3,3.1-1.7,4.6C336.6,93.4,334.3,91.6,334.3,89.9z M342.3,103.7c-1.5-0.8-1.8-3.7-0.9-7.7
	c1.5,0.4,3.1,0.6,4.8,0.8c1,1.4,2,2.7,3.1,3.8C346.4,103.4,343.7,104.6,342.3,103.7z M358.1,103.7c-1.2,0.7-3.3,0-5.7-1.9
	c-0.5-0.4-0.9-0.8-1.4-1.3c1-1.1,2.1-2.4,3.1-3.8c1.7-0.2,3.4-0.4,4.8-0.8C360,100,359.6,102.9,358.1,103.7z M359.9,94.5
	c-0.4-1.5-1-3-1.7-4.6c0.7-1.6,1.3-3.1,1.7-4.6c3.9,1.1,6.2,2.9,6.2,4.6C366.1,91.6,363.8,93.4,359.9,94.5z M353.4,89.9
	c0,1.8-1.4,3.2-3.2,3.2s-3.2-1.4-3.2-3.2c0-1.8,1.4-3.2,3.2-3.2S353.4,88.2,353.4,89.9z"/>
<path class="st10" d="M432.4,92h-29.2c-2,0-3.6,1.6-3.6,3.6v29.2c0,2,1.6,3.6,3.6,3.6h29.2c2,0,3.6-1.6,3.6-3.6V95.5
	C436,93.6,434.4,92,432.4,92z M434.9,124.7c0,1.3-1.1,2.4-2.4,2.4h-29.2c-1.3,0-2.4-1.1-2.4-2.4V95.5c0-1.3,1.1-2.4,2.4-2.4h29.2
	c1.3,0,2.4,1.1,2.4,2.4V124.7z M432,118.1c0.5,0.8,0.8,2.8-0.1,4.4c-0.6,1.1-2.1,2.1-5,2.3c-3.1,0.1-4.9-0.8-4.9-0.8v-3.4
	c0.9,0.8,2.5,1.5,4.3,1.5c1.5,0,2.3-0.5,2.5-1.4c0.1-0.6-0.2-1-0.5-1.3c-0.1-0.1-0.1-0.1-0.2-0.2c0,0,0,0,0,0
	c-0.3-0.2-0.7-0.5-1.2-0.7c-1.1-0.5-1.9-0.7-3.3-1.7c-1.3-0.9-2.1-2.9-1.4-4.8c0.7-1.9,2.4-2.9,5.4-3.1c2.9-0.1,4.3,0.6,4.3,0.6v3.3
	c0,0-1.4-1.1-3.7-1.1c-2.1,0-2.9,1-2.5,2C426.4,115.2,430.7,115.6,432,118.1C432,118,432,118,432,118.1C432,118,432,118.1,432,118.1
	C432,118.1,432,118.1,432,118.1z M415.2,109.2h5.4v2.8h-4.4v12.6h-1.1h-1.4h-1.1v-12.6h-4.4v-2.8h5.4H415.2z"/>
<path class="st10" d="M471.4,160.6c0,3.9-3.1,7-7,7c-3.9,0-7-3.1-7-7c0-3.9,3.1-7,7-7C468.2,153.6,471.4,156.7,471.4,160.6z
	 M478.3,150.1c2.2,2.9,3.6,6.6,3.6,10.5c0,9.7-7.9,17.5-17.5,17.5s-17.5-7.9-17.5-17.5s7.9-17.5,17.5-17.5c4,0,7.7,1.4,10.6,3.6
	c0.4-0.3,0.9-0.5,1.5-0.5c1.3,0,2.4,1.1,2.4,2.4C478.9,149.1,478.7,149.7,478.3,150.1z M481.2,160.6c0-3.8-1.3-7.2-3.4-10
	c-0.4,0.3-0.8,0.4-1.3,0.4c-1.3,0-2.4-1.1-2.4-2.4c0-0.5,0.1-1,0.4-1.3c-2.8-2.1-6.3-3.4-10.1-3.4c-9.2,0-16.8,7.5-16.8,16.8
	c0,9.3,7.5,16.8,16.8,16.8C473.6,177.4,481.2,169.8,481.2,160.6z"/>
<path class="st10" d="M146.3,151.5c-0.6,2.8-0.4,5.3-0.2,7c-0.6-0.6-1.5-1.8-1.4-2.6c0.2-1.2,1.2-1.5,1-2.8c-0.2-1.3-1-2.3-0.7-3.6
	c0.3-1.2,1.7-2.1,2.3-2.8c0.7-0.7,0.4-2,0.5-2.9c0.1-0.9,0.8-2.1,2.1-2.2c1.3-0.2,2.2-0.2,3.2-1c1-0.8,1.3-2.5,3.6-2.6
	c1.6-0.1,3,0.8,3.8,1.4c-1.8,0.1-4.6,0.5-7,2C149.9,143.6,147.1,147.4,146.3,151.5z M177.5,159.3c2-3.9,1-6.6,1-6.6
	s-1.1,3.3-3.4,4.9c0,0,2.2-3.1,1.9-6.3c-0.3-3.2-1.8-4.4-1.8-4.4s1.1,2.5,0.2,6.4c-1,3.9-4.2,7.2-5.8,8c0,0,3,0.5,5.4-1.3
	c-0.4,0.5-4.1,4.4-9.5,4.6c0,0,1.6,2.2,5.1,2.2c0,0-3.1,0.9-7.2-0.7c-4-1.6-6.1-4.7-6.2-4.7c0,0.1,0.4,3,2.5,4.8
	c-0.6-0.3-4.9-2.4-5.5-6.6c-0.6-4.1,0-6.2,2.2-8.4c1.6-1.5,3.5-2.1,4.5-2.3c-4.6-2.3-8.2-1.9-11,1c-3.1,3.2-3.1,7.6-2.9,9.8
	c0,0,0,0,0,0c0.2,0.6,1.5,4.7,5.2,7.6c4,3.1,8.2,5.3,16,3.7c7.1-1.5,10.1-9,10.2-9.4c-0.2,0.2-3.3,2.9-6.2,2.9
	C172.2,164.3,175.5,163.2,177.5,159.3z M149.5,149.4c-2.1,2.1-2.8,4.8-3,7.1c-0.1-1.4,0-3.1,0.4-4.8c0.8-4,3.4-7.7,7-9.8
	c2.6-1.6,5.6-1.9,7.4-1.9c7.2,0.9,10.3,3.9,12.1,6.5c1.5,2.1,1.5,4.6-2.6,4.6c-3.2,0-7-1.5-8.5-2.1
	C156.9,145.9,152.7,146,149.5,149.4z M165,145.5c0,0.4,0.3,0.7,0.7,0.7c0.4,0,0.7-0.3,0.7-0.7c0-0.4-0.3-0.7-0.7-0.7
	C165.3,144.8,165,145.1,165,145.5z M153.9,143.8c0,0.8,0.6,2.1,1.3,2.2h0.2c1,0,4.4-0.2,4.8-0.3c0.1,0,0.2-0.1,0.2-0.3
	c0-0.1-0.1-0.2-0.3-0.2c0,0,0,0,0,0c-1.2,0.1-4.5,0.3-5,0.3c-0.3,0-0.8-1-0.9-1.7c0-0.5,1.1-1.1,1.9-1.3c0.4-0.1,3,0.7,4.6,1.4
	c0.1,0.1,0.3,0,0.3-0.2c0.1-0.1,0-0.3-0.1-0.3c-0.7-0.3-4.2-1.6-4.9-1.4C155.5,142.2,153.8,142.9,153.9,143.8z"/>
<path class="st10" d="M483.8,220.6l-5.3,8.4l-8.9-14.4v15.1h-6.3v-25.6h6.3l9,15.2v-6.8L483.8,220.6z M484.9,210.7v-6.6h-6.3v6.6
	H484.9z M495,211.3c-5.3,0.1-7.5,4.1-7.5,4.1l-2.6-4.1h-6.2l5.9,9.3l-5.8,9.1h6.1l2.6-4.1l2.7,4.1h6.1l-5.6-8.9
	c-0.2-1,0.2-2.1,1-3.3c0.7-1,2-1.7,3.8-1.6c1.8,0.1,2.5,0.9,3.1,2c0.6,1,1.6,1.3,2.2,1.4c0.5,0.1,1.3,0.6,1.3,1.5
	c0,0.8,0.7,1.2,1,1.2c0.3,0,1.2,0.2,1.4-1.2c0.2-1.3-0.6-3.9-1.4-5.1C502.5,215,500.2,211.2,495,211.3z M499.6,219.3
	c-0.8-0.3-1.2-0.9-1.7-1.7c-0.7-1-2-1.5-3.7-1.2c-2.1,0.5-2.9,2.4-2.9,2.4c0.7-1,2.3-1.8,4-1.5c1.7,0.4,2.4,1.5,2.8,2.3
	c0.4,0.7,1.1,0.5,1.6,0.6c0.5,0,0.5,0.2,0.8,0.4c0.2,0.3,1,0.6,1,0.4c0-0.1,0.1-0.7-0.3-1C501.1,219.8,500.4,219.6,499.6,219.3z
	 M493.7,217.9c-1.6,0.3-2.4,2-2.4,2s0.8-1.1,2.3-1.2c1.5-0.1,2.1,0.4,2.7,0.6c0.7,0.2,1.1,0,1.1,0
	C496.6,218.3,495.3,217.6,493.7,217.9z"/>
<g>
	<g>
		<path class="st11" d="M281.9,115.5c0,0,0,0.2-0.1,0.5"/>
		<path class="st12" d="M281.7,117c-0.5,5-1.7,21.7,3.8,39.4c9.9,32,35,28.4,33,58.9"/>
		<path class="st11" d="M318.5,215.9c0,0.2,0,0.3,0,0.5"/>
	</g>
</g>
<g>
	<g>
		<path class="st11" d="M350.2,109.2c0,0,0,0.2-0.1,0.5"/>
		<path class="st13" d="M349.9,110.7c-1,4.6-3.9,19.7-2,34.1c2.3,17.3,15.6,53.3-21.1,73.5"/>
		<path class="st11" d="M326.3,218.6c-0.1,0.1-0.3,0.2-0.4,0.2"/>
	</g>
</g>
<g>
	<g>
		<path class="st11" d="M419.2,134.1c0.1,0.1,0.1,0.2,0.2,0.5"/>
		<path class="st14" d="M419.4,135.6c-0.3,5.9-7,27.7-31.2,34.3c-27.1,7.5-78.4,1.1-83,45.4"/>
		<path class="st11" d="M305.2,215.9c0,0.2,0,0.3,0,0.5"/>
	</g>
</g>
<g>
	<g>
		<path class="st11" d="M452.6,178.1c0,0,0,0.2-0.1,0.5"/>
		<path class="st15" d="M452.2,179.5c-2.5,7.5-15.9,42.3-51.3,48.2c-32.1,5.3-49.3,0-64.5,3.5"/>
		<path class="st11" d="M335.8,231.3c-0.2,0-0.3,0.1-0.5,0.1"/>
	</g>
</g>
<g>
	<g>
		<path class="st11" d="M455,223.1c0,0-0.2-0.1-0.5-0.2"/>
		<path class="st16" d="M453.6,222.6c-3.8-1.3-15.2-5.2-36.8-11.3c-26.8-7.6-53.2-6.3-84.1,11.9"/>
		<path class="st11" d="M332.3,223.4c-0.1,0.1-0.3,0.2-0.4,0.3"/>
	</g>
</g>
<g>
	<g>
		<path class="st11" d="M222.7,127.1c0,0,0.1,0.1,0.4,0.3"/>
		<path class="st17" d="M223.7,128.2c3.5,3.5,14.8,15.5,25,34.9c15.4,29.5,10.8,39.3,39.7,60.1"/>
		<path class="st11" d="M288.8,223.4c0.1,0.1,0.3,0.2,0.4,0.3"/>
	</g>
</g>
<g>
	<g>
		<path class="st11" d="M176.8,174.7c0,0,0.1,0.1,0.4,0.3"/>
		<path class="st18" d="M178,175.6c3.5,2.2,15.1,8,44.6,9.8c21.2,1.3,58.7-10.5,75,30"/>
		<path class="st11" d="M297.9,215.9c0.1,0.2,0.1,0.3,0.2,0.5"/>
	</g>
</g>
<g>
	<g>
		<path class="st11" d="M155.7,215.3c0,0,0.1-0.1,0.4-0.3"/>
		<path class="st19" d="M157,214.5c5.5-3.3,27.9-15.1,53.9-7.1c22.4,6.9,47.7,25.6,73.6,23.9"/>
		<path class="st11" d="M285,231.3c0.2,0,0.3,0,0.5,0"/>
	</g>
</g>
</svg>
