<svg version="1.1" id="Layer_9" xmlns="http://www.w3.org/2000/svg" xmlns:xlink="http://www.w3.org/1999/xlink" x="0px" y="0px"
	 viewBox="0 0 600 530" style="enable-background:new 0 0 600 530;" xml:space="preserve">
<style type="text/css">
	.st0{fill:#EAEAEA;}
	.st1{fill:#E5E5E5;}
	.st2{fill:#DBDBDB;}
	.st3{fill:#FFFFFF;}
	.st4{fill:#EFEFEF;}
	.st5{fill:#F2F2F2;}
	.st6{fill:#E01D85;}
	.st7{opacity:0.2;fill:#3D3D75;}
	.st8{fill:#EFD1C7;}
	.st9{fill:#99CFF8;}
	.st10{fill:#F5C85C;}
	.st11{fill:#363636;}
	.st12{fill:#EDBCDA;}
	.st13{fill:#E0234E;}
	.st14{fill:#DD0031;}
	.st15{fill:#C3002F;}
	.st16{fill:#41B883;}
	.st17{fill:#34495E;}
	.st18{fill:#61DAFB;}
	.st19{fill:#3178C6;}
	.st20{fill:#4E8EF7;}
	.st21{fill:#96D7E9;}
	.st22{fill:#48C5E5;}
	.st23{fill:#E22285;}
	.st24{fill:url(#SVGID_1_);}
	.st25{fill:url(#SVGID_2_);}
	.st26{fill:url(#SVGID_3_);}
	.st27{fill:url(#SVGID_4_);}
	.st28{fill:none;stroke:#9B84C1;stroke-width:0.6;stroke-linecap:round;stroke-linejoin:round;}
	.st29{fill:none;stroke:#9B84C1;stroke-width:0.6;stroke-linecap:round;stroke-linejoin:round;stroke-dasharray:1.0073,1.0073;}
	.st30{fill:none;stroke:#9B84C1;stroke-width:0.6;stroke-linecap:round;stroke-linejoin:round;stroke-dasharray:1.0084,1.0084;}
	.st31{fill:none;stroke:#9B84C1;stroke-width:0.6;stroke-linecap:round;stroke-linejoin:round;stroke-dasharray:0.9954,0.9954;}
	.st32{fill:none;stroke:#9B84C1;stroke-width:0.6;stroke-linecap:round;stroke-linejoin:round;stroke-dasharray:0.9958,0.9958;}
	.st33{fill:none;stroke:#9B84C1;stroke-width:0.6;stroke-linecap:round;stroke-linejoin:round;stroke-dasharray:0.9922,0.9922;}
	.st34{fill:none;stroke:#9B84C1;stroke-width:0.6;stroke-linecap:round;stroke-linejoin:round;stroke-dasharray:0.9938,0.9938;}
	.st35{fill:none;stroke:#9B84C1;stroke-width:0.6;stroke-linecap:round;stroke-linejoin:round;stroke-dasharray:1.0066,1.0066;}
</style>
<ellipse class="st0" cx="306.1" cy="418.1" rx="231.6" ry="26.3"/>
<path class="st1" d="M170.8,359.2c1.3-16.3,15.8-43.2,6.1-43.2c-3.8,0-6,16.1-6.5,11.1c-0.5-5,6.5-39.2-3.4-38.8
	c-4.3,0.2-0.4,19.8-3.6,19.2c-4.4-0.8-1.5-6.2-5.1-7.2c-10.4-2.7,1.8,35.4,0,35.5c-1.6,0.1-4.7-14.6-11.5-10.3
	c-6.3,4,8.1,15,8.3,31.9C155.2,362.7,170.6,360.9,170.8,359.2z"/>
<path class="st2" d="M152.1,348.8h23.4c0,0,8.6,25.2,8.3,37.4c-0.2,12.4-3.4,22.9-17.5,23.6c-24.7,1.2-24.7-12.4-24.7-22.9
	C141.6,369.9,152.1,348.8,152.1,348.8z"/>
<path class="st1" d="M453.4,388.4c9.2-9.6,21.5-42.9,14.1-45.5c-7.4-2.6-10.7,8.3-12.7,3s6.9-22.5,2.7-23.9s-7.2,5.7-8.3,3.9
	s4.3-34.5-7.3-37.2c-11.6-2.7-16.7,11.8-15.2,19.9c1.5,8.1,5.4,20.6,2.4,20.6c-3.1,0-5.1-12.2-9.6-9.1c-5.9,4.1-6.3,19,2,24.5
	c8.3,5.5,13.5,17.1,10,15c-3.8-2.2-8.3-2.6-10,1.9s6.2,16.5,14.1,24.7S449.9,392.1,453.4,388.4z"/>
<path class="st3" d="M459.1,377.2c0.8-2.3,3-11.7,3-11.7s-4.7,7.9-6,10.2c-0.9,1.5-2.2,7-2.9,10.2c-0.8-5.2-2-13.8-3-20.8
	c0.8-3.1,2.1-7.8,2.5-9c0.6-1.9,1.7-14.5,1.7-14.5s-3.7,12.8-4.1,14.5c-0.2,0.8-0.3,3.3-0.5,5.8c-0.5-4.2-0.9-7.3-0.8-8
	c0.2-1.5-2.1-14.1-3.8-23.1c0.3-2.9,0.7-7.1,0.5-8.4c-0.4-1.9-3.2-14.8-3.2-14.8s-0.4,9.7,0,13c0.4,3.3,2.4,13,2.4,13l0,0
	c1.1,9,2.5,20.5,3.2,24.9c0.3,1.5,0.6,3.6,1,6c0,0-3.5-9.2-5.6-10.8c-2.1-1.6-12.2-12.3-12.2-12.3l7.1,10.7l10.7,12.3
	c1.2,7.4,2.8,17.7,3.6,22.8c-2.6-3.1-6.4-7.6-8.2-9.1c-2.9-2.4-6-5.2-6-5.2s4.2,4.9,5,6.3c0.6,1,6.1,6,9.3,9
	c0.2,1.3,0.3,2.1,0.3,2.1l0.8,0c0,0-0.1-0.5-0.2-1.3c0.8,0.8,1.4,1.3,1.4,1.3s-0.6-0.7-1.5-1.8c-0.1-0.5-0.1-0.9-0.2-1.5
	L459.1,377.2z"/>
<path class="st4" d="M142.6,368.5c-3.4-7.8-5.5,3.1-7.7,0.6c-2.3-2.5-1.1-14.3,0.4-21.3c2.6-11.9,3.2-18,1.2-23.7
	c-2.9-8.4-5.2,4.5-9.1,3.2c-4-1.3,0.6-25.1-9.9-17.3c-11.6,8.6,2.5,50.9,0,54.9c-4.2,6.7-2.1-28.9-8.8-26.8c-6.6,2-7,10.2-5.9,18.9
	c1,7.7,7.3,16.9,6.8,18.3c-1.5,4.2-10.4-9.6-13.7-2.8c-5.9,11.9,10.1,26.4,13.4,28c3.2,1.5,27.4,0,27.4,0S148.1,381.3,142.6,368.5z
	 M105.6,352.2c-0.6-1.5-1.4-4.4,0-6.4c1.3-2,2.9,2,2.9,2s2.5,5.1,1.9,7.3C109.7,357.3,106.1,353.6,105.6,352.2z M107.6,386.9
	c-0.9-1.3-3.1-5-2.2-6.9c0.9-1.9,3.3,2,5,1.2c1.7-0.7,0.9-1.6,3.8-1c2.8,0.6,3.4,6.3,3.3,7.2C117.2,391.5,108.5,388.3,107.6,386.9z
	 M120.1,343.4c1.1-6.1,2.3-7.9,4.6-9.2c2.4-1.3,5.1,7,4.3,9.6c-0.5,1.8-4,16.1-5.6,16.9C121.8,361.5,119.6,346,120.1,343.4z
	 M131.7,387.2c-2.5-0.3-0.6-3.4,0.8-5.3c1.5-1.9,6.6-1.9,6.7-0.8C139.6,383.7,134.2,387.5,131.7,387.2z"/>
<path class="st1" d="M454.5,391.6c-3.6-4.7-1.8-30.2-1.8-38.3c0-7.8-1.4-20.7,2.4-21.5s6.2,6,7.2,4.4c1-1.5-4.4-28,8.9-32.4
	c10.2-3.4,14.5,8.5,12.3,19.5c-1.5,7.2-6.2,17.8-3.4,18.2c2.7,0.3,3.7-8.5,7.5-5.2c5,4.3-1.6,16.7-5.6,19.7
	c-9.4,6.9-9.3,13.9-6,12.4c3.5-1.6,7.6-1.4,8.8,2.8c1.2,4.3-6.6,14.1-14.2,20.5S457.3,395.3,454.5,391.6z"/>
<path class="st3" d="M463.4,365.1c-0.5-2.8-1.3-7.2-1.6-8.3c-0.4-1.8-0.5-13.2-0.5-13.2s2.5,11.8,2.7,13.4c0.1,0.7-0.1,4.6-0.1,6.9
	c0.8-3.7,6.4-28.9,6.4-28.9c-0.1-2.7-0.2-6.5,0.1-7.5c0.5-1.7,3.8-12.8,3.8-12.8s-0.6,8.7-0.8,11.6c-0.6,7.1-2.5,9.2-2.5,9.2
	c-1.5,7.9-4,20.2-5,24.1c-0.3,1.3-0.8,3.1-1.3,5.2c0,0,3.7-7.8,5.7-9c1.9-1.2,11.7-9.6,11.7-9.6l-7.1,8.8l-10.3,9.8
	c-1.5,6.5-3.7,15.5-4.7,20c2.5-2.5,6.2-6.1,7.9-7.2c2.7-1.8,7.7-4.2,7.7-4.2s-6.1,4.1-6.9,5.3c-0.6,0.8-5.8,4.7-8.9,7
	c-0.3,1.2-0.4,1.9-0.4,1.9l-0.8-0.1c0,0,0.1-0.4,0.2-1.1c-0.8,0.6-1.3,1-1.3,1s0.6-0.6,1.4-1.5C458.9,385.4,462.1,371.3,463.4,365.1
	z"/>
<path class="st2" d="M487.6,385h-66.2c0,0,0,27,33.1,27S487.6,385,487.6,385z"/>
<path class="st0" d="M508.9,396.5c1.2-16.3,14.5-43.3,5.6-43.3c-3.5,0-5.5,16.1-5.9,11.1s7.2-38-1.8-37.5c-4,0.2-1.7,18.5-4.6,17.9
	c-4-0.8-1.4-6.3-4.7-7.2c-9.5-2.7,1.7,35.5,0,35.6c-1.4,0.1-3.3-13.1-6.5-8.8c-4.2,5.6,3.4,13.5,3.5,30.4
	C494.7,400,508.8,398.1,508.9,396.5z"/>
<path class="st5" d="M489.2,387.5h25c0,0,6.8,5.7,7.5,18.9c0.8,13.2-14.6,16.2-19,16.2c-9.6,0-23.1-1.8-22.2-16.2
	C481.6,390.9,489.2,387.5,489.2,387.5z"/>
<path class="st5" d="M103.9,396.7h35.2c0,0,10.5,5.1,10.6,17c0,9.5-19.5,10.8-25.7,10.8c-13.5,0-32.4-0.7-32.3-10.8
	C91.8,399.7,103.9,396.7,103.9,396.7z"/>
<path class="st6" d="M360.7,378c0,0-2.3-12.8-12.5-13.2c-10.1-0.4-61.9,0.3-67.8,1c-5.9,0.7-18.3,4.4-19.5,6.7
	c-1.2,2.3,26.7,20,28.2,21.6c1.5,1.6,14.4,7.5,19.9,6.6c5.6-0.9,22.6-9.8,25.6-10.6C337.6,389.5,360.7,378,360.7,378z"/>
<path class="st7" d="M360.7,378c0,0-2.3-12.8-12.5-13.2c-10.1-0.4-61.9,0.3-67.8,1c-5.9,0.7-18.3,4.4-19.5,6.7
	c-1.2,2.3,26.7,20,28.2,21.6c1.5,1.6,14.4,7.5,19.9,6.6c5.6-0.9,22.6-9.8,25.6-10.6C337.6,389.5,360.7,378,360.7,378z"/>
<path class="st8" d="M380.3,426.4c-5,5-12.5,5.1-24,2.2c-10.9-2.8-14.7-5.8-14.7-5.8l-6.9-3l1-10.4c0,0,2.7-1.6,3.2-0.5
	c0.4,1,6.6,2,6.6,2s0,0,0.1,0c1.5,0,18.6,0.1,27.4,4.3C382.1,419.5,381.7,425,380.3,426.4z"/>
<path class="st6" d="M284.5,363.5l-13.3-1.3c0,0-13.8-4.8-24.5-2s-14.8,14.7,0.2,28.2c15,13.5,61.9,29.7,89.1,34c0,0,4.8-5,5.2-13.2
	l-67.1-39L284.5,363.5z"/>
<path class="st8" d="M406.3,288c0,0,5.4-7.5,7.6-10s6.3-6.3,7.8-8c3.5-4,3.9-10.7,3.4-10.9c-0.5-0.3-4.7,0.8-5.8,3.1
	c-1.2,2.3-2.4,5.2-5.7,6.9c-3.2,1.7-5.9,4.2-7.5,4c-1.6-0.2-3.5-2.3-3.6-3.5c-0.1-1.2,0.5-4.4-0.5-5.9c-1-1.4-1.6-0.8-1.7-0.4
	c-0.2,0.4-2,3.8-1.7,6.4s-0.3,7.1-0.1,8.1c0.2,1,1,5.3,0,7.8C397.7,287.8,406.3,288,406.3,288z"/>
<path class="st8" d="M217.3,288c0,0-5.4-7.5-7.6-10s-6.3-6.3-7.8-8c-3.5-4-3.9-10.7-3.4-10.9c0.5-0.3,4.7,0.8,5.8,3.1
	c1.2,2.3,2.4,5.2,5.7,6.9c3.2,1.7,5.9,4.2,7.5,4s3.5-2.3,3.6-3.5s-0.5-4.4,0.5-5.9c1-1.4,1.6-0.8,1.7-0.4c0.2,0.4,2,3.8,1.7,6.4
	s0.3,7.1,0.1,8.1c-0.2,1-1,5.3,0,7.8C225.9,287.8,217.3,288,217.3,288z"/>
<path class="st9" d="M410.7,286.6c0,0-14.4,28.8-20.2,38.8c-5.8,10-11.7,16.5-14.6,15.8c-6.5-1.5-32.7-26.8-33.2-26.3
	c-0.5,0.5-2.9,5.5-2.8,5.8c0.1,0.2-21.1,0.1-28,0c-6.9,0.1-28.1,0.2-28,0c0.1-0.3-2.3-5.2-2.8-5.8c-0.5-0.5-26.7,24.9-33.2,26.3
	c-2.9,0.6-8.7-5.9-14.6-15.8c-5.9-10-20.2-38.8-20.2-38.8c6-5.1,13.4-5.1,13.4-5.1c5.6,8.2,23,35.9,23,35.9s20.4-25.9,28.1-29.9
	c7.7-4,22.6-4.5,25.7-5.8l3-11.5c0,0,5,2.3,5.7,2.6c0.8-0.2,5.7-2.6,5.7-2.6l3,11.5c3.1,1.3,18,1.8,25.7,5.8
	c7.7,4,28.1,29.9,28.1,29.9s17.3-27.7,23-35.9C397.3,281.4,404.7,281.5,410.7,286.6z"/>
<path class="st8" d="M289.1,419.9l-6.9,3c0,0,0,0,0,0c-0.5,0.3-4.4,3.1-14.7,5.7c-11.5,2.9-19,2.7-24-2.2c-1.4-1.4-1.8-6.9,7.3-11.2
	c9.3-4.4,27.5-4.3,27.5-4.3s6.2-1,6.6-2c0.5-1.2,3.2,0.5,3.2,0.5L289.1,419.9z"/>
<path class="st6" d="M376.9,388.5c-11.1,10-39.8,21.6-65,28.6c-3.1,0.9-6.1,1.7-9,2.4c-5.4,1.3-10.5,2.4-15,3.1c0,0-4.8-5-5.2-13.1
	v0l2-1.2l65.1-37.9l-10.4-6.8l13.3-1.3c0,0,13.8-4.8,24.5-2C387.8,363.1,391.8,375,376.9,388.5z"/>
<path class="st4" d="M362.4,321.2l-11.3,47.6c0,0.8-0.6,1.4-1.4,1.4h-76c-0.3,0-0.6-0.1-0.8-0.2c-0.4-0.3-0.6-0.7-0.6-1.2
	l-11.3-47.6c0-0.8,0.7-1.4,1.4-1.4H361c0.4,0,0.8,0.2,1,0.5C362.3,320.5,362.4,320.9,362.4,321.2z"/>
<circle class="st7" cx="312.2" cy="346.3" r="3.9"/>
<path class="st8" d="M328.6,260.1c-1.1,2.5-4,2.3-4,2.3l-0.5,2.1v0c-1.5,4.6-5.1,7.6-7.4,8.4c-2.2,0.8-4.7,0.7-5.6,0.6
	c-0.8,0.1-3.4,0.2-5.5-0.6c-2.5-0.8-6.4-4.2-7.7-9.5c-0.1-0.3-0.1-0.6-0.1-0.7c0-0.1,0-0.2-0.1-0.4c0,0-2.9,0.2-4-2.3
	c-1.1-2.5-1-5.4,1.5-5.5c0,0,0,0,0-0.1c-0.2-1-2.5-9.6-1.8-13.9c0.8-4.6,3.3-7,3.3-7s-1.1-2.5-0.4-4.2c0.7-1.7,3-3.2,3-3.2
	c4.9-2.6,10.8-2,15.8-0.5c4,1.1,5.5,3.9,5.5,3.9s3.9,1.3,6.2,5.7c2.9,5.8,0.2,19.3,0.2,19.3C329.5,254.7,329.6,257.6,328.6,260.1z"
	/>
<path class="st8" d="M320.5,281.6c0,0-2,6.1-8.3,6.4c-6.3,0.4-9.1-6.4-9.1-6.4l3-11.5c0,0,5,2.3,5.7,2.6c0.8-0.2,5.7-2.6,5.7-2.6
	L320.5,281.6z"/>
<path class="st10" d="M326.9,235.3c-2.2-4.4-6.2-5.7-6.2-5.7s-1.4-2.8-5.5-3.9c-5-1.4-11-2.1-15.8,0.5c0,0-2.3,1.5-3,3.2
	c-0.7,1.7,0.4,4.2,0.4,4.2s-2.5,2.4-3.3,7c-0.8,4.3,1.5,12.9,1.8,13.9c0,0,0,0.1,0,0.1s1.9,5.9,2.4,7.8c0,0.1,0,0.2,0.1,0.4
	c0,0.1,0.1,0.4,0.1,0.7c1.3,5.2,5.2,8.6,7.7,9.5c2.1,0.8,4.7,0.7,5.5,0.6c0.8,0.1,3.4,0.2,5.6-0.6c2.3-0.8,5.8-3.8,7.4-8.4v0
	l0.5-2.1c0,0,1.6-6.5,2.5-7.8C327,254.5,329.8,241.1,326.9,235.3z M324.4,258.3c-0.3,2.8-0.8,7.5-3.5,7c-2.7-0.5-3.9-2.7-5.3-3.7
	c-1.4-1-3.7-1-3.7-1c-1.9-0.2-4.3,1.5-5.8,3c-1.4,1.5-5,0.9-6.2-0.4c-1.2-1.2-2-6.2-2-6.2s1.5-2.7,1.8-4.8c0.3-2.1-1.2-8.2,1.3-9.8
	c2.4-1.6,5.9-2.6,8.6-2.3s-1.2,1.9-1.7,3.8c-0.4,1.9,5.2,3,8.8,2.8c3.6-0.2,5.9-2.2,7.8-2.1C326.3,244.8,324.7,255.5,324.4,258.3z"
	/>
<path class="st7" d="M311.9,417c-3.1,0.9-6.1,1.7-9,2.4c-7.9-3.9-17.3-8.5-20.2-10.1v0l2-1.2C284.6,408.1,310.3,416.1,311.9,417z"/>
<path class="st11" d="M282.1,422.9C282.1,422.9,282.1,422.9,282.1,422.9c-0.5,0.4-4.5,3.1-14.7,5.8c-11.5,2.9-19,2.7-24-2.2
	c-1.4-1.4-1.8-6.9,7.3-11.2c9.3-4.4,27.5-4.3,27.5-4.3s-5.7,1.2-5.9,6.2C272.1,422,282.1,422.9,282.1,422.9z"/>
<path class="st11" d="M380.3,426.4c-5,5-12.5,5.1-24,2.2c-10.9-2.8-14.7-5.8-14.7-5.8s7.4-0.8,8.8-5c1.3-4.2-4.9-6.9-4.9-6.9
	s0,0,0.1,0c1.5,0,18.6,0.1,27.4,4.3C382.1,419.5,381.7,425,380.3,426.4z"/>
<path class="st11" d="M227.7,384.9c-0.5,2.2-1,6.5,0.9,12.9c1.3,4.3,15.5,22.1,10.7,29.8c2.1,4.3-3.7,11.2-15,10.1
	c-11.1-1.1-19.8-2.2-23.4,0c-6,3.7-3.5,8-7.1,8c-6.7,0-4.8-9.4-0.7-12.5c5.7-4.3,15.2-3.1,15.2-3.1c-8.1-3-0.7-27-0.7-27
	s1.4-8.5,4.6-16.3c2.3-5.6,4.9-10.2,7.4-12.1c-1.1-4.5,0.1-8.9,3.5-10.7c0.7-0.4,1.5-0.6,2.3-0.7l-0.1,0c0,0,10.6-4.1,8.9-1.2
	l-2.1,3.1c1.7,1.2,3.3,2.9,4.5,5.1c1.3,2.4,1.9,5,1.9,7.4c1.6,0,3.8,0.2,3.7,0.8c-0.2,1-4.2,4.3-6.2,5.7c0,0,0,0-0.1,0
	c-0.4,0.4-0.8,0.7-1.2,0.9C232.6,386,230.1,385.9,227.7,384.9z"/>
<path class="st7" d="M219.6,374.6c0,0,2.8,7,8.1,10.2c0,0-3,4.1-5.6,1.8C219.5,384.3,219.6,374.6,219.6,374.6z"/>
<path class="st12" d="M232.4,374.2c0,0-1.7-3.6-2.3-2.4c-0.5,0.9-0.7,2.4,0,2.7C230.9,374.7,233.3,375.4,232.4,374.2z"/>
<path class="st13" d="M118.1,204.8c0.5-0.7,0.8-1,2.3-1.3s2-0.7,4-2.5c1.9-1.8,5.1-2.4,8.2-2.2c3.1,0.2,5.5,1.3,5.5,1.3
	c-0.6-2.1,1.5-3.1,1.9-3.5c0.4-0.4,0.6-1.3,0.6-1.3c3.3,1.5,4.6,4.9,3.2,8.1c-1.4,3.2-4.9,3.4-4.9,3.4s2.1,1,4.8-0.3
	c2.7-1.3,3-4.5,3-4.9c0,0,2.5,1.5,4.1,6.8c1.6,5.3,0,10.9-2,13.2c0,0,0.2-2.6-0.5-4.3c0,0-0.1,5.8-5.7,9.6c0,0,1.6-2.5,2-5.3
	c0,0-3.3,6.4-10.9,6.9c0,0,3-1.2,5.1-4.3c0,0-0.9,0.9-4.1,1.1c0,0,2.6-1.4,3.3-4.4c0.7-2.7,0.3-4.5,0.3-4.5s-0.6,4.4-4.3,6.2
	s-7.3,0.5-8.1-0.3l1.4,0c0,0-1.5-1.1-1.8-2.9c-0.3-2.1,1.1-3.2,2.4-3c1.3,0.2,0.4,1.7,0.4,1.7s-0.2,1.7,2.3,1.8c0,0,0.1-0.1,0.4-0.7
	c0.3-0.5,0.6-1.4,0.6-1.4l0.1,1.7c0,0,1-0.9,1.2-1.3c0.1-0.4,0.3-0.7,0.5-0.7c0.8,0,1.4,1,1.4,1c-0.2-2.7-1.4-4.9-4.3-7.2
	c-3.2-2.4-8-1.5-8-1.5l-1.1,1.4l0-1.5l-0.7,1l-0.2-1.3c-1.3-0.4-1.5-1.8-1.5-1.8C117.6,206.8,117.6,205.6,118.1,204.8z M137.9,196.2
	c-0.2,0.8-1,2.2-0.4,3.1c0,0,0-1.9,1.9-2.8c0,0,0.3-1.6-2.3-1.6C137.1,194.8,138.1,195.4,137.9,196.2z"/>
<path class="st14" d="M229.4,96.3l-16-5.8c0,0-0.1,0-0.1,0c-0.1,0-0.1,0-0.1,0s-0.1,0-0.1,0c0,0,0,0-0.1,0L197,96.4
	c-0.2,0.1-0.4,0.3-0.4,0.6l2.4,21.3c0,0.2,0.1,0.4,0.3,0.4l13.6,7.6h0c0.1,0,0.2,0.1,0.2,0.1c0.1,0,0.2,0,0.3-0.1l13.6-7.6
	c0.2-0.1,0.3-0.2,0.3-0.4l2.4-21.3C229.8,96.7,229.7,96.4,229.4,96.3z"/>
<path class="st15" d="M229.8,96.9l-2.4,21.3c0,0.2-0.1,0.4-0.3,0.4l-13.6,7.6c-0.1,0-0.2,0.1-0.3,0.1V90.5c0,0,0.1,0,0.1,0
	c0,0,0,0,0.1,0l16,5.8C229.7,96.4,229.8,96.7,229.8,96.9z"/>
<path class="st3" d="M213.2,94.8l0,0.1l-10.1,22.6h3.8l2-5.1h4.9v0l3.7,0l2,5.1h3.8L213.2,94.8L213.2,94.8L213.2,94.8L213.2,94.8z
	 M216.1,109.4l-3.5,0h-2.3l2.9-7.1L216.1,109.4z"/>
<path class="st16" d="M281.8,111l17.7-30.2c0.1-0.1,0.4-0.7,0.4-0.7s-0.7,0-0.9,0h-6.9h-6.5c-0.2,0-0.3,0.1-0.4,0.3l-3.4,6.3
	l-3.4-6.3c-0.1-0.2-0.2-0.3-0.4-0.3h-6.5h-6.9c-0.2,0-0.8,0-0.8,0s0.3,0.6,0.4,0.7L281.8,111z"/>
<path class="st17" d="M292.2,80h-6.5c-0.2,0-0.3,0-0.3,0l-3.5,6.6l-3.5-6.6c0,0-0.1,0-0.3,0h-6.5h-0.9c0,0,11.3,18.8,11.3,18.8
	c0,0,11.2-18.8,11.2-18.8H292.2z"/>
<path class="st18" d="M359.1,86.6c1.1-4.3,0.7-7.8-1.4-9c-1.7-1-4.2-0.3-7,1.9c-0.5,0.4-1,0.9-1.5,1.3c-3.2-3.1-6.4-4.5-8.5-3.3
	c-2.1,1.2-2.5,4.6-1.4,9c-4.3,1.3-7.1,3.3-7.1,5.7c0,2.4,2.8,4.4,7.1,5.7c-1.1,4.3-0.7,7.8,1.4,9c0.5,0.3,1.1,0.4,1.7,0.4
	c1.9,0,4.3-1.4,6.8-3.7c0.5,0.5,1,0.9,1.5,1.3c2,1.6,3.8,2.4,5.3,2.4c0.6,0,1.2-0.1,1.7-0.4c2.1-1.2,2.5-4.6,1.4-9
	c4.3-1.3,7.1-3.3,7.1-5.7C366.2,90,363.4,87.9,359.1,86.6z M351.5,80.6c1.7-1.4,3.3-2.1,4.5-2.1c0.4,0,0.8,0.1,1.1,0.3
	c1.4,0.8,1.8,3.7,0.8,7.6c-1.5-0.4-3.1-0.6-4.8-0.8c-1-1.4-2-2.7-3.1-3.7C350.6,81.4,351.1,81,351.5,80.6z M354.3,95.2
	c-0.6,1-1.1,1.9-1.7,2.7c-1,0.1-2.1,0.1-3.2,0.1c-1.1,0-2.2,0-3.2-0.1c-0.6-0.9-1.2-1.8-1.7-2.7c-0.6-1-1.1-1.9-1.5-2.9
	c0.4-0.9,0.9-1.9,1.5-2.9c0.6-1,1.1-1.9,1.7-2.7c1-0.1,2.1-0.1,3.2-0.1c1.1,0,2.2,0,3.2,0.1c0.6,0.9,1.2,1.8,1.7,2.7
	c0.6,1,1.1,1.9,1.5,2.9C355.3,93.3,354.8,94.2,354.3,95.2z M356.4,93.8c0.5,1.2,0.9,2.3,1.2,3.4c-1.1,0.3-2.3,0.5-3.6,0.6
	c0.4-0.6,0.8-1.3,1.2-2C355.7,95.1,356.1,94.4,356.4,93.8z M349.3,102c-0.8-0.8-1.6-1.8-2.3-2.8c0.8,0,1.5,0.1,2.3,0.1
	c0.8,0,1.6,0,2.3-0.1C350.9,100.3,350.1,101.2,349.3,102z M344.5,97.8c-1.3-0.2-2.5-0.4-3.6-0.6c0.3-1.1,0.7-2.2,1.2-3.4
	c0.3,0.7,0.7,1.4,1.1,2.1C343.7,96.5,344.1,97.2,344.5,97.8z M342.2,90.9c-0.5-1.2-0.9-2.3-1.2-3.4c1.1-0.3,2.3-0.5,3.6-0.6
	c-0.4,0.6-0.8,1.3-1.2,2C342.9,89.5,342.5,90.2,342.2,90.9z M351.6,85.4c-0.8,0-1.5-0.1-2.3-0.1c-0.8,0-1.6,0-2.3,0.1
	c0.8-1,1.5-1.9,2.3-2.8C350.1,83.5,350.8,84.4,351.6,85.4z M355.3,88.9c-0.4-0.7-0.8-1.3-1.2-2c1.3,0.2,2.5,0.4,3.6,0.6
	c-0.3,1.1-0.7,2.2-1.2,3.4C356.1,90.2,355.7,89.5,355.3,88.9z M341.4,78.7c0.3-0.2,0.7-0.3,1.1-0.3c1.5,0,3.6,1.2,5.9,3.4
	c-1,1.1-2.1,2.4-3.1,3.7c-1.7,0.2-3.3,0.4-4.8,0.8C339.6,82.4,340,79.6,341.4,78.7z M333.6,92.3c0-1.7,2.3-3.4,6.2-4.5
	c0.4,1.4,1,3,1.7,4.5c-0.7,1.6-1.3,3.1-1.7,4.5C335.9,95.7,333.6,94,333.6,92.3z M341.4,105.9c-1.4-0.8-1.8-3.7-0.8-7.6
	c1.5,0.4,3.1,0.6,4.8,0.8c1,1.4,2,2.6,3.1,3.7C345.5,105.7,342.9,106.8,341.4,105.9z M357.1,105.9c-1.2,0.7-3.3,0-5.6-1.8
	c-0.5-0.4-0.9-0.8-1.4-1.2c1-1.1,2.1-2.3,3.1-3.7c1.7-0.2,3.3-0.4,4.8-0.8C358.9,102.2,358.6,105.1,357.1,105.9z M358.8,96.9
	c-0.4-1.4-1-3-1.7-4.5c0.7-1.6,1.3-3.1,1.7-4.5c3.9,1.1,6.2,2.9,6.2,4.5C365,94,362.7,95.7,358.8,96.9z M352.5,92.3
	c0,1.8-1.4,3.2-3.2,3.2c-1.8,0-3.2-1.4-3.2-3.2s1.4-3.2,3.2-3.2C351.1,89.1,352.5,90.6,352.5,92.3z"/>
<path class="st19" d="M430.5,94.3h-28.8c-1.9,0-3.5,1.6-3.5,3.5v28.8c0,1.9,1.6,3.5,3.5,3.5h28.8c1.9,0,3.5-1.6,3.5-3.5V97.9
	C434.1,95.9,432.5,94.3,430.5,94.3z"/>
<path class="st3" d="M413.5,111.4h5.4v2.8h-4.3v12.4h-1h-1.4h-1v-12.4h-4.3v-2.8h5.4H413.5z M430.1,120.1
	C430.1,120.1,430.1,120.1,430.1,120.1C430.1,120.1,430.1,120.1,430.1,120.1c-1.3-2.4-5.6-2.8-6.2-4.4c-0.4-1,0.4-2,2.5-2
	c2.2,0,3.6,1.1,3.6,1.1v-3.2c0,0-1.4-0.7-4.3-0.6c-2.9,0.1-4.6,1.2-5.3,3c-0.7,1.9,0.1,3.9,1.3,4.8c1.4,1,2.2,1.2,3.3,1.7
	c0.5,0.2,0.9,0.5,1.2,0.7c0,0,0,0,0,0c0.1,0.1,0.1,0.1,0.2,0.2c0.2,0.3,0.6,0.7,0.5,1.3c-0.2,0.8-0.9,1.4-2.4,1.4
	c-1.8,0-3.3-0.6-4.2-1.4v3.3c0,0,1.8,1,4.8,0.8c2.9-0.1,4.3-1.1,4.9-2.2C430.9,122.9,430.6,120.9,430.1,120.1
	C430.1,120.1,430.1,120.1,430.1,120.1z"/>
<path class="st20" d="M469,162.1c0,3.8-3.1,6.9-6.9,6.9s-6.9-3.1-6.9-6.9s3.1-6.9,6.9-6.9S469,158.3,469,162.1z M475.9,151.7
	c2.2,2.9,3.5,6.5,3.5,10.4c0,9.5-7.8,17.3-17.3,17.3s-17.3-7.8-17.3-17.3s7.8-17.3,17.3-17.3c3.9,0,7.6,1.3,10.5,3.6
	c0.4-0.3,0.9-0.5,1.5-0.5c1.3,0,2.4,1.1,2.4,2.4C476.4,150.8,476.2,151.3,475.9,151.7z M478.6,162.1c0-3.7-1.2-7.1-3.3-9.9
	c-0.4,0.2-0.8,0.4-1.3,0.4c-1.3,0-2.4-1.1-2.4-2.4c0-0.5,0.1-0.9,0.4-1.3c-2.8-2.1-6.2-3.4-10-3.4c-9.1,0-16.6,7.4-16.6,16.6
	c0,9.1,7.4,16.6,16.6,16.6C471.2,178.7,478.6,171.3,478.6,162.1z"/>
<path class="st21" d="M491,218.7c-1.6,0.3-2.3,1.9-2.3,1.9s0.8-1.1,2.3-1.2c1.5-0.1,2.1,0.4,2.7,0.6c0.7,0.2,1.1,0,1.1,0
	C493.9,219.1,492.6,218.4,491,218.7z"/>
<path class="st22" d="M496.9,220.1c-0.8-0.3-1.2-0.9-1.7-1.7c-0.7-1-2-1.5-3.6-1.2c-2.1,0.5-2.9,2.3-2.9,2.3c0.7-1,2.3-1.8,4-1.4
	c1.7,0.4,2.4,1.5,2.8,2.2c0.4,0.7,1.1,0.5,1.6,0.5c0.5,0,0.5,0.2,0.8,0.4c0.2,0.3,0.9,0.6,1,0.4c0-0.1,0.1-0.7-0.3-1
	C498.3,220.6,497.7,220.5,496.9,220.1z"/>
<path class="st17" d="M481.2,221.4l-5.3,8.3l-8.8-14.2v14.9h-6.2v-25.3h6.3l8.9,15v-6.7L481.2,221.4z M482.3,205.1h-6.2v6.5h6.2
	V205.1z M500.2,216.5c-0.5-0.6-2.7-4.4-7.9-4.3c-5.2,0.1-7.4,4.1-7.4,4.1l-2.6-4.1h-6.1l5.8,9.2l-5.7,9h6l2.6-4l2.7,4h6l-5.5-8.8
	c-0.2-1,0.1-2.1,1-3.2c0.7-1,2-1.7,3.8-1.6c1.8,0.1,2.5,0.9,3.1,1.9s1.5,1.2,2.2,1.4c0.5,0.1,1.3,0.6,1.3,1.5c0,0.8,0.7,1.2,1,1.2
	c0.3,0,1.2,0.2,1.4-1.2C501.8,220.2,501,217.7,500.2,216.5z"/>
<path class="st23" d="M162.6,141.6c0,0-5.9-0.2-10.4,4.4c-5.5,5.8-4.1,13.1-3.7,14.7c0,0.1,0,0.2,0.1,0.3c-0.5-0.4-0.7-0.6-0.9-0.8
	c-0.6-0.6-1.4-1.9-1.3-2.7c0.2-1.2,1.2-1.5,1-2.8c-0.2-1.3-1-2.3-0.6-3.6c0.3-1.2,1.6-2,2.3-2.7c0.6-0.7,0.4-2,0.4-2.9
	c0.1-0.8,0.8-2,2.1-2.2c1.3-0.1,2.2-0.2,3.2-1c1-0.8,1.3-2.5,3.6-2.6h0.2c1.5,0,2.8,0.8,3.5,1.4
	C162.4,141.4,162.6,141.6,162.6,141.6z"/>
<linearGradient id="SVGID_1_" gradientUnits="userSpaceOnUse" x1="164.1357" y1="148.4351" x2="164.1357" y2="172.7788">
	<stop  offset="0" style="stop-color:#5D2F89"/>
	<stop  offset="1.424575e-02" style="stop-color:#682E89"/>
	<stop  offset="6.207081e-02" style="stop-color:#872988"/>
	<stop  offset="0.1163" style="stop-color:#A32687"/>
	<stop  offset="0.1774" style="stop-color:#B92386"/>
	<stop  offset="0.2489" style="stop-color:#CA2186"/>
	<stop  offset="0.3373" style="stop-color:#D51F85"/>
	<stop  offset="0.4612" style="stop-color:#DC1E85"/>
	<stop  offset="0.8054" style="stop-color:#DE1E85"/>
</linearGradient>
<path class="st24" d="M173.5,165.8c2.8-0.1,5.9-2.7,6.1-2.9c-0.2,0.5-3.1,7.9-10.1,9.3c-7.6,1.6-11.8-0.6-15.8-3.7
	c-1.8-1.4-3.1-3.1-3.9-4.6c-0.7-1.2-1.1-2.3-1.2-2.7c0-0.1,0-0.1,0-0.1c0-0.1,0-0.2-0.1-0.3c-0.7-3.2,0-9.9,5.7-11.9
	c4.4-1.6,8.9,1.4,8.8,1.4l-0.7,0.1c-1,0.2-2.9,0.8-4.4,2.3c-2.2,2.1-2.7,4.2-2.2,8.3c0.6,4.1,4.9,6.3,5.5,6.5
	c-2.1-1.8-2.5-4.7-2.5-4.8c0,0,2.1,3.1,6.1,4.7c4,1.6,7.1,0.7,7.1,0.7c-3.4,0-5-2.1-5-2.1c5.4-0.2,8.9-4,9.4-4.5
	c-2.4,1.8-5.3,1.3-5.3,1.3c1.6-0.7,4.8-4,5.7-7.9c0.9-3.5,0-5.9-0.1-6.2c0.2,0.2,1.5,1.4,1.8,4.3c0.2,3.1-1.9,6.2-1.9,6.2
	c2.3-1.6,3.3-4.8,3.3-4.8s1,2.7-1,6.5C176.8,164.7,173.5,165.8,173.5,165.8z"/>
<linearGradient id="SVGID_2_" gradientUnits="userSpaceOnUse" x1="148.3012" y1="160.7086" x2="179.9701" y2="160.7086">
	<stop  offset="0.2703" style="stop-color:#DE1E85"/>
	<stop  offset="0.3716" style="stop-color:#D61F85"/>
	<stop  offset="0.5291" style="stop-color:#C02286"/>
	<stop  offset="0.723" style="stop-color:#9C2787"/>
	<stop  offset="0.9441" style="stop-color:#6B2D89"/>
	<stop  offset="1" style="stop-color:#5D2F89"/>
</linearGradient>
<path class="st25" d="M178.7,160.9c2-3.8,1-6.5,1-6.5s-1.1,3.2-3.3,4.8c0,0,2.1-3.1,1.9-6.2c-0.2-2.9-1.5-4.1-1.8-4.3
	c0.1,0.4,1,2.7,0.1,6.2c-1,3.8-4.2,7.1-5.7,7.9c0,0,2.9,0.5,5.3-1.3c-0.4,0.5-4,4.3-9.4,4.5c0,0,1.6,2.1,5,2.1c0,0-3.1,0.9-7.1-0.7
	c-4-1.6-6.1-4.7-6.1-4.7c0,0.1,0.4,3,2.5,4.8c-0.4-0.2-3.6-1.8-4.9-4.8c-1.1,0.6-2.1,1.2-2.8,1.9c-0.7,0.6-1.5,1.1-2.3,1.3
	c0.7,0.9,1.6,1.8,2.6,2.7c4,3.1,8.1,5.3,15.8,3.7c7-1.5,9.9-8.8,10.1-9.3c-0.2,0.2-3.3,2.8-6.1,2.9
	C173.5,165.8,176.8,164.7,178.7,160.9z"/>
<linearGradient id="SVGID_3_" gradientUnits="userSpaceOnUse" x1="147.9706" y1="151.7681" x2="175.4995" y2="151.7681">
	<stop  offset="0" style="stop-color:#5D2F89"/>
	<stop  offset="1.574424e-02" style="stop-color:#622E89"/>
	<stop  offset="0.1561" style="stop-color:#882988"/>
	<stop  offset="0.3024" style="stop-color:#A72587"/>
	<stop  offset="0.4542" style="stop-color:#BF2286"/>
	<stop  offset="0.6138" style="stop-color:#D02085"/>
	<stop  offset="0.7861" style="stop-color:#DB1E85"/>
	<stop  offset="0.9946" style="stop-color:#DE1E85"/>
</linearGradient>
<path class="st26" d="M174.6,148c-1.8-2.6-4.9-5.5-12-6.4c0,0-5.9-0.2-10.4,4.4c-5.5,5.8-4.5,13.2-3.4,15.8c0,0-1.1-9.9,5.7-12.7
	c4.3-1.8,8.6,1.1,8.5,1.1c0.1,0,0.2,0.1,0.3,0.1c0.1,0,0.2,0.1,0.2,0.1c0.1,0,0.1,0,0.1,0c1.5,0.6,5.3,2.1,8.4,2
	C176.1,152.6,176,150.1,174.6,148z M167.1,148c-0.4,0-0.7-0.3-0.7-0.7c0-0.4,0.3-0.7,0.7-0.7c0.4,0,0.7,0.3,0.7,0.7
	C167.8,147.7,167.5,148,167.1,148z"/>
<linearGradient id="SVGID_4_" gradientUnits="userSpaceOnUse" x1="155.412" y1="145.7958" x2="162.7724" y2="145.7958">
	<stop  offset="5.405406e-03" style="stop-color:#CD2185"/>
	<stop  offset="0.4426" style="stop-color:#CB2185;stop-opacity:0.5824"/>
	<stop  offset="0.6001" style="stop-color:#C42285;stop-opacity:0.4319"/>
	<stop  offset="0.7124" style="stop-color:#B92486;stop-opacity:0.3247"/>
	<stop  offset="0.8032" style="stop-color:#A82686;stop-opacity:0.238"/>
	<stop  offset="0.8809" style="stop-color:#922887;stop-opacity:0.1637"/>
	<stop  offset="0.9485" style="stop-color:#772C88;stop-opacity:9.914905e-02"/>
	<stop  offset="1" style="stop-color:#5D2F89;stop-opacity:5.000000e-02"/>
</linearGradient>
<path class="st27" d="M162.8,145.3c0,0-0.4,2-1.1,2.2c-0.5,0.1-5,0.6-5.4,0.1s-1.2-2.1-0.6-2.8s1.5-1.1,2.2-1.1
	C159,143.8,162.8,144.9,162.8,145.3z"/>
<path class="st17" d="M501.7,222.2c0-0.1-0.2,0.5-0.6,0.7c-0.4,0.2-0.4,0.4-0.2,0.6S501.9,223.5,501.7,222.2z"/>
<g>
	<g>
		<path class="st28" d="M281.8,117.6c0,0,0,0.2-0.1,0.5"/>
		<path class="st29" d="M281.6,119.1c-0.5,4.9-1.6,21.4,3.8,38.9c9.7,31.6,34.6,28.1,32.6,58.2"/>
		<path class="st28" d="M318,216.7c0,0.2,0,0.3,0,0.5"/>
	</g>
</g>
<g>
	<g>
		<path class="st28" d="M349.3,111.4c0,0,0,0.2-0.1,0.5"/>
		<path class="st30" d="M349,112.8c-1,4.6-3.9,19.4-2,33.7c2.2,17,15.4,52.6-20.8,72.6"/>
		<path class="st28" d="M325.7,219.4c-0.1,0.1-0.3,0.2-0.4,0.2"/>
	</g>
</g>
<g>
	<g>
		<path class="st28" d="M417.4,136c0.1,0.1,0.1,0.2,0.2,0.5"/>
		<path class="st31" d="M417.7,137.4c-0.3,5.9-7,27.3-30.8,33.9c-26.8,7.4-77.4,1.1-82,44.9"/>
		<path class="st28" d="M304.8,216.7c0,0.2,0,0.3,0,0.5"/>
	</g>
</g>
<g>
	<g>
		<path class="st28" d="M450.5,179.4c0,0,0,0.2-0.1,0.5"/>
		<path class="st32" d="M450,180.8c-2.5,7.4-15.7,41.8-50.7,47.5c-31.7,5.2-48.7,0-63.7,3.5"/>
		<path class="st28" d="M335.1,232c-0.2,0-0.3,0.1-0.5,0.1"/>
	</g>
</g>
<g>
	<g>
		<path class="st28" d="M452.8,223.9c0,0-0.2-0.1-0.5-0.2"/>
		<path class="st33" d="M451.4,223.4c-3.7-1.3-15-5.2-36.3-11.2c-26.5-7.5-52.5-6.2-83.1,11.8"/>
		<path class="st28" d="M331.6,224.2c-0.1,0.1-0.3,0.2-0.4,0.3"/>
	</g>
</g>
<g>
	<g>
		<path class="st28" d="M223.3,129.1c0,0,0.1,0.1,0.4,0.3"/>
		<path class="st32" d="M224.4,130.1c3.5,3.4,14.7,15.3,24.6,34.4c15.2,29.1,10.7,38.9,39.2,59.3"/>
		<path class="st28" d="M288.7,224.2c0.1,0.1,0.3,0.2,0.4,0.3"/>
	</g>
</g>
<g>
	<g>
		<path class="st28" d="M178,176c0,0,0.1,0.1,0.4,0.3"/>
		<path class="st34" d="M179.2,176.9c3.4,2.2,15,7.9,44.1,9.7c21,1.3,57.9-10.3,74.1,29.7"/>
		<path class="st28" d="M297.6,216.7c0.1,0.2,0.1,0.3,0.2,0.5"/>
	</g>
</g>
<g>
	<g>
		<path class="st28" d="M157.2,216.2c0,0,0.1-0.1,0.4-0.3"/>
		<path class="st35" d="M158.5,215.4c5.4-3.2,27.6-14.9,53.3-7c22.1,6.8,47.1,25.3,72.7,23.7"/>
		<path class="st28" d="M284.9,232c0.2,0,0.3,0,0.5,0"/>
	</g>
</g>
</svg>
