<svg version="1.1" id="Layer_13" xmlns="http://www.w3.org/2000/svg" xmlns:xlink="http://www.w3.org/1999/xlink" x="0px" y="0px"
	 viewBox="0 0 600 530" style="enable-background:new 0 0 600 530;" xml:space="preserve">
<style type="text/css">
	.st0{fill:#EAEAEA;}
	.st1{fill:#E5E5E5;}
	.st2{fill:#EFEFEF;}
	.st3{fill:#FFFFFF;}
	.st4{fill:#F2F2F2;}
	.st5{fill:#DBDBDB;}
	.st6{fill:#F4F4F4;}
	.st7{fill:#9B84C1;}
	.st8{fill:#EDBCDA;}
	.st9{fill:#D0E7F4;}
	.st10{fill:#EDEDED;}
	.st11{fill:none;stroke:#E5E5E5;stroke-width:0.25;stroke-miterlimit:10;}
	.st12{fill:#E2E2E2;}
	.st13{fill:#B7B7B7;}
	.st14{fill:#EFD1C7;}
	.st15{fill:#50208F;}
	.st16{opacity:0.2;fill:#3D3D75;}
	.st17{fill:#99CFF8;}
	.st18{fill:#363636;}
	.st19{fill:#F5C85C;}
	.st20{fill:#E01D85;}
</style>
<ellipse class="st0" cx="304.3" cy="386.5" rx="281.4" ry="34.1"/>
<path class="st1" d="M139.2,302.2c0,0-45.8-15-40.9-28.2c3.3-9,5.6,0.4,9.3-5.1c4.1-6.1-37.7-32.4-26.4-42.9
	c8.1-7.6,21.4,13.4,22.7,9.5c1.4-4.2-9-11.3-0.7-12.5c9.2-1.3,21.1,24.9,24.6,21.8c3-2.6-12.4-24.1-3.3-22.8s41.6,41.3,37.8,54.1
	C158.5,288.8,139.2,302.2,139.2,302.2z"/>
<path class="st1" d="M453.6,315.4c17.3,2.8,62.1-7.4,59.3-16.7c-2.9-9.3-16.9-5.2-12.8-10.9s29.2-8.4,27.6-13.6
	c-1.6-5.2-11.6-3.4-10.5-5.8s40.1-19.1,34.1-32.7c-5.9-13.6-25.3-8.8-32.8-1.8c-7.5,7-17.9,19.6-20.2,16.5c-2.3-3.1,9.1-13.5,2.4-16
	c-8.8-3.2-18.5,6.5-23,18.6c-5.3,14-9.5,25.6-10,20.5c-0.5-5.4-3.5-10.3-9.6-8.8s-13,17.5-15.6,31.2
	C439.8,309.6,447,314.3,453.6,315.4z"/>
<path class="st1" d="M128.2,320c0,0-72.7-16.7-76.6,8c-1.5,9.4,35.3,10.6,29.2,13.1s-48.2,0.5-45.1,15.6c2.3,10.8,36.1-1.1,35,2.9
	c-1.2,4.3-21.1,9.7-15.3,15.5c6.4,6.4,44.5-13.7,45.6-9.1c0.9,3.8-17.9,13.9-10.1,18.1c7.8,4.2,35.7-9.4,39.6-22
	C134.5,349.3,128.2,320,128.2,320z"/>
<path class="st2" d="M139.6,322c1.7-20.4-15.7-66.1-27-59c-11.4,7-4.7,21-12.2,18.7s-7.6-28.3-19.8-25c-10.5,2.8-3.2,13.2-6.1,14.1
	c-8.8,2.6-28.1-36.7-44.4-24.4c-16.4,12.2-13.1,29.3,1.1,37.3C40.6,289,57,295,53.7,299.3c-2.1,2.7-15.7-3.6-20.2,3.9
	c-5.9,9.7,6.8,27,26,19.6c15.1-5.8,32.5-1.7,26.3,0.9c-6.7,2.8-12.5,8.2-10,14.3c2.4,6.2,23.3,7.2,40.6,4.4S139,329.7,139.6,322z"/>
<path class="st3" d="M123.2,303.9c-1.2-3.1-7.7-14.4-7.7-14.4s2.1,13.1,2.6,16.8c0.4,2.6,4.4,9.7,6.7,13.5
	c-5.9-3.7-15.9-9.8-23.8-15c-2-3.8-5.1-10.4-5.8-12.1c-1.1-2.5-12-15.3-12-15.3s7.9,16.3,9.1,18.3c0.6,0.9,4.3,5.6,6.5,8
	c-4.7-3.1-40.3-26.3-40.3-26.3s-4.1-5.4-6.7-7.1c-2.2-1.4-15.5-8.4-15.5-8.4s9.2,8.9,12.6,11.8c5.3,4.7,9,4.6,9,4.6
	c9.9,6.8,29,19.6,34.2,22.7c1.7,1,4.2,2.5,6.9,4.2c0,0-13-3.8-17-2.7c-4,1.2-26.4,4.3-26.4,4.3l18.8,0.7l24.6-2.3
	c8.5,5.2,20.4,12.4,26.2,16.1c-6,0.4-14.9,1.2-18.5,2.2c-5.7,1.5-15.3,5.2-15.3,5.2s12.8-3.2,15.2-3c1.7,0.2,13-2.2,19.7-3.7
	c1.5,0.9,2.5,1.5,2.5,1.5l1-1.1c0,0-0.6-0.3-1.4-0.9c1.7-0.4,2.9-0.6,2.9-0.6s-1.4,0.1-3.5,0.2c-0.5-0.3-1.1-0.7-1.8-1.1
	L123.2,303.9z"/>
<path class="st1" d="M473.6,339.5c12.6-9.9,52.8-21.8,54.5-13.2c1.7,8.6-11.6,12-5.6,14.2c2.3,0.9,26.9-6.4,27.8-1.6
	c0.9,4.8-7.9,7.9-6,9.2c1.9,1.2,24.9-5.6,30,11.2c3.9,12.8-4.7,15.5-18.7,12.9c-9.1-1.7-18.2-4.9-18.7-1.4c-0.6,3.5,13,6.6,8.7,11.5
	c-5.7,6.5-22.8,6-27.6-3.8c-4.8-9.8-17.1-16.5-15.3-12.3c1.9,4.5,1.5,9.6-4,11.2s-17.8-8-25.7-17.6
	C465.1,350.3,468.8,343.3,473.6,339.5z"/>
<path class="st3" d="M489.3,338.4c2.7-0.8,13.9-2.7,13.9-2.7s-9.9,4.8-12.7,6.2c-1.9,1-8.4,2-12.1,2.6c5.8,1.2,15.4,3.2,23.2,4.7
	c3.7-0.7,9.3-1.9,10.8-2.3c2.3-0.6,16.9-1,16.9-1s-15.3,3.4-17.3,3.7c-0.9,0.1-5.9,0-8.8,0c4.7,0.9,36.8,7.4,36.8,7.4
	c3.4-0.2,8.3-0.4,9.6,0c2.1,0.6,16.3,4.6,16.3,4.6s-11.1-0.6-14.9-0.8c-9.1-0.6-11.7-2.9-11.7-2.9c-10.1-1.8-25.7-4.6-30.6-5.8
	c-1.7-0.4-4-0.9-6.7-1.5c0,0,9.8,4.6,11.3,7c1.4,2.4,11.9,14.6,11.9,14.6l-11-8.8L502,350.7c-8.2-1.8-19.7-4.3-25.4-5.5
	c3.1,3.1,7.5,7.7,8.9,9.9c2.2,3.4,1.3,4.3,1.3,4.3s-1.3-2.2-2.8-3.3c-1-0.7-5.8-7.3-8.6-11.2c-1.5-0.3-2.4-0.5-2.4-0.5l0.2-1
	c0,0,0.5,0.1,1.4,0.3c-0.7-1-1.2-1.7-1.2-1.7s0.7,0.7,1.8,1.8c0.5,0.1,1.1,0.2,1.7,0.4L489.3,338.4z"/>
<path class="st3" d="M469.7,309c3.1-0.7,7.9-4.6,7.9-4.6s-5.2,0.3-8.6,0.4c-2.4,0.1-9.1,2.6-13,4c4.9-4.3,13.2-11.5,19.9-17.3
	c3.9-1.3,9.9-3.2,11.5-3.6c2.5-0.7,16.8-8.2,16.8-8.2s-16.5,4.9-18.6,5.8c-1,0.4-3.8,1.9-6.5,3.5c4-3.4,7.1-5.9,7.9-6.3
	c1.7-0.9,13.4-11.8,21.7-19.6c3.4-1.7,8.2-4.1,9.3-5.2c1.7-1.7,13.3-13.3,13.3-13.3s-10.6,6.3-13.9,8.9
	c-3.3,2.6-12.1,11.3-12.1,11.3l0,0c-8.8,7.2-19.9,16.4-24.1,20.2c-1.4,1.3-3.4,3.1-5.6,5.1c0,0,7.1-9.8,7.2-13
	c0.1-3.2,3.8-20.8,3.8-20.8l-6,14.5l-5.1,19.2c-7,6.3-16.7,14.9-21.6,19.2c1.4-4.7,3.3-11.7,3.5-14.5c0.3-4.6-0.2-12.2-0.2-12.2
	s-0.9,10.2-1.8,12c-0.6,1.3-1.8,10.3-2.5,15.6c-1.3,1.1-2,1.8-2,1.8l0.6,0.9c0,0,0.5-0.4,1.2-1c-0.2,1.4-0.3,2.3-0.3,2.3
	s0.3-1.1,0.8-2.8c0.4-0.4,0.9-0.8,1.5-1.3L469.7,309z"/>
<path class="st2" d="M549.4,342.9c22.8-5.7,30.8-19.7,24.7-20.7c-5.6-0.9-9.5,3.5-15.7,2.8c-10.2-1.2-24.2-2.5-18.3-7.8
	c5.8-5.3,12.3,6.8,27.5-0.4s15.5-13.8,14.6-22c-0.8-8.2-4.8,1.3-8.4,4.4c-3.6,3.1-14.7,11.7-17.9,6.9c-3.2-4.8,7.3-4.9,14.5-11.6
	c7.2-6.6,10.2-19.4,8.4-25.3c-1.8-5.9-19.7,19-24.5,15.3c-8.5-6.5,11.7-15.5,12.7-20.4c0.9-4.9-4.6-5.8-18.9-3.6
	c-14.2,2.3-10.5,21-18.1,25.7c-7.6,4.7-3.8-2.4-3.8-7.7c-0.1-8.7,19.4-20.5,2.1-21.2c-9.7-0.5-17.6,10-20,17.3
	c-2.3,7.3-4.7,14.7-7.8,9.8c-3.2-4.8,14.2-31.9-0.4-29.2c-14.6,2.6-33.1,42.9-33.5,44.2c0,0-22.2,47.7-17.6,55.3
	c0,0,64.6,7.8,68.2-0.1c2.3-4.9-12.7-8.8-12.8-12.6c-0.1-4.8,4.7-2,9,0.6C517.5,345.3,525.8,348.7,549.4,342.9z M573.5,307.4
	c3.5,1.7-8,6-9,5.6C558,311,570,305.7,573.5,307.4z M566.3,285.9c11.5-1.4-7.6,7.3-7.6,7.3s-3.8,2.8-10.8,3.9
	C540.8,298.4,554.8,287.4,566.3,285.9z M551.1,268.6c6.6-1.1-7.8,14-7.8,14C534.3,284.2,544.5,269.8,551.1,268.6z M522.1,266.9
	c9-6.4-1.5,11.9-1.5,11.9C512.4,285.9,513.2,273.3,522.1,266.9z M512.9,310.2c-6.2,1.5-2.6-15.3,5.3-18.2
	C526.3,289.1,512.9,310.2,512.9,310.2z M521.3,331.3c-0.7-8.7,17.7-0.2,17.7-0.2C543.6,337.6,522.1,340,521.3,331.3z M526.3,310.1
	c-11.3,1.2,13.7-7.9,13.7-7.9C546.2,303.5,537.7,308.9,526.3,310.1z"/>
<path class="st1" d="M123.9,355V141.5c0-8.1,6.6-14.7,14.7-14.7h327.6c8.1,0,14.7,6.6,14.7,14.7V355H123.9z"/>
<path class="st3" d="M468.2,346H136.6c-1.7,0-3-1.4-3-3V138.9c0-1.7,1.3-3,3-3h331.7c1.7,0,3,1.3,3,3V343
	C471.2,344.6,469.9,346,468.2,346z"/>
<polygon class="st4" points="542.3,380.7 62.5,380.7 123.9,355 480.9,355 "/>
<path class="st5" d="M534.3,391.7H70.5c-4.4,0-8-3.6-8-8.1v-2.9h479.9v2.9C542.3,388.1,538.7,391.7,534.3,391.7z"/>
<path class="st5" d="M157.7,361.9h16.9c0.9,0,1.5,0.1,1.3,0.2l-3.7,2.4c-0.2,0.1-1.1,0.2-2.1,0.2h-17.5c-0.9,0-1.5-0.1-1.3-0.2
	l4.3-2.4C155.9,362,156.8,361.9,157.7,361.9z M182.5,361.9h16.9c0.9,0,1.5,0.1,1.4,0.2l-3,2.4c-0.2,0.1-1.1,0.2-2,0.2h-17.5
	c-0.9,0-1.6-0.1-1.4-0.2l3.6-2.4C180.7,362,181.6,361.9,182.5,361.9z M207.3,361.9h16.9c0.9,0,1.6,0.1,1.4,0.2l-2.2,2.4
	c-0.1,0.1-1,0.2-1.9,0.2h-17.5c-0.9,0-1.6-0.1-1.4-0.2l2.8-2.4C205.5,362,206.3,361.9,207.3,361.9z M232,361.9h16.9
	c0.9,0,1.6,0.1,1.5,0.2l-1.5,2.4c-0.1,0.1-0.9,0.2-1.9,0.2h-17.5c-0.9,0-1.6-0.1-1.5-0.2l2.1-2.4C230.2,362,231.1,361.9,232,361.9z
	 M256.8,361.9h16.9c0.9,0,1.6,0.1,1.6,0.2l-0.8,2.4c0,0.1-0.8,0.2-1.8,0.2h-17.5c-0.9,0-1.7-0.1-1.6-0.2l1.4-2.4
	C255,362,255.8,361.9,256.8,361.9z M281.5,361.9h16.9c0.9,0,1.7,0.1,1.7,0.2l-0.1,2.4c0,0.1-0.8,0.2-1.7,0.2h-17.5
	c-0.9,0-1.7-0.1-1.7-0.2l0.7-2.4C279.8,362,280.6,361.9,281.5,361.9z M306.3,361.9h16.9c0.9,0,1.7,0.1,1.7,0.2l0.7,2.4
	c0,0.1-0.7,0.2-1.6,0.2h-17.5c-0.9,0-1.7-0.1-1.7-0.2l-0.1-2.4C304.6,362,305.4,361.9,306.3,361.9z M331,361.9h16.9
	c0.9,0,1.7,0.1,1.8,0.2l1.4,2.4c0.1,0.1-0.6,0.2-1.6,0.2H332c-0.9,0-1.8-0.1-1.8-0.2l-0.8-2.4C329.4,362,330.1,361.9,331,361.9z
	 M355.8,361.9h16.9c0.9,0,1.7,0.1,1.9,0.2l2.1,2.4c0.1,0.1-0.6,0.2-1.5,0.2h-17.5c-0.9,0-1.8-0.1-1.9-0.2l-1.5-2.4
	C354.2,362,354.9,361.9,355.8,361.9z M380.5,361.9h16.9c0.9,0,1.8,0.1,1.9,0.2l2.8,2.4c0.2,0.1-0.5,0.2-1.4,0.2h-17.5
	c-0.9,0-1.8-0.1-1.9-0.2l-2.3-2.4C379,362,379.6,361.9,380.5,361.9z M159.3,365.3h17.6c1,0,1.6,0.1,1.4,0.2l-3.8,2.6
	c-0.2,0.1-1.2,0.3-2.2,0.3H154c-1,0-1.6-0.1-1.3-0.3l4.4-2.6C157.3,365.5,158.3,365.3,159.3,365.3z M185.1,365.3h17.6
	c1,0,1.6,0.1,1.4,0.2l-3,2.6c-0.2,0.1-1.1,0.3-2.1,0.3h-18.3c-1,0-1.6-0.1-1.4-0.3l3.6-2.6C183.2,365.5,184.1,365.3,185.1,365.3z
	 M210.9,365.3h17.6c1,0,1.6,0.1,1.5,0.2l-2.2,2.6c-0.1,0.1-1,0.3-2,0.3h-18.3c-1,0-1.7-0.1-1.5-0.3l2.9-2.6
	C209,365.5,209.9,365.3,210.9,365.3z M236.7,365.3h17.6c1,0,1.7,0.1,1.6,0.2l-1.4,2.6c-0.1,0.1-0.9,0.3-1.9,0.3h-18.3
	c-1,0-1.7-0.1-1.6-0.3l2.1-2.6C234.9,365.5,235.7,365.3,236.7,365.3z M262.5,365.3h17.6c1,0,1.7,0.1,1.7,0.2l-0.6,2.6
	c0,0.1-0.9,0.3-1.9,0.3H261c-1,0-1.7-0.1-1.7-0.3l1.3-2.6C260.7,365.5,261.5,365.3,262.5,365.3z M288.3,365.3H306
	c1,0,1.7,0.1,1.7,0.2l0.2,2.6c0,0.1-0.8,0.3-1.8,0.3h-18.3c-1,0-1.8-0.1-1.7-0.3l0.5-2.6C286.6,365.5,287.4,365.3,288.3,365.3z
	 M314.1,365.3h17.6c1,0,1.8,0.1,1.8,0.2l1,2.6c0.1,0.1-0.7,0.3-1.7,0.3h-18.3c-1,0-1.8-0.1-1.8-0.3l-0.3-2.6
	C312.4,365.5,313.2,365.3,314.1,365.3z M339.9,365.3h17.6c1,0,1.8,0.1,1.9,0.2l1.8,2.6c0.1,0.1-0.6,0.3-1.6,0.3h-18.3
	c-1,0-1.8-0.1-1.9-0.3l-1.1-2.6C338.3,365.5,339,365.3,339.9,365.3z M365.7,365.3h17.6c1,0,1.8,0.1,2,0.2l2.5,2.6
	c0.1,0.1-0.5,0.3-1.5,0.3h-18.3c-1,0-1.9-0.1-2-0.3l-1.9-2.6C364.1,365.5,364.8,365.3,365.7,365.3z M160.2,369.2h18.4
	c1,0,1.6,0.1,1.4,0.3l-3.9,2.9c-0.2,0.2-1.2,0.3-2.3,0.3h-19.1c-1,0-1.7-0.1-1.4-0.3l4.6-2.9C158.2,369.3,159.2,369.2,160.2,369.2z
	 M187.2,369.2h18.4c1,0,1.7,0.1,1.5,0.3l-3,2.9c-0.2,0.2-1.1,0.3-2.2,0.3h-19.1c-1,0-1.7-0.1-1.5-0.3l3.8-2.9
	C185.2,369.3,186.2,369.2,187.2,369.2z M214.1,369.2h18.4c1,0,1.7,0.1,1.6,0.3l-2.2,2.9c-0.1,0.2-1.1,0.3-2.1,0.3h-19.1
	c-1,0-1.7-0.1-1.6-0.3l2.9-2.9C212.2,369.3,213.1,369.2,214.1,369.2z M241.1,369.2h18.4c1,0,1.8,0.1,1.7,0.3l-1.3,2.9
	c-0.1,0.2-1,0.3-2,0.3h-19.1c-1,0-1.8-0.1-1.7-0.3l2-2.9C239.2,369.3,240.1,369.2,241.1,369.2z M268,369.2h18.4c1,0,1.8,0.1,1.8,0.3
	l-0.4,2.9c0,0.2-0.9,0.3-1.9,0.3h-19.1c-1,0-1.8-0.1-1.8-0.3l1.2-2.9C266.2,369.3,267,369.2,268,369.2z M295,369.2h18.4
	c1,0,1.8,0.1,1.8,0.3l0.4,2.9c0,0.2-0.8,0.3-1.8,0.3h-19.1c-1,0-1.9-0.1-1.8-0.3l0.3-2.9C293.2,369.3,294,369.2,295,369.2z
	 M321.9,369.2h18.4c1,0,1.9,0.1,1.9,0.3l1.3,2.9c0.1,0.2-0.7,0.3-1.7,0.3h-19.1c-1,0-1.9-0.1-1.9-0.3l-0.6-2.9
	C320.2,369.3,320.9,369.2,321.9,369.2z M391.5,365.3h17.6c1,0,1.9,0.1,2,0.2l3.3,2.6c0.2,0.1-0.5,0.3-1.5,0.3h-18.3
	c-1,0-1.9-0.1-2.1-0.3l-2.7-2.6C389.9,365.5,390.6,365.3,391.5,365.3z M417.3,365.3H435c1,0,1.9,0.1,2.1,0.2l4.1,2.6
	c0.2,0.1-0.4,0.3-1.4,0.3h-18.3c-1,0-2-0.1-2.1-0.3l-3.5-2.6C415.8,365.5,416.4,365.3,417.3,365.3z M405.3,361.9h16.9
	c0.9,0,1.8,0.1,2,0.2l3.6,2.4c0.2,0.1-0.4,0.2-1.4,0.2h-17.5c-0.9,0-1.9-0.1-2-0.2l-3-2.4C403.8,362,404.4,361.9,405.3,361.9z
	 M430.1,361.9H447c0.9,0,1.8,0.1,2.1,0.2l4.3,2.4c0.2,0.1-0.3,0.2-1.3,0.2h-17.5c-0.9,0-1.9-0.1-2.1-0.2l-3.7-2.4
	C428.6,362,429.2,361.9,430.1,361.9z M348.9,369.2h18.4c1,0,1.9,0.1,2,0.3l2.1,2.9c0.1,0.2-0.6,0.3-1.7,0.3h-19.1
	c-1,0-1.9-0.1-2-0.3l-1.4-2.9C347.2,369.3,347.9,369.2,348.9,369.2z M375.9,369.2h18.4c1,0,1.9,0.1,2.1,0.3l3,2.9
	c0.2,0.2-0.5,0.3-1.6,0.3h-19.1c-1,0-2-0.1-2.1-0.3l-2.3-2.9C374.2,369.3,374.9,369.2,375.9,369.2z M402.8,369.2h18.4
	c1,0,2,0.1,2.2,0.3l3.9,2.9c0.2,0.2-0.4,0.3-1.5,0.3h-19.1c-1,0-2-0.1-2.2-0.3l-3.2-2.9C401.2,369.3,401.8,369.2,402.8,369.2z
	 M454.9,361.9H481c0.9,0,1.9,0.1,2.2,0.2l5.3,2.4c0.3,0.1-0.2,0.2-1.2,0.2h-27c-0.9,0-1.9-0.1-2.2-0.2l-4.4-2.4
	C453.4,362,453.9,361.9,454.9,361.9z M443.2,365.3h45.4c1,0,2,0.1,2.3,0.2l5.8,2.6c0.3,0.1-0.2,0.3-1.2,0.3h-47.1
	c-1,0-2-0.1-2.2-0.3l-4.3-2.6C441.6,365.5,442.2,365.3,443.2,365.3z M429.8,369.2h67.1c1,0,2.1,0.1,2.4,0.3l6.3,2.9
	c0.4,0.2-0.2,0.3-1.2,0.3h-69.7c-1,0-2.1-0.1-2.3-0.3l-4-2.9C428.2,369.3,428.8,369.2,429.8,369.2z M123.7,361.9h26.1
	c0.9,0,1.5,0.1,1.2,0.2l-4.4,2.4c-0.2,0.1-1.2,0.2-2.2,0.2h-27c-0.9,0-1.5-0.1-1.2-0.2l5.3-2.4C121.8,362,122.8,361.9,123.7,361.9z
	 M116.1,365.3h34.9c1,0,1.5,0.1,1.3,0.2l-4.6,2.6c-0.3,0.1-1.3,0.3-2.3,0.3h-36.2c-1,0-1.5-0.1-1.2-0.3l5.8-2.6
	C114.2,365.5,115.2,365.3,116.1,365.3z M107.8,369.2h43.8c1,0,1.6,0.1,1.4,0.3l-4.8,2.9c-0.3,0.2-1.3,0.3-2.4,0.3h-45.5
	c-1,0-1.6-0.1-1.2-0.3l6.3-2.9C105.8,369.3,106.8,369.2,107.8,369.2z M98.9,373.3h29.8c1,0,1.6,0.1,1.3,0.3l-5.8,3.1
	c-0.3,0.2-1.5,0.3-2.6,0.3h-31c-1.1,0-1.6-0.1-1.3-0.3l6.9-3.1C96.7,373.4,97.8,373.3,98.9,373.3z M137.6,373.3h19.3
	c1,0,1.7,0.1,1.4,0.3l-4.8,3.2c-0.3,0.2-1.4,0.3-2.5,0.3H131c-1.1,0-1.7-0.1-1.4-0.3l5.6-3.2C135.5,373.4,136.6,373.3,137.6,373.3z
	 M165.8,373.3h29.8c1,0,1.7,0.1,1.6,0.3l-3.5,3.1c-0.2,0.2-1.2,0.3-2.3,0.3h-31c-1.1,0-1.8-0.1-1.5-0.3l4.6-3.1
	C163.8,373.4,164.8,373.3,165.8,373.3z M486.6,373.3h19.3c1,0,2.2,0.1,2.5,0.3l6.9,3.2c0.4,0.2-0.2,0.3-1.3,0.3H494
	c-1.1,0-2.2-0.1-2.6-0.3l-6.1-3.2C485,373.4,485.6,373.3,486.6,373.3z M204.6,373.3h179.9c1,0,2,0.1,2.2,0.3l2.8,3.1
	c0.2,0.2-0.6,0.3-1.7,0.3H200.7c-1.1,0-1.8-0.1-1.6-0.3l3.3-3.1C202.6,373.4,203.5,373.3,204.6,373.3z M447.9,373.3h29.8
	c1,0,2.1,0.1,2.5,0.3l6,3.1c0.3,0.2-0.3,0.3-1.4,0.3h-31c-1.1,0-2.2-0.1-2.5-0.3l-4.8-3.1C446.2,373.4,446.8,373.3,447.9,373.3z
	 M419.7,373.3h19.3c1,0,2.1,0.1,2.3,0.3l4.7,3.2c0.3,0.2-0.4,0.3-1.5,0.3h-20.1c-1.1,0-2.1-0.1-2.4-0.3l-3.9-3.2
	C417.9,373.4,418.6,373.3,419.7,373.3z M391.4,373.3h19.3c1,0,2,0.1,2.2,0.3l3.7,3.2c0.2,0.2-0.5,0.3-1.6,0.3H395
	c-1.1,0-2.1-0.1-2.3-0.3l-2.9-3.2C389.7,373.4,390.4,373.3,391.4,373.3z M157.7,361.9h16.9c0.9,0,1.5,0.1,1.3,0.2l-3.7,2.4
	c-0.2,0.1-1.1,0.2-2.1,0.2h-17.5c-0.9,0-1.5-0.1-1.3-0.2l4.3-2.4C155.9,362,156.8,361.9,157.7,361.9z M182.5,361.9h16.9
	c0.9,0,1.5,0.1,1.4,0.2l-3,2.4c-0.2,0.1-1.1,0.2-2,0.2h-17.5c-0.9,0-1.6-0.1-1.4-0.2l3.6-2.4C180.7,362,181.6,361.9,182.5,361.9z
	 M207.3,361.9h16.9c0.9,0,1.6,0.1,1.4,0.2l-2.2,2.4c-0.1,0.1-1,0.2-1.9,0.2h-17.5c-0.9,0-1.6-0.1-1.4-0.2l2.8-2.4
	C205.5,362,206.3,361.9,207.3,361.9z M232,361.9h16.9c0.9,0,1.6,0.1,1.5,0.2l-1.5,2.4c-0.1,0.1-0.9,0.2-1.9,0.2h-17.5
	c-0.9,0-1.6-0.1-1.5-0.2l2.1-2.4C230.2,362,231.1,361.9,232,361.9z M256.8,361.9h16.9c0.9,0,1.6,0.1,1.6,0.2l-0.8,2.4
	c0,0.1-0.8,0.2-1.8,0.2h-17.5c-0.9,0-1.7-0.1-1.6-0.2l1.4-2.4C255,362,255.8,361.9,256.8,361.9z M281.5,361.9h16.9
	c0.9,0,1.7,0.1,1.7,0.2l-0.1,2.4c0,0.1-0.8,0.2-1.7,0.2h-17.5c-0.9,0-1.7-0.1-1.7-0.2l0.7-2.4C279.8,362,280.6,361.9,281.5,361.9z
	 M306.3,361.9h16.9c0.9,0,1.7,0.1,1.7,0.2l0.7,2.4c0,0.1-0.7,0.2-1.6,0.2h-17.5c-0.9,0-1.7-0.1-1.7-0.2l-0.1-2.4
	C304.6,362,305.4,361.9,306.3,361.9z M331,361.9h16.9c0.9,0,1.7,0.1,1.8,0.2l1.4,2.4c0.1,0.1-0.6,0.2-1.6,0.2H332
	c-0.9,0-1.8-0.1-1.8-0.2l-0.8-2.4C329.4,362,330.1,361.9,331,361.9z M355.8,361.9h16.9c0.9,0,1.7,0.1,1.9,0.2l2.1,2.4
	c0.1,0.1-0.6,0.2-1.5,0.2h-17.5c-0.9,0-1.8-0.1-1.9-0.2l-1.5-2.4C354.2,362,354.9,361.9,355.8,361.9z M380.5,361.9h16.9
	c0.9,0,1.8,0.1,1.9,0.2l2.8,2.4c0.2,0.1-0.5,0.2-1.4,0.2h-17.5c-0.9,0-1.8-0.1-1.9-0.2l-2.3-2.4C379,362,379.6,361.9,380.5,361.9z
	 M405.3,361.9h16.9c0.9,0,1.8,0.1,2,0.2l3.6,2.4c0.2,0.1-0.4,0.2-1.4,0.2h-17.5c-0.9,0-1.9-0.1-2-0.2l-3-2.4
	C403.8,362,404.4,361.9,405.3,361.9z M430.1,361.9H447c0.9,0,1.8,0.1,2.1,0.2l4.3,2.4c0.2,0.1-0.3,0.2-1.3,0.2h-17.5
	c-0.9,0-1.9-0.1-2.1-0.2l-3.7-2.4C428.6,362,429.2,361.9,430.1,361.9z M130.7,358.6H147c0.9,0,1.4,0.1,1.2,0.2l-4.3,2.2
	c-0.2,0.1-1.2,0.2-2.1,0.2h-16.8c-0.9,0-1.4-0.1-1.2-0.2l4.9-2.2C128.9,358.7,129.8,358.6,130.7,358.6z M154.5,358.6h16.3
	c0.9,0,1.4,0.1,1.2,0.2l-3.7,2.2c-0.2,0.1-1.1,0.2-2,0.2h-16.8c-0.9,0-1.5-0.1-1.2-0.2l4.2-2.2C152.7,358.7,153.6,358.6,154.5,358.6
	z M178.3,358.6h16.3c0.9,0,1.5,0.1,1.3,0.2l-3,2.2c-0.2,0.1-1,0.2-1.9,0.2h-16.8c-0.9,0-1.5-0.1-1.3-0.2l3.5-2.2
	C176.5,358.7,177.4,358.6,178.3,358.6z M202.1,358.6h16.3c0.9,0,1.5,0.1,1.4,0.2l-2.3,2.2c-0.1,0.1-1,0.2-1.9,0.2h-16.8
	c-0.9,0-1.5-0.1-1.4-0.2l2.9-2.2C200.4,358.7,201.2,358.6,202.1,358.6z M225.9,358.6h16.3c0.9,0,1.5,0.1,1.4,0.2l-1.7,2.2
	c-0.1,0.1-0.9,0.2-1.8,0.2h-16.8c-0.9,0-1.5-0.1-1.4-0.2l2.2-2.2C224.2,358.7,225,358.6,225.9,358.6z M249.7,358.6h16.3
	c0.9,0,1.6,0.1,1.5,0.2l-1,2.2c-0.1,0.1-0.8,0.2-1.7,0.2h-16.8c-0.9,0-1.6-0.1-1.5-0.2l1.5-2.2C248,358.7,248.8,358.6,249.7,358.6z
	 M273.4,358.6h16.3c0.9,0,1.6,0.1,1.6,0.2l-0.3,2.2c0,0.1-0.8,0.2-1.7,0.2h-16.8c-0.9,0-1.6-0.1-1.6-0.2l0.9-2.2
	C271.8,358.7,272.6,358.6,273.4,358.6z M297.2,358.6h16.3c0.9,0,1.6,0.1,1.6,0.2l0.4,2.2c0,0.1-0.7,0.2-1.6,0.2h-16.8
	c-0.9,0-1.6-0.1-1.6-0.2l0.2-2.2C295.6,358.7,296.4,358.6,297.2,358.6z M321,358.6h16.3c0.9,0,1.6,0.1,1.7,0.2l1,2.2
	c0.1,0.1-0.6,0.2-1.5,0.2h-16.8c-0.9,0-1.7-0.1-1.7-0.2l-0.5-2.2C319.4,358.7,320.1,358.6,321,358.6z M344.8,358.6h16.3
	c0.9,0,1.7,0.1,1.8,0.2l1.7,2.2c0.1,0.1-0.6,0.2-1.5,0.2h-16.8c-0.9,0-1.7-0.1-1.8-0.2l-1.2-2.2
	C343.3,358.7,343.9,358.6,344.8,358.6z M368.6,358.6h16.3c0.9,0,1.7,0.1,1.8,0.2l2.4,2.2c0.1,0.1-0.5,0.2-1.4,0.2h-16.8
	c-0.9,0-1.7-0.1-1.8-0.2l-1.8-2.2C367.1,358.7,367.7,358.6,368.6,358.6z M392.4,358.6h16.3c0.9,0,1.7,0.1,1.9,0.2l3,2.2
	c0.2,0.1-0.4,0.2-1.3,0.2h-16.8c-0.9,0-1.8-0.1-1.9-0.2l-2.5-2.2C390.9,358.7,391.5,358.6,392.4,358.6z M416.2,358.6h16.3
	c0.9,0,1.8,0.1,1.9,0.2l3.7,2.2c0.2,0.1-0.4,0.2-1.3,0.2H420c-0.9,0-1.8-0.1-2-0.2l-3.2-2.2C414.7,358.7,415.3,358.6,416.2,358.6z
	 M440,358.6h34c0.9,0,1.8,0.1,2.1,0.2l4.9,2.2c0.3,0.1-0.2,0.2-1.2,0.2h-35.2c-0.9,0-1.8-0.1-2-0.2l-3.8-2.2
	C438.6,358.7,439.1,358.6,440,358.6z"/>
<path class="st6" d="M209.7,316.9h-8.4v-4.3h8.4V316.9z M239.3,270.7h-22.1v4.3h22.1V270.7z M239.3,281.2h-22.1v4.3h22.1V281.2z
	 M226.1,323.1h-6.5v4.3h6.5V323.1z M234.9,334.3h-2.6v4.3h2.6V334.3z M272.5,312.3h-22.1v4.3h22.1V312.3z M352,301.8H287v4.3H352
	V301.8z M364.5,281.2h-4.1v4.3h4.1V281.2z"/>
<path class="st7" d="M210.7,296.3h-10.6V292h10.6V296.3z M210.7,302.5h-8.4v4.3h8.4V302.5z M228.2,313h-8.7v4.3h8.7V313z
	 M274.5,281.5h-22.1v4.3h22.1V281.5z M354,271h-64.9v4.3H354V271z M354,292h-64.9v4.3H354V292z M354,312.7h-64.9v4.3H354V312.7z
	 M354,323.1h-64.9v4.3H354V323.1z M366.6,292h-4.1v4.3h4.1V292z M366.6,302.2h-4.1v4.3h4.1V302.2z M366.6,323.1h-4.1v4.3h4.1V323.1z
	"/>
<path class="st8" d="M210.7,275.3h-10.6V271h10.6V275.3z M210.7,281.5h-10.6v4.3h10.6V281.5z M210.7,323.5h-6.3v4.3h6.3V323.5z
	 M240.3,292h-22.1v4.3h22.1V292z M239,313h-8.7v4.3h8.7V313z M237.9,323.5h-6.5v4.3h6.5V323.5z M228.2,302.5h-8.7v4.3h8.7V302.5z
	 M225.1,334.6h-2.6v4.3h2.6V334.6z M274.5,271h-22.1v4.3h22.1V271z M274.5,292h-22.1v4.3h22.1V292z M274.5,302.2h-22.1v4.3h22.1
	V302.2z M274.5,323.1h-22.1v4.3h22.1V323.1z M354,281.5h-64.9v4.3H354V281.5z M366.6,271h-4.1v4.3h4.1V271z M366.6,312.7h-4.1v4.3
	h4.1V312.7z M366.6,332.4h-1.4v4.3h1.4V332.4z"/>
<rect x="217.2" y="249.4" class="st6" width="22.1" height="4.3"/>
<rect x="217.2" y="259.9" class="st6" width="22.1" height="4.3"/>
<rect x="360.5" y="259.9" class="st6" width="4.1" height="4.3"/>
<rect x="252.4" y="260.3" class="st7" width="22.1" height="4.3"/>
<rect x="289.1" y="249.8" class="st7" width="64.9" height="4.3"/>
<rect x="200.1" y="249.8" class="st8" width="10.6" height="4.3"/>
<rect x="200.1" y="260.3" class="st8" width="10.6" height="4.3"/>
<rect x="252.4" y="249.8" class="st8" width="22.1" height="4.3"/>
<rect x="289.1" y="260.3" class="st8" width="64.9" height="4.3"/>
<rect x="362.5" y="249.8" class="st8" width="4.1" height="4.3"/>
<ellipse class="st5" cx="343.8" cy="233.2" rx="2.8" ry="2.2"/>
<ellipse class="st5" cx="357.3" cy="233.2" rx="2.8" ry="2.2"/>
<path class="st3" d="M376.8,332.9v-65.7c0-1.1,0.9-1.9,1.9-1.9h75.6c1.1,0,1.9,0.9,1.9,1.9v65.7H376.8z"/>
<path class="st8" d="M415.4,297.8h-20.8v-3.5h20.8V297.8z M414,289.1h-19.4v3.5H414V289.1z M418.9,304.8h-24.4v3.5h24.4V304.8z
	 M409.8,299.7h-15.2v3.5h15.2V299.7z M423.9,315.2h-21.2v3.5h21.2V315.2z M416.1,310h-20.8v3.5h20.8V310z M439.3,325.7h-22.7v3.5
	h22.7V325.7z M432.4,320.6h-21.1v3.5h21.1V320.6z M401.4,278.6h-13.1v3.5h13.1V278.6z"/>
<path class="st7" d="M447.2,297.8h-31.8v-3.5h31.8V297.8z M416.6,289.1H414v3.5h2.6V289.1z M447.2,304.8h-28.2v3.5h28.2V304.8z
	 M412.4,299.7h-2.6v3.5h2.6V299.7z M443.5,315.2h-19.6v3.5h19.6V315.2z M440,310h-23.9v3.5H440V310z M451.2,325.7h-11.9v3.5h11.9
	V325.7z M449,320.6h-16.5v3.5H449V320.6z M395.7,283.8H393v3.5h2.7V283.8z M402.7,278.6h-1.3v3.5h1.3V278.6z"/>
<path class="st9" d="M394.5,296.8h-9.9v-1.5h9.9V296.8z M394.5,290.1h-9.9v1.5h9.9V290.1z M394.5,305.8h-9.9v1.5h9.9V305.8z
	 M394.5,300.7h-9.9v1.5h9.9V300.7z M402.8,316.2h-18.1v1.5h18.1V316.2z M395.2,311h-10.6v1.5h10.6V311z M416.6,326.7h-31.9v1.5h31.9
	V326.7z M411.3,321.6h-26.7v1.5h26.7V321.6z M393,284.8h-8.4v1.5h8.4V284.8z M388.2,279.6h-3.6v1.5h3.6V279.6z"/>
<path class="st10" d="M454.8,265.3C454.8,265.3,454.8,265.3,454.8,265.3l-76.8-0.1c-0.1,0-0.1,0.1-0.2,0.1c-0.1,0.1-0.1,0.1-0.2,0.2
	c-0.4,0.3-0.7,0.7-0.9,1.1v7.1h79.4v-7.3C455.8,266.1,455.4,265.6,454.8,265.3z"/>
<path class="st11" d="M376.8,332.9v-65.7c0-1.1,0.9-1.9,1.9-1.9h75.6c1.1,0,1.9,0.9,1.9,1.9v65.7H376.8z"/>
<circle class="st5" cx="439.5" cy="269.5" r="1.2"/>
<circle class="st5" cx="445.3" cy="269.5" r="1.2"/>
<circle class="st5" cx="451" cy="269.5" r="1.2"/>
<path class="st3" d="M172.5,284.6l4.7-137.7c0.1-1.9,1.7-3.5,3.6-3.4l244.6,8.3c1.9,0.1,3.5,1.7,3.4,3.6l-4.7,137.7L172.5,284.6z"/>
<path class="st9" d="M299.6,218.1l11.9-24.1c0,0,0.5,3.4,1.4,3.1c0.9-0.3,2.7-2.8,3.9-2.9c1.2-0.1,10.6-3.4,10.6-3.4s1.2,2,1.4,2.3
	c0.2,0.2,1.3,1.1,1.3,1.1l0.8,1.8c0,0,1.2,1.6,1.2,2c0,0.3-0.3,10.3-0.3,10.3s-11.5,0-14.3-0.1C314.8,208,299.6,218.1,299.6,218.1z
	 M346.9,215.5c0,0,1.9-10.3,1.6-10.3c-0.3-0.1-3.1,5.3-3.5,6s-1.2,3.2-1.4,4.3c-0.2,1.1-2,3.5-2,3.5L346.9,215.5z M356.1,202.6
	c-0.3,0.4,4.2,8.6,4.2,8.6l5,1l3.7-10.9c0,0,0.3-5.1,0.2-5.9c-0.1-0.8,0-0.9-1.1-2c-0.2-0.2-0.7-1.8-0.7-1.8s-0.7-0.2-1,0
	c-0.2,0.2-0.9,1.8-1,2.3c-0.1,0.5-0.8,3.3-1,3.9c-0.3,0.6-1.1-1.3-1.1-1.6s-0.5-3.4-1.1-4.3s-3.4-0.4-3.4-0.4
	S356.4,202.2,356.1,202.6z M375.7,211.9c-0.2,1,2.8,3.7,3.1,4.2c0.3,0.5,12.1,4.5,12.1,4.5s-0.2-1.1-0.5-1.1c-0.3,0-1.7-1-1.7-1
	s-1.1-4.1-1.4-4.6c-0.3-0.5-1.4-2-1.6-2.5c-0.2-0.5-1.3-1.4-1.3-1.4s-0.3-3.4-0.3-4c-0.1-0.6-1-1.2-1.5-2.2c-0.5-1-1-6.6-1-6.6
	s-0.9-1.2-1.2-1.4s-1.3-3.3-1.3-3.3s-2.6-0.3-3.2-0.1c-0.7,0.2-1.5,8.8-1.5,9.3C374.4,201.7,375.9,210.9,375.7,211.9z M403.5,218.5
	c-0.1,0.3,4.5,1.6,4.5,1.6l0.6-2.5c0,0-1.4-0.3-2.2-1s-0.7-1.9-0.8-2.3c-0.1-0.4-0.2-7.9-0.3-8.8c-0.1-0.9-0.4-5.8-0.6-6.3
	c-0.2-0.5-0.4-0.1-0.8,0c-0.4,0.1-0.7,1.9-0.8,2.2c-0.1,0.3-0.6,3.9-0.7,4.5c-0.1,0.6-1,1.2-1.1,1.5c-0.1,0.2-0.4,3.5-0.4,3.5
	S403.6,218.2,403.5,218.5z"/>
<path class="st8" d="M288.9,217.8c0,0,1.4-1.9,1.8-2c0.4-0.1,2.6-1.1,2.6-1.1l2-1.9l1.1,0c0,0,1.8-15.4,1.9-15.9s0.8-2.5,0.8-2.5
	l1-0.8l1.2-4.2l6.2,0.2l0,1.3l2-1.3l1.6,0.1c0,0,1,6.3,1.1,6.9c0.1,0.6,1.1,2.8,1.1,2.8l2.3-8l1.5-0.7l0.9-0.8c0,0,9.2-0.7,9.6,0.3
	s0.2,10.7,0.7,11.1c0.5,0.4,4.3,2.2,4.2,4.2c-0.1,2,0.8,11.9,0.8,11.9s1.7-1.3,2.2-1.4s2.7,0.7,3.1,0.8c0.4,0.1,2.1,1.3,2.1,1.3
	s3.8-0.7,4.5-2.5c0.8-1.8,1.8-14.5,2-15.7c0.2-1.2,2.1-5.3,2.4-6.1c0.3-0.7,0.8-2.5,1.5-2.7c0.7-0.2,3.2,0.2,3.2,0.2
	s1.2,0.9,1.5,0.8c0.4-0.1,1.5-0.9,1.5-0.9l3,0.2l0.8,5.2c0,0,1.9,2.8,1.9,3.9c0,1.1,0.8,9.2,1.1,8.9s1.4-6.7,1.5-9.6
	c0.1-2.9,1-5.9,1.3-5.2c0.2,0.6,1,3.6,1.5,4.1c0.6,0.5,1.8,0.7,1.7,1.6c0,1-0.7,10.6-0.4,11.6c0.3,1.1,0.5,7.4,1.1,7
	c0.6-0.3,1.2-7.2,1.3-8.7c0.1-1.6,0.8-6.8,1.2-7.8c0.4-0.9,1.4-3.6,1.7-4.6c0.3-1.1,0.5-4.3,1.7-4.4c1.2-0.1,2.5,0.7,2.6,1.5
	c0.1,0.8,0.7,4.5,1.2,5.8c0.6,1.3,2.3,5.4,2.3,6.5c0,1.1,1,5.2,1.9,6.6c0.9,1.4,3.2,5.2,4.5,5.3c1.3,0.2,3.9-0.4,5.3-0.3
	c1.4,0,4.3,1.3,4.6,0.2c0.3-1.2,1-8.1,1.3-8.9c0.3-0.7,2.3-2.9,2.7-2.7c0.5,0.3,0.9,2.1,1.2,4c0.3,1.9,0,6.7,1.1,6.8
	s3.4,0.4,3.4,0.4l-0.1,2.9L288.9,217.8z"/>
<path class="st7" d="M309.1,218.4c0,0,1.2-0.8,1.5-1.5c0.3-0.6,1.6-3.7,2.3-3.4c0.6,0.3,1.9,4.6,2.6,4.7c0.8,0.1,4,0.6,4,0.6
	L309.1,218.4z M332.9,219.2c0,0-1.4-2-2.4-2.6c-1-0.6-0.8-2.1-1.2-2.6c-0.4-0.5-1.2,1.4-1.5,2.5s-1.4,2.5-1.4,2.5L332.9,219.2z
	 M348,219.7c0,0-1.2-2.4-1.4-2.6c-0.2-0.3-1.1,0.8-1.7,0.9c-0.6,0.1-1.8,1.5-1.8,1.5L348,219.7z M390.9,221.2c0,0-2.4-1.2-3.2-1.4
	c-0.8-0.2-2-0.4-2.9-0.1c-0.9,0.3-4.2-1.4-4.2-1.4l-2,1.2c0,0-3.6-0.2-5-0.2c-1.4,0-2.4,0.4-3.1,0.6c-0.6,0.2-1.9-0.4-3.1-0.8
	c-1.2-0.5-2.1-1-2.9-1.4s-1.9-1.4-2.3-1.6c-0.4-0.3-1.9,1.8-2.2,2.4c-0.3,0.6-1.1,1.6-1.1,1.6L390.9,221.2z M408.4,221.8l0-1.3
	l-7.6-0.3l-1.5,1.3L408.4,221.8z"/>
<path class="st9" d="M270.7,236.4l26.5,0.9l-0.2,6.9l2.5,0.1l0.1-2.3l9.3,0.3c0-0.7,0-0.7,0-0.7l12,0.4l0-0.7l4.1,0.1l0.1-2.3
	l35.2,1.2l0-0.8l9.3,0.3l0.1-2.4l7.7,0.3l0-0.6l20.5,0.7l0-0.8l3,0.1l0,1.1l7,0.2l-0.9,25.3L270,259L270.7,236.4z"/>
<path class="st8" d="M270.4,244.7l21.1,0.7l0-0.4l3,0.1l0-1.3l2.5,0.1l-0.1,1.7l2.3,0.1l0-0.6l2.8,0.1l0,0.6l2.1,0.1l0,1.2
	c0,0,2.3,0.3,2.3,0.1c0-0.2,0.1-2.3,0.1-2.3l2.4,0.1l0,0.9l6.9,0.2l0,0.5l2.2,0.1l0.1-2l2.3,0.1l0,0.9l4.7,0.2l-0.1,3.1l2.3,0.1
	l0-1.2l13.9,0.5l0-0.8l2.5,0.1l-0.1,2l2.3,0.1l0.1-1.7l2,0.1l0-1l2.8,0.1l-0.1,1.9l2.1,0.1l0-1.2l2.6,0.1l-0.1,1.7l2.2,0.1l0.1-1.7
	l2.3,0.1l0-0.6l2.3,0.1l0-1.1l7,0.2l0,0.8l2.3,0.1l0.1-2l2.5,0.1l0-1.2l2.5,0.1l0,1.2l2,0.1l0-1.2l2.1,0.1l0-0.5l2.7,0.1l0-0.8
	l2.3,0.1l-0.1,3.8l2.2,0.1l0-1l6.9,0.2l0-0.6l2.5,0.1l0-1.1l2.5,0.1l-0.1,1.7l2.2,0.1l0-1.1l2.6,0.1l0-1l2.9,0.1l-0.6,18.9L270,259
	L270.4,244.7z"/>
<polygon class="st7" points="368.1,280.1 406.5,281.4 406.6,279.7 399,279.4 399.1,278.1 382.7,277.6 382.7,278.1 375.7,277.9
	375.7,278.8 373.3,278.7 373.2,279.3 370.5,279.2 370.5,279.6 368.1,279.5 "/>
<path class="st12" d="M215.7,180.3l-28.3-1l0.1-3.8l28.3,1L215.7,180.3z M215.5,187.5l-28.3-1l-0.1,3.8l28.3,1L215.5,187.5z
	 M215.1,197.6l-28.3-1l-0.1,3.8l28.3,1L215.1,197.6z M214.7,208.6l-28.3-1l-0.1,3.8l28.3,1L214.7,208.6z M214.4,219.7l-28.3-1
	l-0.1,3.8l28.3,1L214.4,219.7z M214,230.7l-28.3-1l-0.1,3.8l28.3,1L214,230.7z M213.7,240.8l-28.3-1l-0.1,3.8l28.3,1L213.7,240.8z
	 M213.3,251.9l-28.3-1l-0.1,3.8l28.3,1L213.3,251.9z"/>
<path class="st12" d="M266.2,180.8l-14.2-0.5l0-1.4l14.2,0.5L266.2,180.8z M265.9,190.4l-14.2-0.5l0,1.4l14.2,0.5L265.9,190.4z
	 M265.5,200.5l-14.2-0.5l0,1.4l14.2,0.5L265.5,200.5z M265.1,211.5l-14.2-0.5l0,1.4l14.2,0.5L265.1,211.5z M264.8,222.6l-14.2-0.5
	l0,1.4l14.2,0.5L264.8,222.6z M264.4,233.6l-14.2-0.5l0,1.4l14.2,0.5L264.4,233.6z M264.1,243.7l-14.2-0.5l0,1.4l14.2,0.5
	L264.1,243.7z M263.7,254.8l-14.2-0.5l0,1.4l14.2,0.5L263.7,254.8z"/>
<path class="st10" d="M426.3,151.9c-0.1,0-0.1-0.1-0.2-0.1l-246.5-8.3c-0.1,0.1-0.3,0.1-0.4,0.2c-0.1,0.1-0.2,0.2-0.3,0.3
	c-0.8,0.5-1.3,1.2-1.7,2l-0.4,12.9l251.6,8.5l0.4-13.3C428,153.3,427.3,152.5,426.3,151.9z"/>
<path class="st11" d="M172.5,284.6l4.7-137.7c0.1-1.9,1.7-3.5,3.6-3.4l244.6,8.3c1.9,0.1,3.5,1.7,3.4,3.6l-4.7,137.7L172.5,284.6z"
	/>
<circle class="st5" cx="398" cy="158.6" r="2.2"/>
<circle class="st5" cx="408.6" cy="159" r="2.2"/>
<circle class="st5" cx="419.1" cy="159.3" r="2.2"/>
<path class="st13" d="M512.4,395.8l-63.6-208.6c-0.2-0.6-0.9-1-1.5-0.8c-0.6,0.2-1,0.9-0.8,1.5l1.2,4.1h-10.4l-1.5-4.8
	c-0.2-0.6-0.9-1-1.5-0.8c-0.6,0.2-1,0.9-0.8,1.5l63.6,208.6c0.2,0.5,0.6,0.9,1.2,0.9c0.1,0,0.2,0,0.4-0.1c0.6-0.2,1-0.9,0.8-1.5
	l-5.4-17.7h10.4l5.6,18.4c0.2,0.5,0.6,0.9,1.2,0.9c0.1,0,0.2,0,0.4-0.1C512.2,397.1,512.6,396.4,512.4,395.8z M483.8,344.4h10.4
	l4.8,15.9h-10.4L483.8,344.4z M458,225.7h-10.4l-4.8-15.9h10.4L458,225.7z M458.3,226.6l4.8,15.9h-10.4l-4.8-15.9H458.3z
	 M463.4,243.5l4.8,15.9h-10.4l-4.8-15.9H463.4z M468.5,260.3l4.8,15.9h-10.4l-4.8-15.9H468.5z M473.7,277.1l4.8,15.9h-10.4
	l-4.8-15.9H473.7z M478.8,293.9l4.8,15.9h-10.4l-4.8-15.9H478.8z M483.9,310.8l4.8,15.9h-10.4l-4.8-15.9H483.9z M489.1,327.6
	l4.8,15.9h-10.4l-4.8-15.9H489.1z M448,193l4.8,15.9h-10.4l-4.8-15.9H448z M493.7,377.1l-4.8-15.9h10.4l4.8,15.9H493.7z"/>
<path class="st14" d="M453.7,183.1l-1.2,5.2l-1,4.2l-0.2,1.1c-0.2-0.3-0.4-0.7-0.7-1c-0.9-1.1-1.8-2.2-3-3.3
	c-2.1-2.1-4.8-4.4-8.2-7.8c-4.6-4.5-8.8-10.3-10.3-12.4c-0.1-0.1-0.1-0.2-0.1-0.2c-0.1-0.1-0.2-0.2-0.3-0.3
	c-0.1-0.1-0.1-0.2-0.2-0.3c0-0.1,0-0.1,0-0.1l0.2-0.2l0,0c-0.2-0.2-0.3-0.4-0.5-0.6c-0.7-0.9-1.4-1.9-2.1-2.7
	c-1.8-2.4-3.4-3.2-4.5-5.9c-0.1-0.2,0.7-1.8,1.2-2.2c0.4-0.3,1.8,1.4,2.4,2.1c0.5,0.6,2.4,2.7,2.4,2.7s0.4-0.3,0.4-0.5
	c0.1-0.2-0.3-1.6-0.7-2c-0.5-0.4-0.2-1.3,0-1.4c0.3,0,2.4,3.1,2.7,3.8c0.2,0.8,0.1,3.4,0.1,3.7c0,0.1,0.3,0.6,0.8,1.1l0.3,0
	c0,0,0,0.1,0,0.1c0.7,0.8,8.1,8.5,12.4,11.5C448.6,181,453.2,183.5,453.7,183.1z"/>
<path class="st15" d="M453.6,183l-1.2,5.2c-0.4,0.6-0.9,1-1.2,1.2c-0.6,0.2-2.1,0-3.6-0.2c-2.1-2.1-4.8-4.4-8.2-7.8
	c-5-5-9.6-11.4-10.7-12.9c-0.1-0.1-0.1-0.2-0.2-0.3c0-0.1,0-0.1,0-0.1c0-0.1,0.1-0.2,0.2-0.3c0.5-0.7,2.2-1.9,2.2-1.9l0.4-0.3
	c0.7,0.8,8,8.9,12.3,11.9C448.6,180.9,453.2,183.4,453.6,183z"/>
<path class="st16" d="M453.7,183.1l-1.2,5.2l-1,4.2c-0.3,0-0.6,0.1-0.9,0.1c-0.9-1.1-1.8-2.2-3-3.3c-2.1-2.1-4.8-4.4-8.2-7.8
	c-4.6-4.5-8.8-10.3-10.3-12.4c-0.1-0.1-0.1-0.2-0.1-0.2c-0.1-0.3-0.2-0.5-0.4-0.8c-0.1-0.2-0.2-0.5-0.4-0.8c-1.5-3.1-4-7.8-5.4-10.7
	c0.4-0.3,1.8,1.4,2.4,2.1c0.5,0.6,2.4,2.7,2.4,2.7s0.4-0.3,0.4-0.5c0.1-0.2-0.3-1.6-0.7-2c-0.5-0.4-0.2-1.3,0-1.4
	c0.3,0,2.4,3.1,2.7,3.8c0.2,0.8,0.1,3.4,0.1,3.7c0,0.1,0.3,0.5,0.7,1.1l0.4-0.3c0,0,0,0,0,0c0.7,0.8,8,8.9,12.3,11.9
	C448.6,181,453.2,183.5,453.7,183.1z"/>
<path class="st10" d="M427.1,154.5c0,0-4-1.5-4.8-0.5s-1.6,7.3-1.1,8s6,1.7,6.4,1.2c0.4-0.4,0.6-2.6,0.7-4.2
	C428.4,157.4,428.9,154.4,427.1,154.5z"/>
<line class="st11" x1="428.7" y1="155.3" x2="428.3" y2="166.4"/>
<path class="st14" d="M499.9,255.1c-0.1,0.6-3.9,9.4-4.3,9.4c-1.5-0.9-1.1-6.3-1.4-10.5c-0.2-0.2-0.4-0.4-0.7-0.4c0,0,0,0,0,0
	c-0.1,0-0.1,0.1-0.2,0.2c0,0-12.7-7.6-22.3-13.6c-2.2-1.4-4.3-4.1-5.9-7.3c0,0,0-0.1-0.1-0.1c0,3.9,0.1,7.8,0.2,8.9
	c0.2,2.3,2.1,4.8,2.5,7.9c0.4,3.1-0.4,8.1-0.3,12.9c0.1,4.9,0,7,0,7s-0.1,0-0.4,0.1l0,0.8c0,0,0,0.1,0.1,0.3c0.4,1,1.7,4.6,1.1,5
	c-0.4,0.3-10.6,3.1-10.7,2.7c-0.3-1.8,4.2-4.5,7-7.5c0-0.3-0.1-0.6-0.1-0.9c-0.1,0-0.2,0-0.3,0c0,0-1.5-9.1-3.7-20.3
	c-1.7-8.9-6-26.2-8.5-37.8c-0.1-0.3-0.2-0.6-0.2-0.9c-0.4,0-0.7,0.1-0.7,0.1s0.6-2.4,0-4.3c-1-3-0.1-10.7-1.9-14.3
	c-2-4-8-3.4-13.1-9.7c-4.9-6-9.6-13.2-10-13.8c0,0,0,0,0,0l0.3-0.2c-0.8-1.2-1.6-2.5-2.2-3.6c-1.5-2.6-3-3.6-3.8-6.4
	c0-0.3,0.9-1.8,1.4-2c0.4-0.2,1.7,1.7,2.1,2.4c0.4,0.7,2.2,2.9,2.2,2.9s0.4-0.2,0.4-0.4c0.1-0.2-0.1-1.6-0.5-2.1
	c-0.4-0.5,0-1.3,0.2-1.4c0.3,0,2,3.3,2.2,4.1c0.2,0.8-0.2,3.4-0.3,3.6c0,0.1,0.3,0.6,0.6,1.2l0.4-0.3c0,0,7.4,9.1,11.6,12.6
	c4.7,4,8.7,6.7,8.7,6.7c2.7-1.8,2.9-1.4,2.9-1.4c-0.1-2.1-1.2-4.1-1.2-4.1s-2.4,1.5-3-1.9c-0.3-1.8-0.1-3.2,0.5-5
	c0.3-0.9,0.6-1.6,0.6-1.6s0,0,0,0c-0.2-0.4-1.2-1.9-1-3.5c0.3-2.2,3.7-1.1,3.7-1.1s0.3-1,1.4-1c3.1,0,3.7,3.2,3.7,3.2
	c4.5,3.1,3.2,6.5,2.4,7.4c-0.9,0.8-2.1,0-2.1,0c-0.2,0.5-0.4,0.9-0.6,1.1c-0.6,0.6-1.3,0.5-1.3,0.5c0.4,1.5,0.9,2.7,1.5,3.6
	c3.6,2.5,4.3,9.5,4.3,15.6c0,2.7,1.9,5.3,2.3,7.1c0.1,0.7,2.3,0.7,2.4,1.3c0.3,1,0.4,1.6,0.4,1.6c-0.1,0-0.3,0.1-0.4,0.1
	c0,0,0,0-0.1,0c0,0.1,0.1,0.2,0.2,0.3v0c0.4,0.6,0.8,1.3,1.1,2c0.9,1.9,1.4,4.2,1.3,7.1c0,0,4,16.1,4.9,16.8
	c1.9,1.5,4.9,1.8,7.5,3.6c2.6,1.8,5.7,5.7,9.4,8.9c3.6,3.2,5.1,4.7,5.1,4.7s0,0.1-0.2,0.3l0.6,0.5C495.5,252,500,254.3,499.9,255.1z
	"/>
<path class="st17" d="M495,251.1c0,0,0,0.1-0.2,0.3c-0.3,0.4-0.9,1.4-1.4,2.1c0,0,0,0,0,0c-0.1,0-0.1,0.1-0.2,0.2
	c0,0-12.7-7.6-22.3-13.6c-2.3-1.4-4.3-4.2-6-7.5c0,3.9,0.1,7.8,0.2,8.9c0.2,2.3,2.1,4.8,2.5,7.9c0.4,3.1-0.4,8.1-0.3,12.9
	c0.1,4.9,0,7,0,7s-0.1,0-0.4,0.1c-0.5,0-1.6,0.2-2.5,0.3c-0.1,0-0.2,0-0.3,0c0,0-1.5-9.1-3.7-20.3c-1.7-8.9-6-26.2-8.5-37.8
	c-0.1-0.3-0.2-0.6-0.2-0.9c-0.4,0-0.6-1.8-0.6-1.8s0.8-0.4,0.2-2.2c4.5-1.2,7.7-1,11.4-1.9c0.4,2.2,1.4,1.6,1.4,1.6
	c-0.2,0,1.6,1.1,1.4,1.2c0.5,0.7,0.9,1.5,1.3,2.3c0.9,1.9,1.4,4.2,1.3,7.1c0,0,4,16.1,4.9,16.8c1.9,1.5,4.9,1.8,7.5,3.6
	c2.6,1.8,5.7,5.7,9.4,8.9C493.5,249.7,495,251.1,495,251.1z"/>
<path class="st18" d="M499.9,255.1c-0.1,0.6-3.9,9.4-4.3,9.4c-1.5-0.9-1.1-6.3-1.4-10.5c2.3,3.6,1.3-2,1.3-2S500,254.3,499.9,255.1z
	 M467.1,270.6c-0.1-0.2-0.1-0.3-0.1-0.3s-4.8,4.4-2.4,0.4c-2.8,3.1-7.3,5.7-7,7.5c0.1,0.4,10.2-2.3,10.7-2.7
	C468.8,275.2,467.5,271.6,467.1,270.6z"/>
<path class="st15" d="M456.6,182c5.9,2.3,5.7,9.2,6.7,15.3c0.8,5,2.8,10.2,2.8,10.2c-0.2,0-0.3,0.1-0.4,0.1
	c-2.9,0.9-9.9,2.6-13.9,3.1c-0.4,0-0.7,0.1-0.7,0.1s-0.5-3.2-1.7-6.8c-1.4-4.4-2.9-6.7-4.4-12.4c0,0-3.8-2.8-8.9-9.1
	c-4.9-6-9.6-13.2-10-13.8l2.6-1.9l0.4-0.3c0,0,7.6,9,11.8,12.4c4.4,3.5,7.1,4.5,7.1,4.5c3.4,0.7,4.3,1,4.3,1s2.9-0.3,3.6-1.3
	C456.8,181.8,456.6,182,456.6,182z"/>
<path class="st16" d="M499.9,255.1c-0.1,0.6-3.9,9.4-4.3,9.4c-1.5-0.9-1.1-6.3-1.4-10.5c-0.2-0.2-0.4-0.4-0.7-0.4c0,0,0,0,0,0
	c-0.1,0-0.1,0.1-0.2,0.2c0,0-12.7-7.6-22.3-13.6c-2.2-1.4-4.3-4.1-5.9-7.3c0.1-4.7,0.7-13.8,0.7-13.8c2.2-4.7,0.8-9.1,0.2-11
	c0.4,0.6,0.8,1.3,1.1,2c0.9,1.9,1.4,4.2,1.3,7.1c0,0,4,16.1,4.9,16.8c1.9,1.5,4.9,1.8,7.5,3.6c2.6,1.8,5.7,5.7,9.4,8.9
	c3.6,3.2,5.1,4.7,5.1,4.7s0,0.1-0.2,0.3l0.6,0.5C495.5,252,500,254.3,499.9,255.1z"/>
<path class="st19" d="M459.2,176.8c-0.9,0.8-2.1,0-2.1,0c-0.2,0.5-0.4,0.9-0.6,1.1c-0.6,0.6-1.3,0.5-1.3,0.5s-0.8,0.1-1.6-0.7
	c-0.3-0.3-1,0.1-1,0.1s0.1-1,0.4-0.8c0.8,0.2,1.3-1.2,1.3-1.8c0-1.2-1.1-0.6-1.1-0.6s0.5-1,0-1.7c-0.5-0.6-2.3-2.3-2.7-2.3
	c-0.4,0-1.3,1.2-1.3,1.2s0,0,0,0c-0.2-0.4-1.2-1.9-1-3.5c0.3-2.2,3.7-1.1,3.7-1.1s0.3-1,1.4-1c3.1,0,3.7,3.2,3.7,3.2
	C461.2,172.5,460,175.9,459.2,176.8z"/>
<path class="st13" d="M463,276.1L463,276.1l-1.2-3.9c-0.9-0.1-1.6,0.2-2.5,0.3l3.9,12.8c0.8-0.3,1.5-0.5,2.3-0.8l-2.2-7.4h5.7
	c0-0.3,0.1-0.6,0.1-0.8c-0.1,0-2.6-0.1-2.7-0.1C464.5,276.6,463.6,276.3,463,276.1z"/>
<path class="st3" d="M225.5,279.6l-61.1-46c-0.9-0.6-1-1.9-0.4-2.7l63.8-84.6c0.6-0.9,1.9-1,2.7-0.4l61.1,46L225.5,279.6z"/>
<path class="st10" d="M227.8,145.5c0,0-0.1,0-0.1,0L163.2,231c0,0.1,0,0.1,0,0.2c0,0.1,0,0.2,0,0.3c0,0.5,0.2,1,0.4,1.4l5.7,4.3
	l66.2-87.8l-5.9-4.4C229,145.1,228.4,145.2,227.8,145.5z"/>
<path class="st11" d="M225.1,279.3l-61.1-46c-0.9-0.6-1-1.9-0.4-2.7l63.8-84.6c0.6-0.9,1.9-1,2.7-0.4l61.1,46L225.1,279.3z"/>
<circle class="st5" cx="221.8" cy="160.4" r="1.2"/>
<circle class="st5" cx="225.3" cy="155.8" r="1.2"/>
<circle class="st5" cx="228.8" cy="151.1" r="1.2"/>
<path class="st9" d="M216,258.2l-23.3-29.6l18,10.5c0-0.9-11.1-14-10.6-14.8c0.5-0.8,15.8,5.8,15.8,5.8s-12.1-14.8-11.8-14.7
	c0.3,0.1,1.8,0,1.8,0l2.4,0.9c0,0,2.4,0.5,2.7,0.8c0.4,0.3,11.5,8.6,11.5,8.6s-5.1,7.7-6.4,9.4C214.8,236.9,216,258.2,216,258.2z
	 M237.4,221.7c0,0-10.7-9.6-10.9-9.5c-0.2,0.1,4.7,6.4,5.2,7.2c0.5,0.8-14.3-7.8-13.2-6.8c1.1,1,19.3,18.4,19.3,18.4L237.4,221.7z
	 M232.3,215.9c0.3,0.5,10.7,2,10.7,2l-1.3-11.2l-10.6-11.2c0,0-5.6-4.4-6.6-4.9c-1-0.6-1-0.7-2.7-0.9c-0.4,0-2.3-0.9-2.3-0.9
	s-0.6,0.3-0.5,0.6s1.6,2.1,2.1,2.5c0.5,0.5,3.3,3.1,3.9,3.8c0.6,0.7-2-0.4-2.2-0.6s-4-2.4-5.3-2.7c-1.3-0.3-1.9,1.9-1.9,1.9
	S232,215.4,232.3,215.9z M245.9,199.7c1,0.9,5.4,1.1,6.1,1.3s12.7-6,12.7-6s-18.6-11.6-18.7-11.4c-0.1,0.2,13.1,12.8,13.1,12.8
	s-5.1-2.6-5.7-2.8c-0.7-0.2-13.5-9.3-14.2-9.6c-0.6-0.2,8.6,8.4,8.6,8.4s-3.9-2.6-4.7-3c-0.7-0.5-1.8-0.3-3.2-0.8
	c-1.3-0.4-7.9-4.7-7.9-4.7s-1.8-0.4-2.1-0.4s-4.3-1.9-4.3-1.9s2.7,3.4,2.6,4c-0.1,0.6,5.2,6.2,5.7,6.6
	C234,192.3,244.9,198.8,245.9,199.7z M264.8,193.5c0.3,0.3,6.8-7.5,6.8-7.5l3.4-4.4c0,0-9.2,1.7-10.2,1.7c-1,0-2.4-1-2.9-1.3
	c-0.5-0.3-9-6.3-10-7s-6.7-4.4-7.3-4.7c-0.6-0.3-0.3,0.2-0.4,0.5c-0.1,0.3,1.8,2,2.1,2.3c0.3,0.3,4.1,3.6,4.7,4.1s1,1.7,1.2,1.9
	c0.2,0.2-10-3.4-10-3.4S264.4,193.1,264.8,193.5z"/>
<path class="st8" d="M214.4,262c0,0-1.1-2.1-1-2.5c0.1-0.3,0.1-2.4,0.1-2.4l-0.8-2.5l0.5-0.7c0,0-13.4-11.4-13.8-11.7
	c-0.4-0.3-1.9-2.2-1.9-2.2l-0.3-1.2l12.5,4.6l-1.9-3.9l-9.2-10.4c0,0,6.2,3.5,6.8,3.8c0.6,0.3,3.1,1.1,3.1,1.1l-6.3-6.8l0-1.4
	l12.4,6.6c0,0-11.4-12.5-10.3-12.2c1.1,0.3,12.1,5.3,12.6,5.2s3.9-1.4,5.8,0c1.8,1.4,11.3,7.3,11.3,7.3s-11.6-10.7-11.5-11.1
	c0.1-0.4,8.1,2.6,8.3,2.5c0.3-0.1,7.2,4.2,7.2,4.2s1-2.9-0.3-4.6c-1.3-1.7-17.5-16.5-18-17.1c-0.5-0.6-1.9-2.2-1.8-2.8
	c0.1-0.6,14.1,7.4,14.1,7.4s8.6,5.3,8.6,5c0.1-0.3-18.4-18.3-18.4-18.3l5.1,2.9c0,0,3.5,0.6,4.4,1.3c1,0.7,8.8,5.5,8.7,5.1
	c0-0.4-5.5-5.3-8.1-7.3c-2.6-2-4.9-4.5-4.3-4.3c0.7,0.3,3.8,1.8,4.5,1.7c0.7-0.1,1.4-0.7,2.3-0.1c0.9,0.7,9.4,7.4,10.5,7.9
	c1.1,0.5,7,4.5,6.9,3.9c0-0.6-6-5.5-7.5-6.6c-1.4-1.1-5.9-5-6.6-5.9c-0.7-0.9-2.6-3.3-3.5-4.2s12.1,7,12.6,6.1
	c0.5-0.8-5.2-4.7-5.2-4.7c1.2,0.9-3.7-3.6-2.2-3.1c1.5,0.5,6,2,7,2.7c1,0.7,5.2,2.7,6.9,3c1.7,0.3,6.2,1.3,6.9,0.5
	c0.7-0.8,1.4-2.8,2.1-3.7s3.2-1.9,2.2-2.9c-1-1-7-6-7.6-6.7s-1.7-3.4-1.2-3.6c0.4-0.1,2.3,0.8,4.2,1.9c1.9,1.1,6.2,4.4,6.7,3.7
	c0.5-0.7,7.3-3.7,7.3-3.7l-2.8,3.7L214.4,262z"/>
<path class="st7" d="M224,249.1c0,0-0.4-1.5-1-2.2c-0.6-0.7-3.5-4.1-2.9-4.3c0.6-0.2-7.4-8.5-6.9-9c0.5-0.4,16.9,7.3,16.9,7.3
	L224,249.1z M235.4,234c0,0-2.8-0.7-4-0.5c-1.2,0.2-2.7-1.1-3.4-1.3c-0.7-0.2-11.1-5.6-10.1-4.5l12.3,13.2L235.4,234z M242.6,224.4
	c0,0-3.2-1.1-3.6-1.2c-0.4-0.1,0.4,1.3,0.3,1.9c-0.1,0.5,0.9,2.5,0.9,2.5L242.6,224.4z M263.1,197.2c0,0-2.4,0.6-3,1
	c-0.6,0.4-1.4,1-1.4,1.8c0,0.9-3.4,1.7-3.4,1.7l0.4,2.3c0,0-1.8,2.2-2.4,3.2s-0.6,1.9-0.6,2.6c0,0.6-1.3,1-2.3,1.4
	c-1,0.4-2,0.5-2.9,0.8c-0.8,0.3-7-3.5-7.5-3.4s5.8,6.3,6.4,7s1.4,2.1,1.4,2.1L263.1,197.2z M271.5,186l1.4-1.7l-23.6-15.6l17.3,19.7
	l-9.3-5.4l8.5,10.6L271.5,186z"/>
<rect x="196.6" y="225.9" transform="matrix(0.602 -0.7985 0.7985 0.602 -82.9239 287.4702)" class="st10" width="100.6" height="1.9"/>
<rect x="229.4" y="216.6" transform="matrix(0.602 -0.7985 0.7985 0.602 -70.4734 293.9819)" class="st10" width="60.5" height="2.1"/>
<rect x="212.5" y="231.5" transform="matrix(0.602 -0.7985 0.7985 0.602 -84.7743 295.0111)" class="st10" width="82.2" height="2.1"/>
<path class="st14" d="M168.2,364.8c0.1,0.1-1.4,3.1-1.2,3.8c0.2,0.8,3.2,5.1,3.7,5.6c0.5,0.5,4.7,0.3,4.9,0.2
	c0.2-0.1-0.3-0.7-0.7-1.3c-0.5-0.6-1.6-1.3-1.6-1.3s-0.6-0.7-0.9-2.5c-0.1-0.9-0.4-1.8-0.6-2.7c0,0,0,0,0-0.1
	c-0.2-0.9-0.4-1.8-0.4-2.7c0-1.7,0.9-20.5,1.5-24.6c0.6-4,2.7-12.4,2.7-12.4l-8.2-0.7c0,0,0.6,11.9,0.2,13.5
	c-0.4,1.5-0.7,3.5-1.2,5.5c-0.6,2,0.3,6.3,0.9,9.5C167.9,357.9,168.1,364.7,168.2,364.8z"/>
<path class="st18" d="M166.9,368.7c0.2,0.8,3.2,5.1,3.7,5.6c0.5,0.5,4.7,0.3,4.9,0.2c0.2-0.1-0.3-0.7-0.7-1.3
	c-0.5-0.6-1.6-1.3-1.6-1.3s-0.6-0.7-0.9-2.5c-0.1-0.9-0.4-1.8-0.6-2.7c0,0,0,0,0-0.1c-0.2-0.3-1-1.5-1.9-1.9c-1-0.5-1.7,0.2-1.7,0.2
	C168.2,365,166.7,367.9,166.9,368.7z"/>
<path class="st16" d="M168.2,364.8c0.1,0.1-1.4,3.1-1.2,3.8c0.2,0.8,3.2,5.1,3.7,5.6c0.5,0.5,4.7,0.3,4.9,0.2
	c0.2-0.1-0.3-0.7-0.7-1.3c-0.5-0.6-1.6-1.3-1.6-1.3s-0.6-0.7-0.9-2.5c-0.1-0.9-0.4-1.8-0.6-2.7c0,0,0,0,0-0.1
	c-0.2-0.9-0.4-1.8-0.4-2.7c0-1.7,0.9-20.5,1.5-24.6c0.6-4,2.7-12.4,2.7-12.4l-8.2-0.7c0,0,0.6,11.9,0.2,13.5
	c-0.4,1.5-0.7,3.5-1.2,5.5c-0.6,2,0.3,6.3,0.9,9.5C167.9,357.9,168.1,364.7,168.2,364.8z"/>
<path class="st14" d="M155.9,298.1c3.8,2.8,11.3,1.7,13.1-3.9c1.7-5.6-1.6-11.6,0.3-14c0.1,0.2,0.3,0.4,0.5,0.5
	c2.1,1.7,5.6,1.2,6.7,1c0,0,0,0,0,0c0.2,0,0.3-0.1,0.3-0.1l-0.6,2.1c0,0-3.6,1.4-4.4,3c-0.1,0.1-0.1,0.2-0.1,0.4
	c-0.5,1.6-0.6,4.8-0.3,8.3c0.4,3.5,0.4,7.6,0.3,8.1c-0.2,1-7.2,4.7-6.9,13.9c0.2,7.2,0,12.9,0,12.9c1.4,0.8,15.2,1.2,16,0.4
	s1.4-17.7,1.4-20.9c0.1-3.2,1.8-6.6,1.8-7.6c0-1,2.1-2.4,2.7-4.7c0.6-2.3-1.5-5.8-1.7-6.7c-0.2-0.9,9.6-8.3,10.4-10.4
	c0.6-1.5,6-13,6-13c-0.4-1.6-2.6-2.2-3.2-2.3c-0.7,0-6.5,12.5-7.1,13.3c-0.6,0.9-10,5.7-10,5.7l-1-0.4c0,0,0.2-3.7,0.2-3.7
	s2.2-0.6,2.6-2.5c0.4-2-4.7-6.9-4.7-6.9c0,0,0.1-0.1,0.1-0.1c0.1-0.4,0.6-1.9-0.3-3.1c-1-1.3-3.2-2.3-5.2-0.4
	c-2,1.9-2.1,2.9-2.3,2.9c-0.1,0-2,0.1-2.9,1.8c-0.9,1.7-0.2,2.5-0.2,2.5l0,0c-1.2-0.4-2.9-0.6-4.7,0.2c-3.9,1.6-3,6.8-1.9,11.5
	c1.1,4.7-2.3,0.8-5,1.4C152.2,288.4,152.1,295.2,155.9,298.1z"/>
<path class="st14" d="M171.9,365.3c0.1,0.1-1.4,3.1-1.2,3.8c0.2,0.8,3.2,5.1,3.7,5.6c0.5,0.5,4.7,0.3,4.9,0.2
	c0.2-0.1-0.3-0.7-0.7-1.3c-0.5-0.6-1.6-1.3-1.6-1.3s-0.6-0.7-0.9-2.5c-0.1-0.8-0.3-1.5-0.5-2.3c-0.1-0.2-0.1-0.4-0.1-0.5
	c-0.2-0.9-0.4-1.8-0.4-2.7c0-1.7,0.9-20.5,1.5-24.5c0.6-4,2.7-12.4,2.7-12.4l-8.2-0.7c0,0,0.6,11.9,0.2,13.5
	c-0.4,1.5-0.7,3.4-1.2,5.5c-0.6,2,0.3,6.3,0.9,9.5C171.7,358.4,171.9,365.2,171.9,365.3z"/>
<path class="st14" d="M200.5,268.1c0.7-1.2,1.4-2.5,1.9-3.5c1.3-2.5,2.5-3.5,3.2-6.3c0-0.3-0.8-1.7-1.2-2c-0.4-0.2-1.4,1.6-1.8,2.3
	c-0.4,0.7-1.8,2.9-1.8,2.9s-0.3-0.2-0.4-0.4c-0.1-0.2,0.1-1.6,0.4-2.1c0.4-0.5,0-1.3-0.2-1.4c-0.3,0-1.7,3.3-1.9,4
	c-0.2,0.7,0.2,3.3,0.2,3.6c0,0.1-0.2,0.6-0.5,1.2L200.5,268.1z"/>
<path class="st14" d="M159.2,310.1c-0.6,1.2-1.3,2.5-1.8,3.6c-1.2,2.6-2.4,3.6-3,6.4c0,0.3,0.8,1.7,1.3,1.9c0.4,0.2,1.3-1.7,1.7-2.4
	c0.4-0.7,1.7-2.9,1.7-2.9s0.3,0.2,0.4,0.4c0.1,0.2,0,1.6-0.3,2.1c-0.4,0.5,0,1.3,0.2,1.4c0.3,0,1.6-3.3,1.7-4.1
	c0.1-0.8-0.3-3.3-0.4-3.6c0-0.1,0.2-0.6,0.5-1.2L159.2,310.1z"/>
<path class="st20" d="M173,285.5c-1.2,0.3-9.1,11.4-9.9,13.5c-0.6,1.5-4.9,11.7-4.9,11.7c0.5,1.6,2.6,2.1,3.3,2.1s4.9-11.2,5.4-12.1
	s8.5-9.8,8.5-9.8s3.7-0.5,2.1-3.3S173,285.5,173,285.5z"/>
<path class="st16" d="M157.5,313.6c0.3-0.7,0.7-1.5,1.1-2.3c-0.2-0.2-0.3-0.4-0.4-0.7c0,0,4.3-10.2,4.9-11.7
	c0.8-2.1,8.8-13.2,9.9-13.5c0,0,2.9-0.7,4.5,2.1s-2.1,3.3-2.1,3.3s-8,8.9-8.5,9.8c-0.5,0.9-4.7,12.2-5.4,12.1
	c-0.1,0-0.4-0.1-0.6-0.1c0,0.1,0,0.1,0,0.2c0.1,0.3,0.5,2.8,0.4,3.6c-0.1,0.8-1.4,4.1-1.7,4.1c-0.2,0-0.6-0.8-0.2-1.4
	c0.3-0.5,0.4-1.9,0.3-2.1c-0.1-0.2-0.4-0.4-0.4-0.4s-1.4,2.3-1.7,2.9c-0.4,0.7-1.3,2.6-1.7,2.4c-0.5-0.2-1.3-1.6-1.3-1.9
	C155.1,317.3,156.3,316.2,157.5,313.6z"/>
<path class="st20" d="M164.8,330.2c1.4,0.8,15.2,1.2,16,0.4s1.4-17.7,1.4-20.9c0.1-3.2,1.8-6.6,1.8-7.6c0-1,2.1-2.4,2.7-4.7
	c0.6-2.3-1.5-5.8-1.7-6.7c-0.2-0.9,9.6-8.3,10.4-10.4c0.6-1.5,6-13,6-13c-0.4-1.6-2.6-2.2-3.2-2.3c-0.7,0-6.5,12.5-7.1,13.3
	c-0.6,0.9-10,5.7-10,5.7l-1-0.4c0,0-2.7,0.9-4.1-0.2c0,0-3.6,1.4-4.4,3c-1.3,2.8,0.1,15.7-0.1,16.7c-0.2,1-7.2,4.7-6.9,13.9
	C165,324.5,164.8,330.2,164.8,330.2z"/>
<path class="st19" d="M155.9,298.1c3.8,2.8,11.3,1.7,13.1-3.9c1.7-5.6-1.6-11.6,0.3-14c0.1,0.2,0.3,0.4,0.5,0.5
	c2.1,1.7,5.6,1.2,6.7,1c0,0,0,0,0,0c1.3-0.6,1.7-1.5,1.7-1.5s-0.7-0.6-1-1.4c-0.3-0.9-1.1-1.1-1.1-1.1s0.2,0.6-0.4,0.9
	c-0.6,0.3-2.3-0.8-2.1-1.4c0.2-0.6,1-0.3,1.5-1.2c0.5-0.9-0.2-1.8,0-2.1c0.2-0.3,2.6-1.9,3.4-2.9c0,0,0.1-0.1,0.1-0.1
	c0.1-0.4,0.6-1.9-0.3-3.1c-1-1.3-3.2-2.3-5.2-0.4c-2,1.9-2.1,2.9-2.3,2.9c-0.1,0-2,0.1-2.9,1.8c-0.9,1.7-0.2,2.5-0.2,2.5l0,0
	c-1.2-0.4-2.9-0.6-4.7,0.2c-3.9,1.6-3,6.8-1.9,11.5c1.1,4.7-2.3,0.8-5,1.4C152.2,288.4,152.1,295.2,155.9,298.1z"/>
<path class="st18" d="M170.7,369.2c0.2,0.8,3.2,5.1,3.7,5.6c0.5,0.5,4.7,0.3,4.9,0.2c0.2-0.1-0.3-0.7-0.7-1.3
	c-0.5-0.6-1.6-1.3-1.6-1.3s-0.6-0.7-0.9-2.5c-0.1-0.8-0.3-1.5-0.5-2.3c-0.1-0.2-0.1-0.4-0.1-0.5c-0.1-0.5-1.2-1.4-2.1-1.7
	c-0.9-0.3-1.5,0-1.5,0C172,365.5,170.5,368.4,170.7,369.2z"/>
<path class="st14" d="M353.5,111c0.2-0.2,0.5-0.4,0.8-0.6c4.2,1.2,8.9,4.1,10.4,3c0.3-0.3-7.1-8.4-7.6-8.7c-0.7-0.4-3.4,2.6-4.1,3.5
	c-0.1,0.2-0.2,0.3-0.2,0.3l-0.7,0.4L353.5,111z"/>
<path class="st18" d="M352.9,108.2c-0.1,0.2-0.2,0.3-0.2,0.3s6.4,2.4,1.5,2c4.2,1.2,8.9,4.1,10.4,3c0.3-0.3-7.1-8.4-7.6-8.7
	C356.4,104.4,353.7,107.4,352.9,108.2z"/>
<path class="st17" d="M244.9,126.6c0,0,1.2-2.5,8-3.5c2.7-0.4,19.1-4.1,19.6-3.9c0.5,0.3-6.2,8.1-6.2,8.1H247L244.9,126.6z"/>
<path class="st16" d="M244.9,126.6c0,0,1.2-2.5,8-3.5c2.7-0.4,19.1-4.1,19.6-3.9c0.5,0.3-6.2,8.1-6.2,8.1H247L244.9,126.6z"/>
<path class="st14" d="M244,126.8c0,0,0.3-0.7,1.9-0.8s4.4-0.5,4.5,0.4c0.1,0.9-2.6,3.8-3.7,3.3C245.5,129.1,243.6,127.2,244,126.8z"
	/>
<path class="st14" d="M252.8,154.5c-1,1.1-1.9,2.4-2.8,3.3c-2.2,2.2-3.1,3.7-5.8,5.3c-0.3,0.1-2.1-0.3-2.5-0.7
	c-0.3-0.3,1.3-2,1.9-2.7c0.6-0.6,2.4-2.9,2.4-2.9s-0.3-0.3-0.6-0.3c-0.3,0-1.1,0.6-1.6,1c-0.8,0.6-1.5,0.4-1.6,0.2
	c-0.1-0.3,2.6-2.7,3.3-3.1c0.7-0.4,3.6-0.9,3.9-0.9c0.1,0,0.6-0.4,1.1-1L252.8,154.5z"/>
<path class="st14" d="M270.9,121.3l-0.4,0c-0.9,0-2.9-0.1-2.9-0.1c-0.5-1.3-1-2-1.3-2.2c-0.6-0.4-1.8-0.9-2-1c0,0,0,0,0,0
	s-0.2-1.5-1.4-2s-1.5,0.4-1.5,0.4s-0.9-1.7-2.8-2.5c-1.6-0.7-3.2,0-3.8,1.9c-0.5,1.9-1.5,4-2.2,5c-0.7,1-2.3,3.5-2,4.6
	c0.3,1.1,1,1,1,1s-0.1,1.9,1.5,2.2c1.6,0.3,2.3-0.8,2.6-1.8c0.2-0.5,0.2-1,0.2-1s2.4,0.5,4,0.8c1.6,0.3,3.3,0.7,3.3,0.7
	s-0.1,0.6,0.2,0.8c0.3,0.2,1.2,0.2,1.2,0.2s0.1,0.9,0.7,1.2c1.4,0.5,3.9-0.5,3.4-3.9l1.3,0.5c0,0,3.6-0.9,4-1.9
	S270.9,121.3,270.9,121.3z"/>
<path class="st18" d="M259.1,119.6c0.8-0.7,3.5,0.1,5.3,1.5c1.7,1.4,1.3,3.7,0.9,4.1c-0.4,0.4-1.1,0-1.5,0.2
	c-0.4,0.3-0.7,2.1-0.7,2.1s-0.1,0.6,0.2,0.8c0.3,0.2,1.2,0.2,1.2,0.2s0.1,0.9,0.7,1.2c1.4,0.5,3.9-0.5,3.4-3.9
	c-0.4-1.7-1.2-4.4-1.2-4.4c-0.5-1.3-1-2-1.3-2.2c-0.6-0.4-1.8-0.9-2-1c0.1,0.6,0.2,1.2,0.1,1.3c0,0.2-1-0.2-2.1-0.8
	c-1.1-0.6-1.1-2.1-1.1-2.1s-0.9-1.7-2.8-2.5c-1.6-0.7-3.2,0-3.8,1.9c-0.5,1.9-1.5,4-2.2,5c-0.7,1-2.3,3.5-2,4.6c0.3,1.1,1,1,1,1
	s-0.1,1.9,1.5,2.2c1.6,0.3,2.3-0.8,2.6-1.8c0.1-0.4,0.1-0.7,0.2-1c0.5-1.6,0.7-1.6,1.2-2.3C257.7,123,258.3,120.3,259.1,119.6z"/>
<path class="st17" d="M300.7,126.8c0,0-3.6-6.7-6.4-9.3c0,0-3.4,0.7-10.3-0.8c0,0-9.6-1.6-11.8,1.9c-2.2,3.6-8,18.2-8.7,19.3
	c-0.7,1.1-14.6,14.9-14.2,15.3c0.4,0.4,2.4,2.5,3.5,2.6c0,0,13.6-12.2,15.9-15.3c1.1-1.6,9.6-13.6,9.6-13.6L300.7,126.8z"/>
<path class="st20" d="M314.3,119.6c3.4,1.4,13,0.7,13,0.7s16.5-8.5,24.4-12.6c0,0,1.4,1.5,2.7,4.5c0,0-23.3,14.4-23.9,14.6
	c-0.5,0.1-18.5,0-18.5,0S313.4,119.2,314.3,119.6z"/>
<path class="st16" d="M314.3,119.6c3.4,1.4,13,0.7,13,0.7s16.5-8.5,24.4-12.6c0,0,0.3,0.3,0.7,0.9l0.3-0.2c0,0,0.1-0.1,0.2-0.3
	c0.8-0.8,3.5-3.8,4.1-3.5c0.5,0.3,8,8.4,7.6,8.7c-1.5,1.2-6.2-1.8-10.4-3c-0.2,0.1-0.3,0.2-0.5,0.3c0.2,0.4,0.5,0.8,0.7,1.4
	c0,0-23.3,14.4-23.9,14.6c-0.5,0.1-18.5,0-18.5,0S313.4,119.2,314.3,119.6z"/>
<path class="st14" d="M339.9,95.2c0.1-0.3,0.2-0.6,0.3-0.9c4-1.7,9.5-2.4,10-4.2c0.1-0.4-10.8-2.1-11.4-2c-0.7,0.1-1,4.2-1,5.3
	c0,0.2,0,0.3,0,0.3l-0.3,0.8L339.9,95.2z"/>
<path class="st18" d="M337.7,93.3c0,0.2,0,0.3,0,0.3s6.5-2.2,2.5,0.6c4-1.7,9.5-2.4,10-4.2c0.1-0.4-10.8-2.1-11.4-2
	C338,88.2,337.8,92.2,337.7,93.3z"/>
<path class="st20" d="M293.7,117.6c0,0,1.9-0.2,5.9-1.3c5.1-1.4,8.2,0.8,9.1,1.2c3.4,1.4,18.2,2,18.2,2s7.6-22,9.8-25.5
	c0,0,2.1,0.2,4.3,1.8c0,0-7.7,31-9.5,31c-0.5,0-35.7,0.1-35.7,0.1C295.9,119,293.7,117.6,293.7,117.6z"/>
</svg>
